<svg width="17" height="16" viewBox="0 0 17 16" fill="none" xmlns="http://www.w3.org/2000/svg">
<path id="Union" fill-rule="evenodd" clip-rule="evenodd" d="M2.94527 0.662735H13.2648V2.74556H16.1997L15.5843 4.82841H15.0636V13.2545C15.3251 13.2545 15.537 13.4664 15.537 13.7278V14.2959H15.6317C15.8931 14.2959 16.105 14.5078 16.105 14.7692V15.3373H10.8033V14.7692C10.8033 14.5078 11.0152 14.2959 11.2766 14.2959H11.3713V13.7278C11.3713 13.4988 11.5339 13.3078 11.75 13.2639V8.61539H11.7352C11.5677 6.75762 10.0064 5.30177 8.10503 5.30177C6.20368 5.30177 4.64234 6.75762 4.47491 8.61539H4.46006V13.2545H4.55473C4.81616 13.2545 5.02812 13.4664 5.02812 13.7278V14.2959H5.12278C5.38422 14.2959 5.59615 14.5078 5.59615 14.7692V15.3373H0.294372V14.7692C0.294372 14.5078 0.506325 14.2959 0.767761 14.2959H0.862426V13.7278C0.862426 13.4664 1.07436 13.2545 1.33579 13.2545V4.82841H0.815094L0.199707 2.74556H2.94527V0.662735Z" fill="#2640EB"/>
</svg>
