<svg width="17" height="16" viewBox="0 0 17 16" fill="none" xmlns="http://www.w3.org/2000/svg">
<path id="Union" fill-rule="evenodd" clip-rule="evenodd" d="M0.799805 1.92C0.799805 0.86 1.6598 0 2.7198 0C3.7798 0 4.6398 0.86 4.6398 1.92C4.6398 2.98 3.7798 3.86 2.7198 3.86C1.6598 3.86 0.799805 2.98 0.799805 1.92ZM16.7998 15.98V10.14C16.7998 7.26 16.1798 5.06 12.8198 5.06C11.1998 5.06 10.1198 5.94 9.6798 6.78H9.6398V5.32H6.4598V16H9.77981V10.7C9.77981 9.3 10.0398 7.96 11.7598 7.96C13.4598 7.96 13.4798 9.54 13.4798 10.78V15.98H16.7998ZM1.0598 5.32H4.37979V16H1.0598V5.32Z" fill="#2640EB"/>
</svg>
