<svg width="17" height="16" viewBox="0 0 17 16" fill="none" xmlns="http://www.w3.org/2000/svg">
<path id="Vector" fill-rule="evenodd" clip-rule="evenodd" d="M13.9673 14.1068L13.9678 14.1054L13.9819 14.0703L16.3999 1.87934V1.83974C16.3999 1.53599 16.2877 1.27082 16.0434 1.11177C15.8297 0.972545 15.584 0.962635 15.4117 0.975714C15.2294 0.989543 15.0575 1.03504 14.9386 1.0729C14.8774 1.09238 14.8262 1.11115 14.7895 1.12534C14.7711 1.13247 14.7562 1.13852 14.7454 1.14302L14.7347 1.1475L1.25303 6.43618L1.24932 6.43747C1.24204 6.44013 1.23241 6.44376 1.22078 6.44828C1.1976 6.45731 1.16604 6.47021 1.12896 6.48706C1.05617 6.52004 0.955585 6.57092 0.853584 6.64075C0.680344 6.75944 0.350458 7.04029 0.406159 7.48554C0.452297 7.85436 0.706542 8.0886 0.877943 8.20987C0.969817 8.27494 1.05772 8.32179 1.12209 8.35243C1.1547 8.36799 1.18241 8.37984 1.20304 8.38823C1.21339 8.39242 1.22203 8.39581 1.22872 8.39839L1.23729 8.40153L1.24277 8.40363L3.60148 9.19771C3.59352 9.34567 3.6082 9.49653 3.64744 9.64546L4.82895 14.1274C4.96904 14.6587 5.44979 15.0289 5.99937 15.0285C6.49198 15.0282 6.92887 14.7302 7.11447 14.2856L8.95908 12.3132L12.1272 14.742L12.1722 14.7617C12.46 14.8873 12.729 14.9271 12.9748 14.8935C13.2204 14.86 13.4154 14.757 13.562 14.6398C13.7063 14.5244 13.805 14.3942 13.8672 14.2961C13.8988 14.2463 13.9224 14.2025 13.9387 14.1695C13.9469 14.153 13.9533 14.1391 13.9582 14.1281L13.9643 14.1141L13.9665 14.1089L13.9673 14.1068ZM4.81695 9.33712C4.79009 9.23528 4.83225 9.12772 4.92118 9.07127L12.9216 3.99064C12.9216 3.99064 13.3922 3.70495 13.3754 3.99064C13.3754 3.99064 13.4594 4.04108 13.2072 4.27631C12.968 4.49973 7.5051 9.77399 6.9523 10.3077C6.92039 10.3385 6.90134 10.3738 6.8901 10.4167L5.99845 13.819L4.81695 9.33712Z" fill="#2640EB"/>
</svg>
