<svg xmlns="http://www.w3.org/2000/svg" width="13" height="13" viewBox="0 0 13 13" fill="none">
  <g clip-path="url(#clip0_1193_1416)">
    <path d="M7.19785 0.5C3.58826 0.5 0.666626 3.42114 0.666626 7.03122C0.666626 7.22557 0.824173 7.38311 1.01852 7.38311H7.19785C7.39219 7.38311 7.54974 7.22557 7.54974 7.03122V0.851891C7.54974 0.657547 7.39219 0.5 7.19785 0.5Z" fill="#5063EF"/>
    <path d="M4.69427 8.40046C4.63254 8.28773 4.5142 8.21765 4.38567 8.21765H2.30456C2.19255 8.21765 2.0872 8.27097 2.02092 8.3613C1.95461 8.45163 1.9353 8.56807 1.96884 8.67494C2.63163 10.7859 4.54333 12.3554 6.84596 12.5V9.86233C5.94281 9.75026 5.13865 9.21173 4.69427 8.40046Z" fill="#5063EF"/>
    <path d="M8.84157 1.80227C8.73472 1.76875 8.61821 1.78809 8.52793 1.85435C8.4376 1.92065 8.38428 2.02598 8.38428 2.13801V4.2191C8.38428 4.34761 8.45438 4.46592 8.56709 4.52768C9.37831 4.9721 9.91686 5.77624 10.0289 6.67936H12.6666C12.5217 4.37175 10.9476 2.46351 8.84157 1.80227Z" fill="#5063EF"/>
    <path d="M10.0294 7.38306C9.86976 8.67559 8.84228 9.70307 7.54974 9.8627V12.4997C10.2955 12.3269 12.4933 10.1326 12.6664 7.38306H10.0294Z" fill="#5063EF"/>
  </g>
  <defs>
    <clipPath id="clip0_1193_1416">
      <rect width="12" height="12" fill="white" transform="translate(0.666626 0.5)"/>
    </clipPath>
  </defs>
</svg>