<svg width="16" height="16" viewBox="0 0 16 16" fill="none" xmlns="http://www.w3.org/2000/svg">
<g id="arrow-left">
<path id="Vector" fill-rule="evenodd" clip-rule="evenodd" d="M7.76559 13.3656C7.61557 13.5156 7.41212 13.5998 7.19999 13.5998C6.98786 13.5998 6.78441 13.5156 6.63439 13.3656L1.83439 8.56561C1.68441 8.41558 1.60016 8.21214 1.60016 8.00001C1.60016 7.78787 1.68441 7.58443 1.83439 7.43441L6.63439 2.63441C6.78527 2.48868 6.98735 2.40804 7.19711 2.40987C7.40687 2.41169 7.60752 2.49582 7.75584 2.64415C7.90417 2.79248 7.9883 2.99313 7.99013 3.20288C7.99195 3.41264 7.91131 3.61472 7.76559 3.76561L4.33119 7.20001H13.6C13.8122 7.20001 14.0156 7.28429 14.1657 7.43432C14.3157 7.58435 14.4 7.78783 14.4 8.00001C14.4 8.21218 14.3157 8.41566 14.1657 8.56569C14.0156 8.71572 13.8122 8.80001 13.6 8.80001H4.33119L7.76559 12.2344C7.91556 12.3844 7.99982 12.5879 7.99982 12.8C7.99982 13.0121 7.91556 13.2156 7.76559 13.3656V13.3656Z" fill="#2640EB"/>
</g>
</svg>
