<?xml version="1.0" encoding="UTF-8"?>
<svg id="Layer_2" data-name="Layer 2" xmlns="http://www.w3.org/2000/svg" viewBox="0 0 320 82.3">
  <defs>
    <style>
      .cls-1 {
        fill-rule: evenodd;
      }

      .cls-1, .cls-2 {
        fill: #fff;
        stroke-width: 0px;
      }
    </style>
  </defs>
  <g id="Layer_1-2" data-name="Layer 1">
    <g>
      <path class="cls-1" d="m49.55,3.46l29.29,29.29c4.62,4.62,4.62,12.11,0,16.73l-29.35,29.36c-4.62,4.62-12.11,4.62-16.73,0L3.46,49.55c-4.62-4.62-4.62-12.11,0-16.73L32.82,3.46c4.62-4.62,12.11-4.62,16.73,0Zm-10.35,7.43l-.12.11-28.07,28.07c-1.12,1.12-1.15,2.9-.11,4.07l.11.12,28.03,28.03c1.12,1.12,2.9,1.15,4.06.11l.12-.11,28.07-28.07c1.15-1.15,1.15-3.02,0-4.18l-28.03-28.03c-1.12-1.12-2.9-1.15-4.06-.11Zm2.49,12.35l17.36,17.37c.29.29.29.75,0,1.05l-17.39,17.39c-.29.29-.76.29-1.05,0l-17.36-17.37c-.29-.29-.29-.75,0-1.05l17.39-17.39c.29-.29.76-.29,1.05,0Z"/>
      <path class="cls-2" d="m120.31,10.19l-23.48,61.99h10.96l5.27-14.16h26.76l5.35,14.16h11.14l-23.48-61.99h-12.52Zm6.04,12.26l9.84,25.9h-19.51l9.67-25.9Z"/>
      <path class="cls-2" d="m197.15,63.37h-23.91l23.66-28.66v-7.85h-36.35v8.81h24l-24.35,28.74v7.77h36.95v-8.81Z"/>
      <path class="cls-2" d="m207.51,60.79c0,9.23,4.66,11.91,13.3,11.91,2.68,0,5.27-.26,7.17-.6v-8.72c-1.55.17-2.5.26-4.23.26-3.71,0-6.04-.43-6.04-4.49v-23.48h9.5v-8.81h-9.5v-13.3h-10.19v13.3h-6.3v8.81h6.3v25.12Z"/>
      <path class="cls-2" d="m254.04,73.13c9.07,0,16.23-4.75,19.43-12.7l-8.89-3.37c-1.38,4.66-5.44,7.26-10.53,7.26-6.65,0-11.31-4.75-12.09-12.52h31.77v-3.45c0-12.43-6.99-22.36-20.12-22.36s-21.58,10.27-21.58,23.57c0,13.98,9.07,23.57,22.02,23.57Zm-.52-38.42c6.56,0,9.67,4.31,9.76,9.33h-20.81c1.55-6.13,5.7-9.33,11.05-9.33Z"/>
      <path class="cls-2" d="m289.01,49.56c0-9.24,4.84-14.68,11.91-14.68,5.53,0,8.89,3.72,10.19,8.64l8.72-4.75c-2.42-7.26-9.15-12.78-18.91-12.78-12.95,0-22.27,9.58-22.27,23.57s9.32,23.57,22.27,23.57c9.84,0,16.75-5.79,19.08-13.13l-8.89-4.49c-1.29,5.01-4.66,8.64-10.19,8.64-7.08,0-11.91-5.36-11.91-14.6Z"/>
    </g>
  </g>
</svg>