<svg width="77" height="98" viewBox="0 0 77 98" fill="none" xmlns="http://www.w3.org/2000/svg">
<path fill-rule="evenodd" clip-rule="evenodd" d="M73.3827 70.6339C74.5288 72.4055 75.3389 74.3729 75.7726 76.4379L75.6538 76.4527C76.1665 78.93 76.1279 81.4897 75.5408 83.9505C74.9537 86.4112 73.8326 88.7127 72.2568 90.6917C70.681 92.6708 68.6891 94.279 66.4224 95.4024C64.1557 96.5257 61.6697 97.1368 59.1405 97.1921C56.6113 97.2474 54.1009 96.7458 51.7873 95.7226C49.4736 94.6995 47.4133 93.1799 45.7525 91.2717C44.0916 89.3635 42.8709 87.1132 42.1767 84.6805C41.4826 82.2478 41.332 79.6922 41.7358 77.1949L41.5577 69.4019V67.4574V66.255C40.5114 65.5363 39.2719 65.1516 38.0026 65.1516C36.7333 65.1516 35.4937 65.5363 34.4475 66.255V67.4425V69.387L34.2694 77.18C34.6795 79.6798 34.5341 82.2393 33.8433 84.6765C33.1525 87.1137 31.9333 89.3689 30.2724 91.2816C28.6116 93.1944 26.5497 94.7179 24.2335 95.7437C21.9173 96.7696 19.4036 97.2727 16.871 97.2173C14.3384 97.1618 11.8491 96.5492 9.57996 95.423C7.31087 94.2967 5.3177 92.6845 3.74213 90.7008C2.16656 88.7172 1.04725 86.4109 0.463774 83.9458C-0.119707 81.4807 -0.153042 78.9173 0.36614 76.4379C0.78794 74.3717 1.59354 72.403 2.74115 70.6339L3.05287 69.9214L6.24428 62.2323C6.68492 61.0115 7.28378 59.8537 8.02554 58.7886L14.3787 44.8206C14.6337 44.194 14.9467 43.5927 15.3138 43.0245L17.2435 38.3487C17.7765 36.8692 18.6968 35.5599 19.9082 34.5573C21.1197 33.5547 22.578 32.8956 24.131 32.6487C24.622 32.5718 25.1186 32.5371 25.6154 32.5448H25.8084H26.4021L27.1889 32.7229L27.8123 32.8862L28.1982 32.9752C30.0306 33.5986 31.6059 34.8096 32.6795 36.42C33.7532 38.0305 34.2651 39.9503 34.1358 41.8815L34.0319 43.826C37.5201 40.2784 40.6225 42.0745 41.9733 43.2471V41.8815C41.8176 39.7647 42.436 37.6634 43.7134 35.9683C44.9908 34.2733 46.8403 33.0998 48.918 32.6661C50.9958 32.2324 53.1603 32.568 55.0091 33.6105C56.858 34.653 58.2653 36.3315 58.9694 38.3338L60.8546 43.0096C61.248 43.5719 61.5813 44.1739 61.8491 44.8057L68.128 58.7886C68.8698 59.8537 69.4687 61.0115 69.9093 62.2323L73.0859 69.9363L73.3827 70.6339ZM27.9384 90.7884C30.0885 88.6726 31.5632 85.9671 32.1764 83.0136C32.5864 81.0484 32.6042 79.0216 32.2287 77.0494C31.8533 75.0773 31.0921 73.1988 29.9887 71.5216C28.8853 69.8445 27.4615 68.4018 25.7991 67.2764C24.1367 66.151 22.2683 65.365 20.3014 64.9636C17.3464 64.3576 14.2781 64.6409 11.4841 65.7778C8.69011 66.9148 6.29576 68.8543 4.60353 71.3514C2.9113 73.8484 1.99712 76.7911 1.97648 79.8074C1.95584 82.8238 2.82967 85.7787 4.48756 88.2987C6.14546 90.8187 8.51305 92.7908 11.2912 93.9659C14.0694 95.1409 17.1335 95.4662 20.0965 94.9007C23.0595 94.3351 25.7884 92.9041 27.9384 90.7884ZM37.9655 55.2627C39.4379 55.1548 40.9033 55.5501 42.1217 56.3839L42.2108 52.955C41.0837 51.9374 39.6149 51.3815 38.0965 51.398C36.5781 51.4145 35.1217 52.0022 34.017 53.044V56.9776C35.1009 55.9752 36.493 55.3705 37.9655 55.2627ZM53.2144 93.9982C55.9903 95.1201 59.0365 95.3938 61.9679 94.7848C63.9156 94.3801 65.7645 93.5955 67.4089 92.4759C69.0533 91.3563 70.461 89.9236 71.5514 88.2597C72.6418 86.5958 73.3936 84.7333 73.7639 82.7787C74.1342 80.8242 74.1156 78.8157 73.7093 76.8683C73.0978 73.9374 71.6311 71.2536 69.4945 69.1562C67.358 67.0588 64.6475 65.6419 61.7059 65.0846C58.7642 64.5273 55.7233 64.8548 52.9677 66.0254C50.212 67.1961 47.8653 69.1575 46.2242 71.6617C44.5831 74.1659 43.7213 77.1004 43.7477 80.0943C43.7741 83.0882 44.6876 86.007 46.3726 88.4818C48.0576 90.9567 50.4386 92.8764 53.2144 93.9982ZM10.9115 76.0615C10.1857 74.9752 9.79832 73.6981 9.79832 72.3916C9.79832 70.6398 10.4943 68.9596 11.733 67.7209C12.9718 66.4821 14.6519 65.7862 16.4038 65.7862C17.7103 65.7862 18.9874 66.1736 20.0736 66.8994C21.1599 67.6252 22.0065 68.6568 22.5065 69.8638C23.0064 71.0708 23.1372 72.399 22.8824 73.6803C22.6275 74.9617 21.9984 76.1386 21.0746 77.0624C20.1508 77.9862 18.9738 78.6153 17.6925 78.8702C16.4111 79.1251 15.083 78.9943 13.876 78.4943C12.669 77.9944 11.6374 77.1477 10.9115 76.0615ZM20.5351 72.1311C20.8417 71.6722 21.0054 71.1326 21.0054 70.5807H21.0499C21.05 70.2105 20.9763 69.8439 20.8333 69.5024C20.6903 69.1609 20.4807 68.8512 20.2169 68.5915C19.953 68.3318 19.6401 68.1272 19.2964 67.9896C18.9526 67.852 18.585 67.7842 18.2148 67.7901C17.6628 67.7901 17.1233 67.9537 16.6644 68.2604C16.2054 68.567 15.8478 69.0029 15.6365 69.5128C15.4253 70.0227 15.3701 70.5838 15.4777 71.1251C15.5854 71.6665 15.8512 72.1637 16.2415 72.554C16.6318 72.9443 17.129 73.21 17.6703 73.3177C18.2117 73.4254 18.7728 73.3701 19.2827 73.1589C19.7926 72.9477 20.2284 72.59 20.5351 72.1311ZM57.9074 65.7862C56.6004 65.7832 55.3218 66.1681 54.2336 66.8922C53.1454 67.6162 52.2964 68.6468 51.7942 69.8535C51.292 71.0603 51.159 72.3889 51.4122 73.6712C51.6654 74.9535 52.2934 76.1319 53.2166 77.0572C54.1398 77.9825 55.3167 78.613 56.5985 78.8691C57.8802 79.1252 59.2091 78.9953 60.417 78.4957C61.6248 77.9962 62.6573 77.1496 63.3838 76.063C64.1103 74.9764 64.4981 73.6987 64.4981 72.3917C64.4981 70.6423 63.8042 68.9645 62.5686 67.7261C61.3331 66.4878 59.6568 65.7901 57.9074 65.7862ZM59.7184 73.3714C59.1665 73.3714 58.6269 73.2077 58.168 72.901C57.7091 72.5944 57.3514 72.1586 57.1402 71.6487C56.929 71.1387 56.8737 70.5776 56.9814 70.0363C57.0891 69.495 57.3548 68.9977 57.7451 68.6074C58.1354 68.2172 58.6326 67.9514 59.174 67.8437C59.7153 67.736 60.2764 67.7913 60.7863 68.0025C61.2962 68.2137 61.7321 68.5714 62.0387 69.0303C62.3453 69.4892 62.509 70.0288 62.509 70.5807C62.5051 71.3196 62.2099 72.0272 61.6874 72.5497C61.1649 73.0722 60.4573 73.3675 59.7184 73.3714ZM58.8211 53.8423C62.6442 53.9601 65.7178 57.0924 65.7178 60.9245C65.7178 62.0491 64.8023 62.9603 63.6725 62.9603C62.5427 62.9603 61.6272 62.0491 61.6272 60.9245C61.6272 59.3371 60.3878 58.0327 58.8211 57.9187C58.7473 57.9133 57.338 57.9106 57.2629 57.9106C55.5932 57.9106 54.2351 59.2624 54.2351 60.9245C54.2351 62.0491 53.3196 62.9603 52.1898 62.9603C51.06 62.9603 50.1445 62.0491 50.1445 60.9245C50.1445 57.0172 53.3384 53.8389 57.2629 53.8389C57.3376 53.8389 58.7469 53.84 58.8211 53.8423Z" fill="#2640EB"/>
<g clip-path="url(#clip0_703_1815)">
<path d="M37.8434 -0.0569153C33.2127 -0.0569153 29.4453 3.76889 29.4453 8.47143V8.57771C29.4453 10.0688 30.6399 11.2817 32.108 11.2817C32.517 11.2817 32.9101 11.1897 33.2762 11.008C34.1982 10.5504 34.771 9.61921 34.771 8.57771V8.47143C34.771 6.75108 36.1493 5.35137 37.8434 5.35137C39.5377 5.35137 40.9161 6.75108 40.9161 8.47143C40.9161 10.192 39.5377 11.5917 37.8434 11.5917H37.4386C35.9702 11.5917 34.7758 12.8046 34.7758 14.2957V18.7637C34.7758 20.2548 35.9702 21.4679 37.4386 21.4679C38.9069 21.4679 40.1013 20.2548 40.1013 18.7637V16.6871C43.6984 15.6699 46.2416 12.3217 46.2416 8.47143C46.2418 3.76889 42.4744 -0.0569153 37.8434 -0.0569153Z" fill="#A8B1F7"/>
<path d="M37.395 22.4943C35.605 22.4943 34.1489 23.9732 34.1489 25.7909C34.1489 27.6084 35.6052 29.0873 37.395 29.0873C39.185 29.0873 40.641 27.6084 40.641 25.7909C40.641 23.9732 39.185 22.4943 37.395 22.4943Z" fill="#A8B1F7"/>
</g>
<defs>
<clipPath id="clip0_703_1815">
<rect width="28.6992" height="29.1442" fill="white" transform="translate(23.4476)"/>
</clipPath>
</defs>
</svg>
