<svg xmlns="http://www.w3.org/2000/svg" width="13" height="13" viewBox="0 0 13 13" fill="none">
  <g clip-path="url(#clip0_1193_1431)">
    <path d="M9.47913 9.50647L7.01819 8.10022V11.058L9.47913 12.4766V9.50647Z" fill="#5063EF"/>
    <path d="M10.1823 12.4765L12.4723 11.1674C12.5914 11.1077 12.6666 10.9861 12.6666 10.8529V8.10022L10.1823 9.50638V12.4765Z" fill="#5063EF"/>
    <path d="M6.5239 0.506844L4.08429 1.78053L6.66663 3.24748L9.24896 1.78053L6.80936 0.506844C6.71854 0.466469 6.61472 0.466469 6.5239 0.506844Z" fill="#5063EF"/>
    <path d="M12.4418 7.41882L9.83069 6.125L7.24304 7.41882L9.83069 8.89768L12.4418 7.41882Z" fill="#5063EF"/>
    <path d="M0.860901 11.1675L3.151 12.4766V9.50647L0.666626 8.10022V10.853C0.666626 10.9862 0.741791 11.1078 0.860901 11.1675Z" fill="#5063EF"/>
    <path d="M3.85413 12.4765L6.31506 11.0655V8.10022L3.85413 9.50638V12.4765Z" fill="#5063EF"/>
    <path d="M0.891479 7.41882L3.50256 8.89768L6.09021 7.41882L3.50256 6.125L0.891479 7.41882Z" fill="#5063EF"/>
    <path d="M7.01819 6.74533L9.47913 5.51459V2.45178L7.01819 3.85794V6.74533Z" fill="#5063EF"/>
    <path d="M3.85413 5.51468L6.31506 6.74542V3.85803L3.85413 2.45178V5.51468Z" fill="#5063EF"/>
  </g>
  <defs>
    <clipPath id="clip0_1193_1431">
      <rect width="12" height="12" fill="white" transform="translate(0.666626 0.5)"/>
    </clipPath>
  </defs>
</svg>