<svg width="18" height="18" viewBox="0 0 18 18" fill="none" xmlns="http://www.w3.org/2000/svg">
<g id="briefcase">
<path id="Vector" d="M5.39999 5.90005H5.89999V5.40005V4.50005C5.89999 3.91657 6.13177 3.35699 6.54435 2.94441C6.95693 2.53183 7.51651 2.30005 8.09999 2.30005H9.89999C10.4835 2.30005 11.043 2.53183 11.4556 2.94441L11.8092 2.59086L11.4556 2.94441C11.8682 3.35699 12.1 3.91657 12.1 4.50005V5.40005V5.90005H12.6H14.4C14.7448 5.90005 15.0754 6.03701 15.3192 6.28081C15.563 6.52461 15.7 6.85527 15.7 7.20005V10.0619C13.5481 10.8174 11.2828 11.2025 9.00054 11.2L8.99943 11.2C6.71713 11.2026 4.45183 10.8175 2.29999 10.0619V7.20005C2.29999 6.85527 2.43695 6.52461 2.68075 6.28081C2.92455 6.03701 3.25521 5.90005 3.59999 5.90005H5.39999ZM10.8 5.90005H11.3V5.40005V4.50005C11.3 4.12875 11.1525 3.77265 10.8899 3.5101C10.6274 3.24755 10.2713 3.10005 9.89999 3.10005H8.09999C7.72868 3.10005 7.37259 3.24755 7.11004 3.5101C6.84749 3.77265 6.69999 4.12875 6.69999 4.50005V5.40005V5.90005H7.19999H10.8ZM8.01004 8.0101C7.74749 8.27265 7.59999 8.62875 7.59999 9.00005C7.59999 9.37135 7.74749 9.72745 8.01004 9.99C8.27259 10.2526 8.62869 10.4 8.99999 10.4H9.00899C9.38029 10.4 9.73639 10.2526 9.99894 9.99C10.2615 9.72745 10.409 9.37135 10.409 9.00005C10.409 8.62875 10.2615 8.27265 9.99894 8.0101C9.73639 7.74755 9.38029 7.60005 9.00899 7.60005H8.99999C8.62868 7.60005 8.27259 7.74755 8.01004 8.0101Z" fill="#6B7280" stroke="#6B7280"/>
<path id="Vector_2" d="M1.79999 12.3228V14.4C1.79999 14.8773 1.98963 15.3352 2.3272 15.6727C2.66476 16.0103 3.1226 16.2 3.59999 16.2H14.4C14.8774 16.2 15.3352 16.0103 15.6728 15.6727C16.0103 15.3352 16.2 14.8773 16.2 14.4V12.3228C13.8801 13.1046 11.4481 13.5023 8.99999 13.5C6.48359 13.5 4.06169 13.086 1.79999 12.3228Z" fill="#6B7280"/>
</g>
</svg>
