<svg width="646" height="799" viewBox="0 0 646 799" fill="none" xmlns="http://www.w3.org/2000/svg">
<path d="M270.549 221.705L152.895 262.42L157.43 275.525L275.084 234.81L270.549 221.705Z" fill="#E9EBFD" stroke="#2640EB" stroke-linecap="round" stroke-linejoin="round"/>
<path d="M179.892 253.097L162.502 259.115L167.037 272.22L184.427 266.202L179.892 253.097Z" fill="#E9EBFD" stroke="#2640EB" stroke-linecap="round" stroke-linejoin="round"/>
<path d="M246.31 230.093L177.134 254.032L181.669 267.137L250.845 243.198L246.31 230.093Z" fill="#E9EBFD" stroke="#2640EB" stroke-linecap="round" stroke-linejoin="round"/>
<path d="M224.688 237.576L198.743 246.554L203.278 259.659L229.223 250.681L224.688 237.576Z" fill="#E9EBFD" stroke="#2640EB" stroke-linecap="round" stroke-linejoin="round"/>
<path d="M184.188 412.045L169.033 535.62L182.798 537.308L197.952 413.733L184.188 412.045Z" fill="#E9EBFD" stroke="#2640EB" stroke-linecap="round" stroke-linejoin="round"/>
<path d="M172.499 507.278L170.259 525.542L184.023 527.23L186.263 508.966L172.499 507.278Z" fill="#E9EBFD" stroke="#2640EB" stroke-linecap="round" stroke-linejoin="round"/>
<path d="M181.066 437.505L172.155 510.16L185.92 511.848L194.83 439.193L181.066 437.505Z" fill="#E9EBFD" stroke="#2640EB" stroke-linecap="round" stroke-linejoin="round"/>
<path d="M178.281 460.214L174.939 487.465L188.703 489.153L192.045 461.902L178.281 460.214Z" fill="#E9EBFD" stroke="#2640EB" stroke-linecap="round" stroke-linejoin="round"/>
<path d="M487.334 502.727C510.34 502.932 529.157 484.448 529.363 461.442C529.568 438.435 511.084 419.618 488.078 419.413C465.071 419.207 446.254 437.691 446.049 460.698C445.843 483.704 464.327 502.521 487.334 502.727Z" fill="#2640EB" stroke="#2640EB" stroke-linecap="round" stroke-linejoin="round"/>
<path d="M489.599 500.499C512.605 500.728 531.441 482.264 531.671 459.258C531.9 436.252 513.436 417.415 490.43 417.186C467.423 416.956 448.587 435.42 448.358 458.427C448.128 481.433 466.592 500.269 489.599 500.499Z" fill="#E9EBFD" stroke="#2640EB" stroke-linecap="round" stroke-linejoin="round"/>
<path d="M489.599 500.499C512.605 500.728 531.441 482.264 531.671 459.258C531.9 436.252 513.436 417.415 490.43 417.186C467.423 416.956 448.587 435.42 448.358 458.427C448.128 481.433 466.592 500.269 489.599 500.499Z" stroke="#2640EB" stroke-linecap="round" stroke-linejoin="round"/>
<path d="M489.114 494.584C508.606 496.653 526.084 482.529 528.153 463.038C530.221 443.547 516.098 426.069 496.606 424C477.115 421.931 459.637 436.055 457.568 455.546C455.499 475.037 469.623 492.515 489.114 494.584Z" fill="#E9EBFD" stroke="#2640EB" stroke-width="1.00404" stroke-linecap="round" stroke-linejoin="round"/>
<path d="M513.991 435.529C520.405 442.132 523.991 450.977 523.984 460.183C523.978 469.388 520.381 478.229 513.958 484.823C514.185 484.611 514.426 484.402 514.656 484.177C521.379 477.643 525.231 468.705 525.365 459.331C525.499 449.956 521.903 440.913 515.368 434.19C508.834 427.467 499.897 423.615 490.522 423.481C481.148 423.347 472.104 426.943 465.381 433.477L464.702 434.17C471.477 427.935 480.418 424.588 489.622 424.842C498.826 425.096 507.569 428.93 513.991 435.529Z" fill="#2640EB" stroke="#2640EB" stroke-linecap="round" stroke-linejoin="round"/>
<path d="M468.993 478.558L469.773 477.286L472.886 474.749C471.763 473.632 470.891 472.29 470.325 470.811C469.76 469.332 469.515 467.749 469.606 466.169C469.908 463.275 471.67 460.144 474.915 456.792L482.39 460.683L481.61 461.955C480.504 463.03 479.517 464.222 478.667 465.509C478.108 466.292 477.794 467.223 477.766 468.184C477.786 468.939 478.099 469.656 478.64 470.183C478.877 470.508 479.21 470.75 479.591 470.877C479.973 471.004 480.384 471.008 480.768 470.89C481.477 470.639 482.122 470.236 482.657 469.709C483.866 468.606 484.71 467.161 485.075 465.566C485.393 463.867 485.482 462.134 485.34 460.411L485.023 455.313C484.966 453.892 485 452.47 485.125 451.053C485.259 449.648 485.622 448.275 486.201 446.987C486.922 445.481 487.921 444.125 489.146 442.991C490.144 441.901 491.353 441.024 492.699 440.416C494.046 439.807 495.502 439.478 496.98 439.45C499.961 439.584 502.793 440.793 504.951 442.854L511.362 440.015L510.596 441.29L506.911 444.84C508.155 446.131 509.021 447.738 509.415 449.487C509.694 450.895 509.602 452.352 509.148 453.714C508.694 455.046 508.041 456.302 507.212 457.439C506.468 458.527 505.649 459.561 504.759 460.534L498.127 455.198C498.272 455.041 498.742 454.107 498.893 453.923C499.613 453.167 499.915 453.226 500.427 452.586C500.959 451.972 501.334 451.239 501.521 450.449C501.564 450.107 501.517 449.759 501.385 449.44C501.253 449.121 501.041 448.842 500.768 448.631C500.497 448.322 500.145 448.097 499.751 447.981C499.357 447.866 498.939 447.864 498.544 447.976C497.758 448.167 497.036 448.56 496.45 449.116C495.314 450.114 494.572 451.485 494.357 452.982C494.198 454.392 494.145 455.812 494.201 457.23L494.485 462.137C494.54 463.79 494.47 465.445 494.274 467.088C494.089 468.729 493.646 470.331 492.963 471.835C492.171 473.503 491.074 475.008 489.731 476.274C488.431 477.563 486.847 478.53 485.106 479.095C483.426 479.639 481.631 479.727 479.906 479.349C478.042 478.921 476.311 478.045 474.863 476.796L470.959 480.588L468.993 478.558Z" fill="#2640EB" stroke="#2640EB" stroke-linecap="round" stroke-linejoin="round"/>
<path d="M469.762 477.34L473.633 473.571C472.512 472.455 471.639 471.115 471.074 469.639C470.508 468.162 470.262 466.582 470.351 465.003C470.655 462.097 472.417 458.965 475.66 455.627L482.379 460.738C481.27 461.804 480.283 462.992 479.439 464.278C478.879 465.06 478.561 465.989 478.524 466.95C478.552 467.703 478.865 468.417 479.398 468.949C479.64 469.272 479.975 469.513 480.358 469.64C480.741 469.767 481.153 469.774 481.54 469.659C482.248 469.399 482.893 468.992 483.431 468.464C484.634 467.363 485.472 465.922 485.833 464.332C486.152 462.629 486.242 460.891 486.1 459.164L485.783 454.065C485.733 452.645 485.767 451.223 485.885 449.806C486.018 448.4 486.387 447.026 486.975 445.742C487.687 444.239 488.682 442.886 489.904 441.757C490.9 440.663 492.108 439.783 493.456 439.172C494.803 438.56 496.261 438.231 497.741 438.202C500.72 438.334 503.548 439.549 505.695 441.618L509.393 438.071L511.337 440.068L507.666 443.62C508.9 444.916 509.76 446.52 510.156 448.264C510.444 449.672 510.352 451.131 509.89 452.491C509.442 453.821 508.79 455.073 507.956 456.203C507.187 457.26 506.349 458.267 505.448 459.215L498.802 453.876C499.612 453.061 500.377 452.203 501.094 451.306C501.623 450.696 501.997 449.967 502.185 449.182C502.231 448.84 502.187 448.491 502.058 448.171C501.929 447.85 501.719 447.569 501.449 447.353C501.175 447.045 500.819 446.821 500.422 446.707C500.025 446.594 499.605 446.594 499.209 446.71C498.425 446.895 497.703 447.284 497.117 447.836C495.985 448.837 495.244 450.206 495.025 451.702C494.87 453.113 494.822 454.534 494.882 455.953L495.152 460.856C495.203 462.515 495.136 464.175 494.953 465.824C494.755 467.464 494.309 469.064 493.628 470.569C492.842 472.235 491.745 473.737 490.398 474.993C489.098 476.287 487.513 477.258 485.771 477.829C484.089 478.363 482.297 478.446 480.573 478.069C478.711 477.65 476.982 476.773 475.544 475.518L471.624 479.321L469.762 477.34Z" fill="#E9EBFD" stroke="#2640EB" stroke-linecap="round" stroke-linejoin="round"/>
<path d="M120.55 610.699C158.354 615.856 193.181 589.391 198.338 551.587C203.495 513.783 177.029 478.956 139.225 473.799C101.421 468.642 66.5946 495.108 61.4377 532.912C56.2807 570.716 82.7463 605.542 120.55 610.699Z" fill="#2640EB" stroke="#2640EB" stroke-width="1.0018" stroke-linecap="round" stroke-linejoin="round"/>
<path d="M137.967 606.388C175.283 598.77 199.358 562.344 191.74 525.028C184.122 487.712 147.695 463.637 110.38 471.256C73.0636 478.874 48.9888 515.3 56.6069 552.616C64.2249 589.932 100.651 614.006 137.967 606.388Z" fill="#E9EBFD" stroke="#2640EB" stroke-linecap="round" stroke-linejoin="round"/>
<path d="M137.967 606.388C175.283 598.77 199.358 562.344 191.74 525.028C184.122 487.712 147.695 463.637 110.38 471.256C73.0636 478.874 48.9888 515.3 56.6069 552.616C64.2249 589.932 100.651 614.006 137.967 606.388Z" stroke="#2640EB" stroke-linecap="round" stroke-linejoin="round"/>
<path d="M150.273 591.217C179.208 576.817 190.991 541.687 176.591 512.752C162.19 483.817 127.06 472.035 98.1254 486.435C69.1905 500.835 57.4078 535.965 71.808 564.9C86.2082 593.835 121.338 605.617 150.273 591.217Z" fill="#E9EBFD" stroke="#2640EB" stroke-linecap="round" stroke-linejoin="round"/>
<path d="M75.6699 512.249C82.9841 498.877 95.229 488.888 109.798 484.409C124.366 479.929 140.108 481.314 153.671 488.267C153.226 487.993 152.767 487.717 152.303 487.468C145.561 483.78 138.158 481.456 130.517 480.629C122.877 479.801 115.148 480.487 107.773 482.647C100.397 484.807 93.5194 488.398 87.5318 493.216C81.5442 498.033 76.5642 503.983 72.876 510.726C69.1879 517.468 66.8639 524.871 66.0367 532.511C65.2095 540.152 65.8953 547.881 68.055 555.256C70.2147 562.632 73.8059 569.509 78.6237 575.497C83.4414 581.485 89.3914 586.465 96.1338 590.153C96.5953 590.415 97.0787 590.64 97.543 590.888C84.3728 583.212 74.718 570.698 70.633 556.012C66.5479 541.325 68.3551 525.624 75.6699 512.249Z" fill="#2640EB" stroke="#2640EB" stroke-linecap="round" stroke-linejoin="round"/>
<path d="M165.708 562.405L163.388 561.803L157.857 558.111C154.619 563.414 150.629 566.537 145.887 567.481C141.145 568.425 135.339 567.151 128.47 563.661L130.982 549.893L133.289 550.492C135.524 551.727 137.888 552.712 140.339 553.429C141.845 553.924 143.463 553.967 144.994 553.552C146.166 553.161 147.143 552.333 147.72 551.239C148.117 550.704 148.338 550.058 148.353 549.391C148.367 548.725 148.174 548.07 147.801 547.518C147.049 546.523 146.093 545.702 144.997 545.108C142.672 543.739 139.984 543.112 137.293 543.311C134.442 543.635 131.648 544.344 128.987 545.418L121.067 548.386C118.862 549.179 116.604 549.819 114.311 550.301C112.028 550.779 109.68 550.873 107.366 550.58C104.638 550.181 102.012 549.269 99.6242 547.891C94.6041 545.147 91.455 541.552 90.1769 537.105C88.9299 532.329 89.4667 527.262 91.6868 522.853L84.0656 514.083L86.3692 514.696L93.8224 518.768C95.2659 516.177 97.388 514.028 99.9607 512.552C102.067 511.405 104.438 510.836 106.835 510.903C109.18 510.976 111.5 511.407 113.715 512.18C115.762 512.878 117.761 513.712 119.697 514.677L114.491 527.783C114.18 527.621 112.473 527.383 112.171 527.181C110.613 526.401 110.582 525.91 109.297 525.413C108.079 524.862 106.742 524.627 105.409 524.729C104.843 524.821 104.311 525.06 103.866 525.423C103.421 525.785 103.079 526.259 102.875 526.795C102.521 527.375 102.34 528.044 102.352 528.723C102.364 529.402 102.568 530.064 102.942 530.631C103.598 531.78 104.546 532.735 105.689 533.401C107.846 534.716 110.4 535.222 112.896 534.828C115.176 534.382 117.419 533.768 119.608 532.99L127.287 530.231C129.863 529.327 132.502 528.614 135.184 528.1C137.876 527.603 140.63 527.527 143.345 527.876C146.363 528.311 149.272 529.308 151.921 530.816C154.598 532.241 156.902 534.276 158.648 536.756C160.321 539.145 161.334 541.934 161.583 544.841C161.831 548.025 161.282 551.22 159.984 554.139L167.913 558.476L165.708 562.405Z" fill="#2640EB" stroke="#2640EB" stroke-linecap="round" stroke-linejoin="round"/>
<path d="M163.38 561.844L155.545 557.539C152.3 562.831 148.313 565.964 143.578 566.895C138.843 567.826 133.028 566.575 126.158 563.089L130.969 549.962C133.203 551.188 135.562 552.172 138.005 552.896C139.516 553.392 141.139 553.436 142.674 553.021C143.844 552.626 144.82 551.799 145.4 550.708C145.794 550.174 146.013 549.531 146.027 548.867C146.041 548.203 145.849 547.551 145.478 547.001C144.728 546.005 143.772 545.182 142.674 544.591C140.347 543.214 137.653 542.586 134.956 542.791C132.109 543.122 129.317 543.826 126.653 544.885L118.744 547.869C116.53 548.647 114.269 549.285 111.975 549.781C109.696 550.257 107.354 550.348 105.046 550.049C102.311 549.663 99.6767 548.749 97.2905 547.358C92.2686 544.623 89.1305 541.02 87.8542 536.588C86.602 531.812 87.139 526.743 89.3641 522.336L81.8367 518.206L84.063 514.168L91.4941 518.207C92.9418 515.619 95.0579 513.466 97.6215 511.974C99.7231 510.846 102.081 510.281 104.466 510.334C106.811 510.395 109.133 510.822 111.348 511.597C113.402 512.294 115.405 513.133 117.341 514.11L112.121 527.214C110.417 526.333 108.67 525.54 106.886 524.836C105.664 524.287 104.325 524.046 102.988 524.135C102.425 524.235 101.898 524.478 101.457 524.84C101.015 525.202 100.674 525.672 100.467 526.204C100.112 526.786 99.9291 527.457 99.9406 528.138C99.9521 528.82 100.157 529.484 100.532 530.054C101.206 531.208 102.173 532.163 103.336 532.821C105.493 534.136 108.047 534.642 110.543 534.248C112.82 533.793 115.063 533.179 117.255 532.41L124.906 529.574C127.498 528.682 130.153 527.987 132.85 527.496C135.556 526.995 138.324 526.922 141.052 527.28C144.078 527.7 146.995 528.699 149.642 530.222C152.321 531.644 154.626 533.68 156.369 536.162C158.038 538.558 159.049 541.351 159.302 544.26C159.542 547.416 158.998 550.581 157.719 553.476L165.634 557.811L163.38 561.844Z" fill="#E9EBFD" stroke="#2640EB" stroke-linecap="round" stroke-linejoin="round"/>
<path d="M518.201 434.536C537.188 416.462 530.71 378.834 503.732 350.493C476.754 322.151 439.491 313.828 420.503 331.902C401.516 349.977 407.993 387.604 434.972 415.946C461.95 444.287 499.213 452.61 518.201 434.536Z" fill="#2640EB" stroke="#2640EB" stroke-linecap="round" stroke-linejoin="round"/>
<path d="M524.148 429.151C543.136 411.076 536.658 373.449 509.68 345.107C482.701 316.766 445.439 308.443 426.451 326.517C407.463 344.592 413.941 382.219 440.919 410.561C467.898 438.902 505.161 447.225 524.148 429.151Z" fill="#E9EBFD" stroke="#2640EB" stroke-linecap="round" stroke-linejoin="round"/>
<path d="M516.745 421.391C532.861 406.05 527.369 374.119 504.477 350.071C481.586 326.023 449.964 318.964 433.848 334.305C417.732 349.646 423.225 381.577 446.116 405.625C469.008 429.673 500.629 436.731 516.745 421.391Z" fill="#E9EBFD" stroke="#2640EB" stroke-linecap="round" stroke-linejoin="round"/>
<path d="M516.745 421.391C532.861 406.05 527.369 374.119 504.477 350.071C481.586 326.023 449.964 318.964 433.848 334.305C417.732 349.646 423.225 381.577 446.116 405.625C469.008 429.673 500.629 436.731 516.745 421.391Z" stroke="#2640EB" stroke-linecap="round" stroke-linejoin="round"/>
<path d="M494.813 345.868C520.088 366.993 530.822 399.661 518.77 418.815C518.389 419.439 517.976 420.084 517.56 420.601C518.867 419.233 520.037 417.739 521.054 416.143C533.092 396.987 522.372 364.322 497.086 343.18C472.606 322.726 443.504 320.572 430.742 337.831C444.459 323.529 471.713 326.515 494.813 345.868Z" fill="#2640EB" stroke="#2640EB" stroke-linecap="round" stroke-linejoin="round"/>
<path d="M440.305 347.314L443.009 346.337L447.292 353.162C448.334 351.546 449.829 350.272 451.591 349.5C453.352 348.727 455.302 348.49 457.197 348.819C461.248 349.393 466.332 352.13 472.446 357.031L471.634 365.6L468.927 366.591C466.962 364.939 464.875 363.438 462.683 362.102C461.49 361.3 460.119 360.804 458.69 360.655C458.244 360.628 457.798 360.724 457.402 360.932C457.007 361.141 456.675 361.453 456.445 361.836C456.133 362.293 455.976 362.838 455.995 363.39C456.013 363.943 456.208 364.475 456.549 364.91C457.258 365.963 458.113 366.91 459.088 367.724C461.024 369.474 463.339 370.753 465.851 371.46C468.169 371.998 470.55 372.216 472.928 372.105L479.626 371.919C481.549 371.906 483.47 372.024 485.376 372.273C487.451 372.573 489.47 373.175 491.371 374.06C493.837 375.241 496.134 376.746 498.201 378.537C502.664 382.273 505.562 386.176 506.896 390.244C507.557 392.098 507.843 394.064 507.735 396.03C507.628 397.995 507.13 399.919 506.27 401.689L513.971 409.049L511.267 410.025L504.628 404.431C503.492 406.182 501.71 407.413 499.67 407.857C497.699 408.174 495.678 407.965 493.813 407.254C491.716 406.474 489.716 405.456 487.852 404.219C485.882 402.93 484.079 401.66 482.545 400.4L486.422 390.983C486.779 391.267 489.128 389.992 489.128 389.992C489.128 389.992 489.945 393.72 491.011 394.459C492.031 395.238 493.19 395.816 494.426 396.162C494.837 396.274 495.274 396.232 495.658 396.046C496.041 395.86 496.343 395.541 496.509 395.149C496.778 394.644 496.897 394.074 496.853 393.505C496.809 392.935 496.604 392.39 496.262 391.933C495.602 390.744 494.735 389.683 493.701 388.801C491.936 387.161 489.757 386.034 487.399 385.541C485.511 385.249 483.601 385.11 481.69 385.124L475.228 385.271C472.941 385.311 470.655 385.173 468.391 384.858C465.962 384.448 463.598 383.721 461.358 382.695C458.623 381.393 456.073 379.732 453.777 377.756C451.388 375.79 449.327 373.456 447.672 370.841C446.166 368.545 445.167 365.954 444.74 363.242C444.352 360.796 444.674 358.29 445.67 356.022L438.609 350.116L440.305 347.314Z" fill="#2640EB" stroke="#2640EB" stroke-linecap="round" stroke-linejoin="round"/>
<path d="M443.009 346.337L450.013 352.175C451.054 350.56 452.546 349.287 454.305 348.515C456.063 347.742 458.01 347.503 459.904 347.828C463.952 348.421 469.034 351.163 475.15 356.054L471.634 365.6C469.666 363.955 467.578 362.459 465.387 361.125C464.195 360.323 462.824 359.826 461.394 359.678C460.948 359.651 460.502 359.747 460.107 359.956C459.711 360.164 459.379 360.477 459.149 360.86C458.838 361.317 458.68 361.861 458.699 362.414C458.717 362.966 458.912 363.499 459.253 363.933C459.962 364.986 460.817 365.934 461.792 366.747C463.736 368.486 466.048 369.764 468.555 370.483C470.874 371.015 473.255 371.232 475.632 371.128L482.333 370.929C484.255 370.927 486.175 371.05 488.08 371.297C490.155 371.596 492.174 372.198 494.075 373.083C496.549 374.25 498.848 375.757 500.906 377.56C505.368 381.297 508.266 385.199 509.6 389.267C510.262 391.121 510.547 393.088 510.439 395.053C510.332 397.018 509.834 398.942 508.974 400.712L515.681 406.32L513.971 409.049L507.332 403.454C506.196 405.205 504.414 406.436 502.374 406.881C500.403 407.201 498.381 406.988 496.52 406.263C494.419 405.495 492.417 404.481 490.556 403.242C488.586 401.953 486.786 400.669 485.249 399.424L489.128 389.992C490.838 391.372 492.377 392.533 493.715 393.482C494.739 394.255 495.897 394.832 497.13 395.186C497.541 395.297 497.979 395.256 498.362 395.069C498.745 394.883 499.047 394.564 499.214 394.172C499.487 393.667 499.609 393.094 499.565 392.521C499.522 391.948 499.315 391.4 498.969 390.942C498.308 389.758 497.44 388.701 496.405 387.824C494.641 386.183 492.462 385.055 490.103 384.565C488.215 384.273 486.305 384.133 484.394 384.147L477.932 384.294C475.666 384.276 473.404 384.091 471.166 383.739C468.736 383.33 466.372 382.598 464.136 381.562C461.394 380.271 458.843 378.609 456.555 376.623C454.165 374.657 452.104 372.323 450.449 369.708C448.956 367.405 447.957 364.817 447.518 362.109C447.129 359.663 447.452 357.157 448.448 354.889L441.244 349.054L443.009 346.337Z" fill="#E9EBFD" stroke="#2640EB" stroke-linecap="round" stroke-linejoin="round"/>
<path d="M357.349 157.055C391.765 149.438 415.529 124.57 410.425 101.51C405.322 78.4498 373.285 65.9302 338.868 73.5466C304.452 81.163 280.689 106.031 285.792 129.091C290.895 152.151 322.932 164.671 357.349 157.055Z" fill="#2640EB" stroke="#2640EB" stroke-linecap="round" stroke-linejoin="round"/>
<path d="M355.968 149.969C390.384 142.353 414.148 117.485 409.044 94.4245C403.941 71.3644 371.904 58.8448 337.488 66.4612C303.071 74.0776 279.308 98.9458 284.411 122.006C289.514 145.066 321.551 157.586 355.968 149.969Z" fill="#E9EBFD" stroke="#2640EB" stroke-linecap="round" stroke-linejoin="round"/>
<path d="M354.568 143.643C383.771 137.181 403.934 116.08 399.604 96.5139C395.274 76.9475 368.09 66.3247 338.888 72.7872C309.685 79.2497 289.522 100.35 293.852 119.917C298.182 139.483 325.366 150.106 354.568 143.643Z" fill="#E9EBFD" stroke="#2640EB" stroke-linecap="round" stroke-linejoin="round"/>
<path d="M354.568 143.643C383.771 137.181 403.934 116.08 399.604 96.5139C395.274 76.9475 368.09 66.3247 338.888 72.7872C309.685 79.2497 289.522 100.35 293.852 119.917C298.182 139.483 325.366 150.106 354.568 143.643Z" stroke="#2640EB" stroke-linecap="round" stroke-linejoin="round"/>
<path d="M331.125 78.2327C359.184 68.5826 389.369 75.5017 398.545 93.7096C398.842 94.2963 399.112 94.8776 399.35 95.4809C398.913 93.8297 398.308 92.2278 397.543 90.7009C388.309 72.4958 358.182 65.5739 330.12 75.2377C302.963 84.5815 287.743 106.046 295.112 123.939C290.494 106.705 305.466 87.0741 331.125 78.2327Z" fill="#2640EB" stroke="#2640EB" stroke-linecap="round" stroke-linejoin="round"/>
<path d="M306.899 120.967L307.402 118.427L314.661 118.296C313.901 116.741 313.615 114.997 313.838 113.281C314.061 111.566 314.784 109.953 315.916 108.644C318.25 105.787 322.73 103.142 329.356 100.707L335.575 105.319L335.073 107.859C332.891 108.612 330.77 109.527 328.725 110.596C327.536 111.143 326.503 111.978 325.719 113.025C325.491 113.357 325.358 113.745 325.333 114.147C325.309 114.55 325.394 114.951 325.58 115.308C325.791 115.761 326.139 116.136 326.575 116.378C327.011 116.621 327.513 116.719 328.009 116.66C329.151 116.602 330.28 116.384 331.361 116.011C333.606 115.326 335.666 114.138 337.384 112.539C338.878 110.998 340.154 109.258 341.175 107.37L344.14 102.122C345.031 100.632 346.019 99.203 347.099 97.8438C348.295 96.3881 349.696 95.1134 351.257 94.0597C353.314 92.7029 355.547 91.6331 357.893 90.8801C362.049 89.2366 366.586 88.8046 370.978 89.6341C372.716 89.9828 374.367 90.6754 375.833 91.6714C377.299 92.6673 378.551 93.9463 379.516 95.4333L388.773 92.9157L388.268 95.4689L380.904 98.0049C381.735 99.7031 381.861 101.662 381.252 103.452C380.577 105.125 379.47 106.59 378.043 107.695C376.451 108.955 374.712 110.019 372.865 110.864C370.971 111.787 369.164 112.556 367.455 113.187L361.996 105.815C362.383 105.664 362.502 103.262 362.502 103.262C362.502 103.262 365.751 104.362 366.817 103.874C367.889 103.452 368.872 102.834 369.717 102.052C369.993 101.787 370.164 101.433 370.2 101.052C370.236 100.672 370.135 100.291 369.914 99.9797C369.65 99.5376 369.267 99.1796 368.808 98.9472C368.348 98.7149 367.833 98.6178 367.321 98.6673C366.099 98.6235 364.879 98.8025 363.721 99.1955C361.634 99.7877 359.749 100.938 358.269 102.524C357.169 103.851 356.175 105.261 355.294 106.742L352.394 111.803C351.333 113.558 350.139 115.229 348.822 116.801C347.379 118.489 345.712 119.973 343.869 121.213C341.601 122.722 339.138 123.914 336.548 124.756C333.942 125.662 331.211 126.161 328.452 126.234C325.982 126.314 323.523 125.88 321.229 124.96C319.161 124.117 317.378 122.7 316.09 120.875L308.246 123.602L306.899 120.967Z" fill="#2640EB" stroke="#2640EB" stroke-linecap="round" stroke-linejoin="round"/>
<path d="M307.402 118.427L315.163 115.756C314.404 114.201 314.118 112.458 314.341 110.742C314.564 109.026 315.287 107.414 316.419 106.105C318.753 103.248 323.233 100.602 329.859 98.1673L335.575 105.319C333.394 106.073 331.273 106.988 329.227 108.056C328.039 108.603 327.006 109.438 326.222 110.485C325.994 110.818 325.861 111.206 325.836 111.608C325.812 112.01 325.897 112.411 326.083 112.769C326.297 113.219 326.646 113.591 327.081 113.833C327.517 114.075 328.017 114.176 328.512 114.12C329.653 114.057 330.781 113.839 331.864 113.472C334.111 112.782 336.172 111.59 337.89 109.986C339.385 108.451 340.66 106.716 341.678 104.83L344.643 99.5829C345.534 98.0929 346.522 96.6636 347.602 95.3043C348.798 93.8486 350.198 92.574 351.76 91.5202C353.817 90.1634 356.05 89.0937 358.396 88.3407C362.553 86.6995 367.089 86.2629 371.484 87.081C373.221 87.4353 374.87 88.1317 376.336 89.1297C377.801 90.1277 379.053 91.4072 380.019 92.8938L387.473 90.333L388.773 92.9157L381.407 95.4654C382.238 97.1637 382.364 99.1221 381.755 100.912C381.08 102.586 379.973 104.05 378.546 105.156C376.954 106.416 375.215 107.48 373.368 108.324C371.608 109.189 369.803 109.96 367.961 110.634L362.529 103.268C364.389 102.595 366.001 101.944 367.342 101.368C368.414 100.946 369.397 100.328 370.242 99.5455C370.52 99.2823 370.694 98.9273 370.73 98.5462C370.766 98.165 370.662 97.7838 370.439 97.4731C370.178 97.0287 369.795 96.6687 369.335 96.436C368.875 96.2033 368.358 96.1077 367.846 96.1607C366.626 96.1192 365.408 96.2933 364.249 96.6752C362.162 97.2767 360.277 98.4314 358.794 100.017C357.692 101.342 356.697 102.753 355.819 104.235L352.922 109.282C351.863 111.039 350.668 112.71 349.35 114.281C347.903 115.966 346.237 117.45 344.396 118.692C342.129 120.202 339.666 121.394 337.076 122.235C334.462 123.14 331.723 123.627 328.958 123.681C326.488 123.767 324.027 123.334 321.735 122.407C319.664 121.574 317.878 120.161 316.593 118.336L308.749 121.062L307.402 118.427Z" fill="#E9EBFD" stroke="#2640EB" stroke-linecap="round" stroke-linejoin="round"/>
<path d="M296.485 707.13C313.896 687.284 303.997 650.128 274.374 624.14C244.752 598.151 206.623 593.17 189.212 613.015C171.802 632.861 181.701 670.017 211.324 696.005C240.946 721.994 279.074 726.975 296.485 707.13Z" fill="#E9EBFD" stroke="#2640EB" stroke-linecap="round" stroke-linejoin="round"/>
<path d="M215.888 601.358L188.867 620.386" stroke="#2640EB" stroke-linecap="round" stroke-linejoin="round"/>
<path d="M225.975 601.929L200.044 619.775" stroke="#2640EB" stroke-linecap="round" stroke-linejoin="round"/>
<path d="M239.07 604.522L212.047 623.564" stroke="#2640EB" stroke-linecap="round" stroke-linejoin="round"/>
<path d="M300.342 660.337L273.321 679.365" stroke="#2640EB" stroke-linecap="round" stroke-linejoin="round"/>
<path d="M303.959 672.108L276.936 691.15" stroke="#2640EB" stroke-linecap="round" stroke-linejoin="round"/>
<path d="M304.861 684.769L277.841 703.798" stroke="#2640EB" stroke-linecap="round" stroke-linejoin="round"/>
<path d="M253.681 610.34L227.387 629.156" stroke="#2640EB" stroke-linecap="round" stroke-linejoin="round"/>
<path d="M271.126 621.655L244.106 640.683" stroke="#2640EB" stroke-linecap="round" stroke-linejoin="round"/>
<path d="M296.485 707.13C313.896 687.284 303.997 650.128 274.374 624.14C244.752 598.151 206.623 593.17 189.212 613.015C171.802 632.861 181.701 670.017 211.324 696.005C240.946 721.994 279.074 726.975 296.485 707.13Z" stroke="#2640EB" stroke-linecap="round" stroke-linejoin="round"/>
<path d="M290.994 713.073C308.405 693.227 298.505 656.071 268.883 630.082C239.26 604.094 201.132 599.113 183.721 618.958C166.31 638.804 176.21 675.959 205.832 701.948C235.455 727.937 273.583 732.918 290.994 713.073Z" fill="#E9EBFD" stroke="#2640EB" stroke-linecap="round" stroke-linejoin="round"/>
<path d="M282.873 705.948C297.649 689.106 289.249 657.575 264.111 635.521C238.974 613.467 206.617 609.241 191.842 626.083C177.066 642.925 185.466 674.456 210.603 696.51C235.741 718.564 268.097 722.79 282.873 705.948Z" fill="#E9EBFD" stroke="#2640EB" stroke-linecap="round" stroke-linejoin="round"/>
<path d="M282.873 705.948C297.649 689.106 289.249 657.575 264.111 635.521C238.974 613.467 206.617 609.241 191.842 626.083C177.066 642.925 185.466 674.456 210.603 696.51C235.741 718.564 268.097 722.79 282.873 705.948Z" stroke="#2640EB" stroke-linecap="round" stroke-linejoin="round"/>
<path d="M220.69 699.855C193.422 680.946 179.72 649.145 190.061 628.84C190.389 628.191 190.742 627.562 191.119 626.952C189.92 628.436 188.88 630.043 188.016 631.744C177.662 652.047 191.381 683.837 218.649 702.746C244.982 721.042 274.431 720.583 285.678 702.112C273.226 717.663 245.667 717.155 220.69 699.855Z" fill="#2640EB" stroke="#2640EB" stroke-linecap="round" stroke-linejoin="round"/>
<path d="M275.228 693.437L272.601 694.672L267.69 688.207C266.788 689.916 265.405 691.324 263.712 692.256C262.019 693.189 260.09 693.605 258.163 693.453C254.041 693.236 248.693 690.945 242.121 686.581L242.167 677.917L244.794 676.683C246.908 678.161 249.133 679.475 251.448 680.611C252.732 681.319 254.172 681.697 255.638 681.712C256.088 681.696 256.524 681.558 256.901 681.314C257.279 681.07 257.583 680.728 257.782 680.325C258.05 679.837 258.157 679.277 258.087 678.725C258.017 678.172 257.774 677.657 257.392 677.252C256.582 676.258 255.636 675.384 254.582 674.655C252.483 673.08 250.05 672.008 247.471 671.521C245.103 671.207 242.703 671.212 240.336 671.534L233.644 672.335C231.713 672.513 229.772 672.567 227.834 672.497C225.727 672.386 223.647 671.974 221.657 671.273C219.074 670.321 216.635 669.017 214.408 667.398C209.575 664.045 206.314 660.389 204.625 656.431C203.802 654.637 203.341 652.698 203.268 650.725C203.196 648.753 203.515 646.785 204.205 644.936L195.817 638.239L198.441 637.018L205.602 641.989C206.093 641.063 206.763 640.243 207.573 639.578C208.383 638.913 209.317 638.416 210.321 638.116C212.27 637.614 214.318 637.64 216.254 638.192C218.428 638.78 220.526 639.617 222.508 640.686C224.588 641.802 226.478 642.922 228.176 644.048L225.137 653.846C224.747 653.583 222.513 655.066 222.513 655.066C222.513 655.066 221.353 651.413 220.211 650.773C219.121 650.08 217.908 649.602 216.638 649.366C216.218 649.294 215.787 649.374 215.422 649.592C215.057 649.81 214.782 650.152 214.647 650.556C214.416 651.086 214.344 651.672 214.438 652.242C214.533 652.813 214.791 653.344 215.18 653.771C215.954 654.897 216.918 655.88 218.029 656.675C219.937 658.168 222.216 659.112 224.621 659.407C226.53 659.522 228.445 659.486 230.348 659.3L236.815 658.555C239.088 658.364 241.372 658.339 243.648 658.482C246.125 658.67 248.565 659.191 250.902 660.032C253.765 661.079 256.471 662.513 258.945 664.293C261.516 666.051 263.796 668.201 265.7 670.666C267.403 672.839 268.637 675.342 269.323 678.017C269.938 680.437 269.839 682.984 269.041 685.35L276.666 690.641L275.228 693.437Z" fill="#2640EB" stroke="#2640EB" stroke-linecap="round" stroke-linejoin="round"/>
<path d="M272.601 694.671L265.077 689.444C264.178 691.156 262.796 692.566 261.102 693.498C259.408 694.431 257.478 694.845 255.551 694.69C251.428 694.473 246.08 692.187 239.505 687.832L242.179 677.933C244.292 679.412 246.517 680.725 248.833 681.862C250.119 682.563 251.557 682.941 253.023 682.963C253.473 682.944 253.911 682.804 254.289 682.557C254.666 682.311 254.971 681.967 255.169 681.562C255.435 681.073 255.541 680.514 255.471 679.962C255.401 679.41 255.159 678.895 254.779 678.489C253.969 677.495 253.023 676.621 251.969 675.892C249.866 674.323 247.435 673.252 244.858 672.758C242.49 672.444 240.09 672.449 237.723 672.772L231.031 673.572C229.123 673.758 227.205 673.817 225.29 673.747C223.182 673.644 221.101 673.231 219.113 672.524C216.531 671.57 214.092 670.266 211.863 668.649C207.027 665.314 203.766 661.658 202.081 657.682C201.257 655.888 200.795 653.949 200.723 651.976C200.651 650.003 200.97 648.036 201.661 646.187L194.423 641.173L195.897 638.269L203.058 643.239C204.057 641.376 205.754 639.983 207.776 639.366C209.726 638.869 211.773 638.9 213.707 639.456C215.883 640.037 217.982 640.875 219.961 641.95C222.032 643.064 223.922 644.18 225.631 645.299L222.593 655.096C220.738 653.873 219.1 652.85 217.666 652.024C216.572 651.34 215.359 650.867 214.091 650.631C213.671 650.558 213.24 650.638 212.875 650.856C212.51 651.074 212.235 651.417 212.1 651.82C211.869 652.348 211.796 652.932 211.891 653.501C211.987 654.069 212.245 654.598 212.636 655.022C213.405 656.151 214.37 657.135 215.485 657.925C217.393 659.417 219.672 660.362 222.076 660.657C223.987 660.761 225.902 660.721 227.806 660.537L234.271 659.805C236.543 659.601 238.828 659.576 241.104 659.732C243.581 659.915 246.022 660.432 248.36 661.269C251.222 662.322 253.927 663.76 256.401 665.543C258.976 667.296 261.256 669.448 263.156 671.917C264.864 674.087 266.098 676.591 266.779 679.267C267.394 681.688 267.296 684.235 266.496 686.601L274.125 691.878L272.601 694.671Z" fill="#E9EBFD" stroke="#2640EB" stroke-linecap="round" stroke-linejoin="round"/>
<path d="M515.537 267.462C540.621 259.846 551.74 223.32 540.373 185.879C529.006 148.437 499.456 124.259 474.372 131.875C449.288 139.49 438.168 176.016 449.535 213.457C460.903 250.899 490.452 275.077 515.537 267.462Z" fill="#E9EBFD" stroke="#2640EB" stroke-linecap="round" stroke-linejoin="round"/>
<path d="M502.971 136.044L470.199 137.942" stroke="#2640EB" stroke-linecap="round" stroke-linejoin="round"/>
<path d="M511.182 141.836L479.954 143.283" stroke="#2640EB" stroke-linecap="round" stroke-linejoin="round"/>
<path d="M520.873 150.887L488.103 152.772" stroke="#2640EB" stroke-linecap="round" stroke-linejoin="round"/>
<path d="M543.299 230.05L510.526 231.948" stroke="#2640EB" stroke-linecap="round" stroke-linejoin="round"/>
<path d="M540.184 241.887L507.415 243.771" stroke="#2640EB" stroke-linecap="round" stroke-linejoin="round"/>
<path d="M534.299 253.018L501.541 254.919" stroke="#2640EB" stroke-linecap="round" stroke-linejoin="round"/>
<path d="M530.142 163.436L498.117 165.525" stroke="#2640EB" stroke-linecap="round" stroke-linejoin="round"/>
<path d="M538.938 182.125L506.165 184.023" stroke="#2640EB" stroke-linecap="round" stroke-linejoin="round"/>
<path d="M515.537 267.462C540.621 259.846 551.74 223.32 540.373 185.879C529.006 148.437 499.456 124.259 474.372 131.875C449.288 139.49 438.168 176.016 449.535 213.457C460.903 250.899 490.452 275.077 515.537 267.462Z" stroke="#2640EB" stroke-linecap="round" stroke-linejoin="round"/>
<path d="M507.815 269.596C532.899 261.98 544.019 225.454 532.651 188.013C521.284 150.572 491.734 126.393 466.65 134.009C441.566 141.624 430.446 178.15 441.813 215.592C453.181 253.033 482.73 277.212 507.815 269.596Z" fill="#E9EBFD" stroke="#2640EB" stroke-linecap="round" stroke-linejoin="round"/>
<path d="M504.697 259.326C525.987 252.862 535.427 221.868 525.782 190.099C516.137 158.329 491.059 137.815 469.768 144.279C448.478 150.743 439.037 181.737 448.683 213.506C458.328 245.276 483.406 265.79 504.697 259.326Z" fill="#E9EBFD" stroke="#2640EB" stroke-linecap="round" stroke-linejoin="round"/>
<path d="M504.697 259.326C525.987 252.862 535.427 221.868 525.782 190.099C516.137 158.329 491.059 137.815 469.768 144.279C448.478 150.743 439.037 181.737 448.683 213.506C458.328 245.276 483.406 265.79 504.697 259.326Z" stroke="#2640EB" stroke-linecap="round" stroke-linejoin="round"/>
<path d="M455.406 221.646C442.324 191.395 447.413 157.41 466.78 145.696C467.411 145.322 468.036 144.975 468.672 144.644C466.888 145.276 465.17 146.083 463.544 147.052C444.178 158.766 439.085 192.765 452.17 223.002C464.833 252.271 489.879 267.274 509.041 257.602C490.375 264.191 467.363 249.292 455.406 221.646Z" fill="#2640EB" stroke="#2640EB" stroke-linecap="round" stroke-linejoin="round"/>
<path d="M504.768 244.816L501.911 244.478L501.146 236.453C499.491 237.426 497.586 237.891 495.668 237.79C493.75 237.689 491.904 237.027 490.36 235.886C487.018 233.55 483.709 228.82 480.432 221.694L485.028 214.402L487.883 214.753C488.892 217.105 490.078 219.376 491.431 221.547C492.145 222.823 493.168 223.898 494.406 224.676C494.794 224.897 495.235 225.01 495.681 225C496.128 224.991 496.564 224.86 496.942 224.621C497.427 224.354 497.813 223.937 498.044 223.433C498.275 222.929 498.338 222.365 498.223 221.823C498.063 220.564 497.725 219.335 497.22 218.172C496.276 215.742 494.784 213.562 492.861 211.802C491.031 210.281 489.002 209.015 486.83 208.04L480.757 205.211C479.028 204.35 477.358 203.376 475.757 202.295C474.021 201.098 472.472 199.652 471.157 198.003C469.48 195.845 468.108 193.466 467.08 190.933C464.753 185.584 463.919 180.792 464.577 176.558C464.819 174.604 465.448 172.717 466.425 171.008C467.403 169.299 468.71 167.801 470.272 166.601L466.707 156.58L469.496 156.904L472.931 164.845C474.744 163.796 476.899 163.505 478.926 164.035C480.832 164.637 482.545 165.734 483.888 167.215C485.413 168.855 486.744 170.664 487.855 172.608C489.037 174.64 490.039 176.564 490.888 178.401L483.189 185.079C483.002 184.657 480.331 184.742 480.331 184.742C480.331 184.742 481.263 181.046 480.635 179.895C480.08 178.75 479.317 177.718 478.385 176.853C478.068 176.569 477.66 176.409 477.235 176.401C476.81 176.392 476.396 176.537 476.068 176.808C475.601 177.139 475.237 177.596 475.018 178.126C474.8 178.656 474.736 179.237 474.833 179.801C474.927 181.169 475.26 182.51 475.818 183.762C476.659 186.017 478.095 188.002 479.973 189.507C481.537 190.608 483.184 191.588 484.899 192.436L490.728 195.274C492.745 196.302 494.681 197.482 496.52 198.803C498.514 200.26 500.304 201.977 501.842 203.909C503.699 206.293 505.223 208.917 506.374 211.711C507.628 214.542 508.423 217.555 508.729 220.636C509.036 223.363 508.766 226.123 507.938 228.739C507.193 231.095 505.788 233.188 503.89 234.771L507.537 243.225L504.768 244.816Z" fill="#2640EB" stroke="#2640EB" stroke-linecap="round" stroke-linejoin="round"/>
<path d="M501.897 244.476L498.275 236.112C496.62 237.086 494.715 237.551 492.797 237.45C490.879 237.349 489.033 236.687 487.489 235.545C484.145 233.219 480.836 228.489 477.56 221.354L485.028 214.402C486.033 216.759 487.218 219.035 488.573 221.21C489.289 222.479 490.306 223.552 491.535 224.335C491.923 224.557 492.363 224.669 492.81 224.66C493.257 224.65 493.692 224.519 494.07 224.281C494.554 224.012 494.939 223.595 495.169 223.092C495.4 222.588 495.464 222.024 495.352 221.482C495.19 220.222 494.848 218.991 494.335 217.829C493.391 215.399 491.899 213.219 489.976 211.459C488.146 209.937 486.117 208.672 483.945 207.697L477.875 204.854C476.151 204.005 474.489 203.037 472.899 201.957C471.189 200.759 469.663 199.318 468.369 197.679C466.695 195.518 465.324 193.14 464.291 190.609C461.966 185.251 461.132 180.459 461.788 176.234C462.026 174.28 462.649 172.394 463.622 170.684C464.595 168.974 465.898 167.474 467.456 166.272L463.98 158.251L466.749 156.588L470.183 164.529C471.08 164.006 472.071 163.665 473.1 163.526C474.128 163.387 475.175 163.453 476.178 163.72C478.085 164.321 479.797 165.418 481.14 166.899C482.669 168.535 484.001 170.346 485.108 172.292C486.213 174.169 487.221 176.102 488.127 178.083L480.441 184.763C479.526 182.756 478.67 181.032 477.887 179.579C477.332 178.434 476.569 177.403 475.637 176.537C475.32 176.253 474.912 176.093 474.487 176.085C474.062 176.077 473.648 176.221 473.32 176.492C472.855 176.821 472.492 177.276 472.274 177.804C472.056 178.331 471.992 178.909 472.088 179.472C472.148 180.828 472.449 182.163 472.977 183.414C473.822 185.684 475.279 187.676 477.187 189.169C478.725 190.277 480.347 191.265 482.036 192.126L487.878 194.895C489.899 195.918 491.835 197.098 493.67 198.425C495.668 199.876 497.459 201.594 498.993 203.53C500.849 205.914 502.374 208.538 503.525 211.332C504.777 214.159 505.572 217.167 505.883 220.244C506.189 222.97 505.92 225.731 505.091 228.347C504.348 230.708 502.942 232.806 501.041 234.392L504.688 242.846L501.897 244.476Z" fill="#E9EBFD" stroke="#2640EB" stroke-linecap="round" stroke-linejoin="round"/>
<path d="M493.625 636.16C521.294 625.997 531.428 584.284 516.262 542.991C501.095 501.698 466.369 476.463 438.701 486.625C411.032 496.788 400.897 538.501 416.064 579.794C431.231 621.087 465.956 646.322 493.625 636.16Z" fill="#E9EBFD" stroke="#2640EB" stroke-linecap="round" stroke-linejoin="round"/>
<path d="M471.058 489.452L434.399 493.69" stroke="#2640EB" stroke-linecap="round" stroke-linejoin="round"/>
<path d="M480.647 495.416L445.691 499.05" stroke="#2640EB" stroke-linecap="round" stroke-linejoin="round"/>
<path d="M492.098 504.945L455.439 509.183" stroke="#2640EB" stroke-linecap="round" stroke-linejoin="round"/>
<path d="M522.375 592.367L485.715 596.605" stroke="#2640EB" stroke-linecap="round" stroke-linejoin="round"/>
<path d="M519.634 605.847L482.975 610.085" stroke="#2640EB" stroke-linecap="round" stroke-linejoin="round"/>
<path d="M513.758 618.734L477.099 622.972" stroke="#2640EB" stroke-linecap="round" stroke-linejoin="round"/>
<path d="M503.318 518.451L467.496 522.854" stroke="#2640EB" stroke-linecap="round" stroke-linejoin="round"/>
<path d="M514.384 538.859L477.727 543.083" stroke="#2640EB" stroke-linecap="round" stroke-linejoin="round"/>
<path d="M493.625 636.16C521.294 625.997 531.428 584.284 516.262 542.991C501.095 501.698 466.369 476.463 438.701 486.625C411.032 496.788 400.897 538.501 416.064 579.794C431.231 621.087 465.956 646.322 493.625 636.16Z" stroke="#2640EB" stroke-linecap="round" stroke-linejoin="round"/>
<path d="M485.078 639.074C512.747 628.911 522.882 587.198 507.715 545.905C492.548 504.612 457.823 479.377 430.154 489.539C402.485 499.702 392.351 541.415 407.517 582.708C422.684 624.001 457.41 649.237 485.078 639.074Z" fill="#E9EBFD" stroke="#2640EB" stroke-linecap="round" stroke-linejoin="round"/>
<path d="M480.924 627.764C504.4 619.141 512.995 583.74 500.123 548.694C487.25 513.647 457.784 492.226 434.308 500.849C410.832 509.472 402.237 544.873 415.11 579.919C427.982 614.966 457.449 636.387 480.924 627.764Z" fill="#E9EBFD" stroke="#2640EB" stroke-linecap="round" stroke-linejoin="round"/>
<path d="M480.924 627.764C504.4 619.141 512.995 583.74 500.123 548.694C487.25 513.647 457.784 492.226 434.308 500.849C410.832 509.472 402.237 544.873 415.11 579.919C427.982 614.966 457.449 636.387 480.924 627.764Z" stroke="#2640EB" stroke-linecap="round" stroke-linejoin="round"/>
<path d="M423.181 588.586C406.553 555.493 410.081 517.005 431.062 502.615C431.739 502.15 432.422 501.729 433.115 501.324C431.144 502.139 429.264 503.158 427.506 504.365C406.525 518.755 402.997 557.243 419.625 590.336C435.732 622.384 464.812 637.615 485.682 625.514C465.165 634.104 438.387 618.844 423.181 588.586Z" fill="#2640EB" stroke="#2640EB" stroke-linecap="round" stroke-linejoin="round"/>
<path d="M480.082 611.438L476.854 611.241L475.476 602.28C473.677 603.475 471.568 604.117 469.409 604.128C467.25 604.139 465.135 603.518 463.324 602.342C459.41 599.921 455.389 594.822 451.261 587.043L455.935 578.568L459.163 578.765C460.451 581.341 461.936 583.815 463.604 586.163C464.478 587.545 465.684 588.686 467.112 589.483C467.567 589.716 468.078 589.819 468.589 589.782C469.099 589.745 469.59 589.568 470.007 589.272C470.528 588.936 470.93 588.443 471.155 587.865C471.379 587.287 471.415 586.653 471.257 586.053C470.993 584.644 470.523 583.282 469.861 582.01C468.637 579.348 466.824 576.999 464.56 575.14C462.402 573.557 460.042 572.27 457.543 571.311L450.54 568.498C448.552 567.653 446.626 566.671 444.774 565.559C442.766 564.328 440.952 562.806 439.392 561.041C437.365 558.727 435.668 556.145 434.35 553.366C431.399 547.522 430.156 542.198 430.623 537.393C430.764 535.184 431.345 533.027 432.332 531.047C433.32 529.067 434.694 527.305 436.373 525.864L431.725 514.829L434.952 515.026L439.321 523.723C440.294 523.078 441.384 522.632 442.53 522.41C443.675 522.189 444.854 522.197 445.996 522.434C448.175 522.988 450.168 524.112 451.771 525.689C453.589 527.426 455.201 529.368 456.573 531.476C458.041 533.669 459.298 535.772 460.345 537.786L452.13 545.774C451.89 545.327 448.902 545.577 448.902 545.577C448.902 545.577 449.734 541.377 448.939 540.135C448.241 538.876 447.309 537.762 446.193 536.853C445.821 536.557 445.356 536.405 444.881 536.424C444.406 536.442 443.954 536.63 443.606 536.954C443.095 537.347 442.71 537.882 442.498 538.491C442.286 539.1 442.257 539.758 442.413 540.384C442.562 541.903 442.984 543.383 443.659 544.753C444.738 547.236 446.482 549.374 448.698 550.929C450.521 552.073 452.432 553.072 454.412 553.915L461.127 556.672C463.474 557.677 465.738 558.865 467.899 560.224C470.23 561.726 472.347 563.537 474.194 565.607C476.438 568.161 478.322 571.011 479.792 574.077C481.383 577.174 482.471 580.505 483.016 583.945C483.526 586.985 483.396 590.098 482.632 593.084C481.922 595.783 480.449 598.22 478.389 600.104L483.034 609.355L480.082 611.438Z" fill="#2640EB" stroke="#2640EB" stroke-linecap="round" stroke-linejoin="round"/>
<path d="M476.854 611.241L472.251 602.07C470.454 603.269 468.345 603.914 466.184 603.925C464.024 603.936 461.908 603.312 460.099 602.131C456.181 599.729 452.156 594.652 448.023 586.901L455.924 578.623C457.213 581.199 458.697 583.673 460.365 586.021C461.239 587.403 462.445 588.544 463.873 589.341C464.329 589.574 464.84 589.677 465.35 589.64C465.86 589.602 466.351 589.426 466.768 589.129C467.29 588.794 467.691 588.301 467.916 587.723C468.141 587.145 468.177 586.511 468.019 585.911C467.763 584.504 467.308 583.141 466.666 581.863C465.438 579.203 463.626 576.855 461.365 574.992C459.207 573.41 456.847 572.122 454.349 571.164L447.345 568.35C445.358 567.505 443.431 566.523 441.579 565.411C439.571 564.181 437.757 562.658 436.197 560.893C434.166 558.583 432.469 555.999 431.155 553.218C428.206 547.366 426.963 542.041 427.428 537.245C427.569 535.037 428.15 532.879 429.138 530.899C430.125 528.919 431.499 527.157 433.178 525.716L428.757 516.923L431.758 514.878L436.127 523.575C437.099 522.93 438.189 522.484 439.335 522.263C440.481 522.042 441.659 522.05 442.801 522.287C444.979 522.844 446.971 523.967 448.576 525.541C450.395 527.279 452.006 529.221 453.379 531.328C454.847 533.521 456.104 535.625 457.15 537.639L448.935 545.627C447.791 543.431 446.737 541.554 445.771 539.993C445.074 538.734 444.142 537.62 443.026 536.71C442.655 536.412 442.189 536.258 441.713 536.277C441.238 536.295 440.785 536.485 440.438 536.811C439.928 537.206 439.543 537.739 439.329 538.347C439.115 538.955 439.081 539.612 439.232 540.239C439.392 541.759 439.818 543.239 440.492 544.611C441.571 547.094 443.315 549.231 445.531 550.787C447.354 551.931 449.265 552.93 451.245 553.773L457.96 556.529C460.295 557.548 462.547 558.748 464.696 560.117C467.027 561.62 469.145 563.431 470.991 565.501C473.236 568.054 475.119 570.904 476.589 573.97C478.174 577.07 479.262 580.4 479.813 583.838C480.315 586.879 480.185 589.99 479.43 592.978C478.713 595.674 477.241 598.11 475.186 599.998L479.831 609.248L476.854 611.241Z" fill="#E9EBFD" stroke="#2640EB" stroke-linecap="round" stroke-linejoin="round"/>
<path d="M260.947 193.744C272.76 156.441 262.077 119.785 237.085 111.871C212.094 103.956 182.258 127.781 170.445 165.084C158.632 202.387 169.315 239.043 194.307 246.957C219.299 254.872 249.134 231.047 260.947 193.744Z" fill="#2640EB" stroke="#2640EB" stroke-linecap="round" stroke-linejoin="round"/>
<path d="M253.367 191.142C265.179 153.839 254.496 117.183 229.504 109.269C204.513 101.355 174.677 125.179 162.864 162.482C151.051 199.785 161.735 236.441 186.726 244.356C211.718 252.27 241.554 228.445 253.367 191.142Z" fill="#E9EBFD" stroke="#2640EB" stroke-linecap="round" stroke-linejoin="round"/>
<path d="M246.523 188.975C256.546 157.323 247.476 126.218 226.264 119.501C205.052 112.784 179.731 132.997 169.708 164.649C159.684 196.302 168.754 227.406 189.966 234.123C211.178 240.84 236.499 220.627 246.523 188.975Z" fill="#E9EBFD" stroke="#2640EB" stroke-linecap="round" stroke-linejoin="round"/>
<path d="M246.523 188.975C256.546 157.323 247.476 126.218 226.264 119.501C205.052 112.784 179.731 132.997 169.708 164.649C159.684 196.302 168.754 227.406 189.966 234.123C211.178 240.84 236.499 220.627 246.523 188.975Z" stroke="#2640EB" stroke-linecap="round" stroke-linejoin="round"/>
<path d="M170.665 175.143C176.981 142.814 200.423 117.656 223.003 118.96C223.736 119.006 224.408 119.067 225.158 119.173C223.351 118.681 221.498 118.381 219.629 118.278C197.062 116.976 173.541 142.104 167.277 174.458C161.167 205.744 173.325 232.303 194.599 235.161C175.417 230.021 164.883 204.697 170.665 175.143Z" fill="#2640EB" stroke="#2640EB" stroke-linecap="round" stroke-linejoin="round"/>
<path d="M198.252 222.19L196.08 220.333L199.942 213.295C198.025 213.163 196.189 212.471 194.662 211.304C193.135 210.136 191.986 208.546 191.356 206.73C189.92 202.889 189.871 197.111 191.208 189.397L199.103 185.982L201.274 187.838C200.782 190.353 200.477 192.901 200.364 195.461C200.23 196.909 200.461 198.367 201.036 199.702C201.23 200.106 201.529 200.45 201.902 200.697C202.275 200.944 202.708 201.086 203.155 201.106C203.705 201.151 204.256 201.021 204.73 200.736C205.203 200.451 205.576 200.025 205.795 199.518C206.379 198.392 206.796 197.186 207.031 195.94C207.627 193.399 207.633 190.755 207.049 188.211C206.393 185.924 205.436 183.734 204.202 181.699L200.794 175.931C199.882 174.242 199.079 172.497 198.391 170.705C197.663 168.74 197.215 166.683 197.062 164.593C196.904 161.861 197.12 159.12 197.705 156.447C198.836 150.736 200.857 146.315 203.77 143.183C205.076 141.711 206.661 140.513 208.435 139.659C210.208 138.805 212.133 138.313 214.098 138.21L216.851 127.913L219.022 129.77L217.337 138.28C219.428 138.441 221.372 139.421 222.746 141.006C223.973 142.585 224.763 144.458 225.036 146.438C225.372 148.653 225.449 150.899 225.266 153.132C225.075 155.462 224.819 157.622 224.468 159.607L214.333 160.795C214.423 160.342 212.162 158.939 212.162 158.939C212.162 158.939 215.014 156.422 215.157 155.124C215.375 153.855 215.347 152.556 215.073 151.298C214.978 150.884 214.736 150.519 214.39 150.272C214.045 150.025 213.621 149.913 213.198 149.957C212.155 149.893 211.254 150.485 210.496 151.719C209.775 152.87 209.267 154.142 208.996 155.473C208.403 157.806 208.466 160.257 209.177 162.556C209.834 164.354 210.634 166.096 211.569 167.766L214.829 173.347C215.906 175.358 216.827 177.448 217.585 179.599C218.387 181.923 218.867 184.346 219.012 186.8C219.199 189.816 218.974 192.843 218.343 195.797C217.761 198.839 216.7 201.768 215.198 204.476C213.902 206.896 212.116 209.02 209.954 210.712C207.996 212.229 205.645 213.154 203.178 213.379L201.389 222.411L198.252 222.19Z" fill="#2640EB" stroke="#2640EB" stroke-linecap="round" stroke-linejoin="round"/>
<path d="M196.089 220.292L197.861 211.342C195.944 211.21 194.107 210.518 192.581 209.351C191.054 208.183 189.905 206.593 189.275 204.777C187.839 200.936 187.79 195.158 189.127 187.444L199.185 185.927C198.692 188.441 198.388 190.989 198.275 193.549C198.14 194.997 198.371 196.456 198.947 197.791C199.14 198.194 199.439 198.538 199.812 198.785C200.185 199.032 200.618 199.174 201.065 199.195C201.616 199.239 202.167 199.109 202.64 198.825C203.114 198.54 203.486 198.114 203.705 197.606C204.29 196.48 204.707 195.275 204.942 194.028C205.536 191.487 205.542 188.844 204.96 186.3C204.304 184.012 203.346 181.822 202.113 179.787L198.704 174.02C197.773 172.338 196.95 170.598 196.241 168.81C195.513 166.845 195.066 164.788 194.912 162.698C194.753 159.966 194.97 157.225 195.555 154.552C196.686 148.841 198.708 144.42 201.62 141.288C202.926 139.816 204.512 138.618 206.285 137.764C208.058 136.91 209.983 136.418 211.949 136.315L213.648 127.735L216.851 127.913L215.165 136.424C217.257 136.584 219.201 137.564 220.574 139.15C221.801 140.728 222.591 142.601 222.865 144.582C223.201 146.796 223.278 149.043 223.094 151.275C222.904 153.605 222.647 155.766 222.297 157.75L212.142 158.892C212.572 156.723 212.807 154.744 212.974 153.179C213.164 151.915 213.109 150.626 212.813 149.382C212.719 148.967 212.476 148.602 212.131 148.355C211.785 148.108 211.361 147.996 210.939 148.04C209.896 147.977 208.994 148.568 208.236 149.802C207.515 150.953 207.007 152.225 206.737 153.556C206.144 155.889 206.206 158.34 206.918 160.639C207.583 162.44 208.392 164.184 209.337 165.854L212.597 171.436C213.674 173.446 214.595 175.536 215.353 177.688C216.155 180.012 216.635 182.435 216.78 184.889C216.967 187.904 216.742 190.931 216.111 193.886C215.529 196.927 214.468 199.857 212.966 202.564C211.67 204.985 209.884 207.109 207.722 208.801C205.764 210.317 203.413 211.243 200.946 211.468L199.157 220.5L196.089 220.292Z" fill="#E9EBFD" stroke="#2640EB" stroke-linecap="round" stroke-linejoin="round"/>
<path d="M381.227 641.8C394.839 625.852 386.578 596.455 362.777 576.14C338.976 555.825 308.646 552.284 295.034 568.232C281.422 584.18 289.682 613.577 313.484 633.892C337.285 654.207 367.615 657.748 381.227 641.8Z" fill="#2640EB" stroke="#2640EB" stroke-linecap="round" stroke-linejoin="round"/>
<path d="M385.506 637.03C399.118 621.082 390.858 591.685 367.057 571.37C343.255 551.054 312.926 547.514 299.314 563.462C285.702 579.41 293.962 608.807 317.763 629.122C341.565 649.437 371.894 652.977 385.506 637.03Z" fill="#E9EBFD" stroke="#2640EB" stroke-linecap="round" stroke-linejoin="round"/>
<path d="M378.982 631.461C390.532 617.929 383.521 592.984 363.323 575.744C343.125 558.505 317.388 555.499 305.838 569.031C294.289 582.563 301.299 607.508 321.497 624.748C341.695 641.987 367.432 644.993 378.982 631.461Z" fill="#E9EBFD" stroke="#2640EB" stroke-linecap="round" stroke-linejoin="round"/>
<path d="M378.982 631.461C390.532 617.929 383.521 592.984 363.323 575.744C343.125 558.505 317.388 555.499 305.838 569.031C294.289 582.563 301.299 607.508 321.497 624.748C341.695 641.987 367.432 644.993 378.982 631.461Z" stroke="#2640EB" stroke-linecap="round" stroke-linejoin="round"/>
<path d="M355.3 573.203C377.149 587.929 388.385 613.022 380.388 629.27C380.129 629.789 379.858 630.292 379.562 630.775C380.494 629.594 381.301 628.32 381.97 626.973C389.964 610.738 378.744 585.635 356.882 570.906C335.738 556.662 312.393 557.345 303.658 572.135C313.404 559.586 335.326 559.747 355.3 573.203Z" fill="#2640EB" stroke="#2640EB" stroke-linecap="round" stroke-linejoin="round"/>
<path d="M312.052 578.875L314.122 577.859L318.111 582.928C318.811 581.569 319.895 580.445 321.227 579.694C322.56 578.944 324.083 578.601 325.609 578.707C328.882 578.842 333.151 580.6 338.416 583.982L338.478 590.871L336.408 591.887C334.709 590.74 332.927 589.719 331.078 588.834C330.045 588.296 328.897 588.014 327.731 588.015C327.385 588.039 327.051 588.153 326.762 588.346C326.474 588.539 326.241 588.804 326.087 589.116C325.883 589.507 325.806 589.952 325.868 590.389C325.93 590.826 326.127 591.233 326.432 591.552C327.066 592.321 327.806 592.996 328.631 593.557C330.311 594.784 332.252 595.608 334.302 595.964C336.201 596.213 338.125 596.196 340.019 595.912L345.339 595.196C346.867 595.029 348.404 594.966 349.941 595.009C351.612 595.096 353.263 595.423 354.841 595.98C356.902 596.709 358.853 597.72 360.638 598.982C364.025 601.044 366.758 604.024 368.522 607.576C369.205 608.996 369.597 610.538 369.675 612.112C369.753 613.685 369.515 615.258 368.976 616.739L375.805 621.872L373.721 622.885L367.984 619.01C367.213 620.503 365.882 621.629 364.282 622.143C362.74 622.553 361.117 622.551 359.575 622.138C357.841 621.694 356.164 621.051 354.577 620.221C352.921 619.361 351.41 618.491 350.044 617.612L352.345 609.808C352.664 609.999 354.429 608.794 354.429 608.794C354.429 608.794 355.384 611.679 356.299 612.174C357.172 612.715 358.141 613.081 359.152 613.253C359.491 613.322 359.844 613.263 360.142 613.088C360.44 612.913 360.663 612.633 360.767 612.303C360.942 611.879 360.991 611.413 360.908 610.962C360.825 610.51 360.615 610.092 360.301 609.757C359.682 608.866 358.907 608.094 358.014 607.478C356.47 606.318 354.639 605.601 352.719 605.402C351.186 605.329 349.65 605.378 348.125 605.548L343.002 606.203C341.203 606.385 339.393 606.422 337.588 606.315C335.619 606.196 333.675 605.811 331.809 605.17C329.507 604.372 327.327 603.258 325.331 601.862C323.271 600.495 321.438 598.813 319.899 596.877C318.525 595.165 317.517 593.189 316.941 591.07C316.43 589.157 316.483 587.136 317.094 585.252L310.967 581.186L312.052 578.875Z" fill="#2640EB" stroke="#2640EB" stroke-linecap="round" stroke-linejoin="round"/>
<path d="M314.119 577.873L320.178 581.926C320.878 580.566 321.962 579.442 323.295 578.691C324.627 577.941 326.15 577.598 327.676 577.704C330.948 577.824 335.218 579.597 340.497 582.982L338.478 590.871C336.779 589.723 334.998 588.703 333.148 587.818C332.122 587.273 330.977 586.992 329.815 587.001C329.468 587.022 329.133 587.135 328.843 587.328C328.554 587.522 328.322 587.789 328.17 588.102C327.96 588.491 327.88 588.938 327.942 589.377C328.004 589.815 328.205 590.222 328.515 590.538C329.16 591.323 329.919 592.007 330.767 592.567C332.452 593.795 334.398 594.62 336.452 594.977C338.351 595.228 340.275 595.21 342.169 594.925L347.489 594.21C349.017 594.044 350.554 593.981 352.09 594.023C353.762 594.109 355.413 594.436 356.991 594.993C359.056 595.724 361.011 596.735 362.801 597.998C366.184 600.066 368.916 603.044 370.685 606.592C371.363 608.014 371.75 609.556 371.826 611.128C371.901 612.701 371.663 614.273 371.125 615.752L376.929 619.655L375.805 621.872L370.051 618.007C369.674 618.747 369.153 619.406 368.52 619.944C367.887 620.482 367.154 620.889 366.363 621.143C364.816 621.552 363.189 621.549 361.643 621.135C359.913 620.692 358.24 620.05 356.658 619.221C355.104 618.429 353.59 617.558 352.125 616.611L354.426 608.808C355.907 609.757 357.218 610.559 358.364 611.185C359.236 611.725 360.205 612.092 361.217 612.264C361.558 612.333 361.913 612.273 362.212 612.095C362.511 611.916 362.733 611.633 362.834 611.3C363.007 610.879 363.056 610.417 362.975 609.969C362.895 609.521 362.688 609.105 362.38 608.771C361.752 607.881 360.973 607.108 360.078 606.489C358.535 605.327 356.704 604.61 354.783 604.413C353.256 604.342 351.726 604.387 350.206 604.548L345.081 605.216C343.277 605.396 341.462 605.433 339.652 605.326C337.683 605.207 335.739 604.822 333.873 604.181C331.571 603.384 329.391 602.27 327.396 600.873C325.331 599.512 323.497 597.829 321.964 595.888C320.58 594.182 319.572 592.204 319.005 590.081C318.49 588.168 318.539 586.147 319.145 584.26L313.031 580.196L314.119 577.873Z" fill="#E9EBFD" stroke="#2640EB" stroke-linecap="round" stroke-linejoin="round"/>
<path d="M210.995 409.417C235.853 383.619 235.091 342.555 209.293 317.697C183.495 292.839 142.431 293.602 117.573 319.399C92.7156 345.197 93.4777 386.261 119.275 411.119C145.073 435.977 186.138 435.215 210.995 409.417Z" fill="#E9EBFD" stroke="#2640EB" stroke-width="0.998599" stroke-linecap="round" stroke-linejoin="round"/>
<path d="M162.97 298.925L161.067 308.534" stroke="#2640EB" stroke-linecap="round" stroke-linejoin="round"/>
<path d="M153.686 300.282L150.981 313.941" stroke="#2640EB" stroke-linecap="round" stroke-linejoin="round"/>
<path d="M143.83 302.867L140.394 320.218" stroke="#2640EB" stroke-linecap="round" stroke-linejoin="round"/>
<path d="M128.977 309.583L126.275 323.228" stroke="#2640EB" stroke-linecap="round" stroke-linejoin="round"/>
<path d="M211.506 318.851L208.807 332.482" stroke="#2640EB" stroke-linecap="round" stroke-linejoin="round"/>
<path d="M218.51 327.428L216.936 335.376" stroke="#2640EB" stroke-linecap="round" stroke-linejoin="round"/>
<path d="M210.995 409.417C235.853 383.619 235.091 342.555 209.293 317.697C183.495 292.839 142.431 293.602 117.573 319.399C92.7156 345.197 93.4777 386.261 119.275 411.119C145.073 435.977 186.138 435.215 210.995 409.417Z" stroke="#2640EB" stroke-width="0.998599" stroke-linecap="round" stroke-linejoin="round"/>
<path d="M225.553 390.402C236.794 356.333 218.29 319.602 184.221 308.36C150.153 297.119 113.422 315.623 102.18 349.692C90.9382 383.76 109.443 420.491 143.511 431.733C177.58 442.975 214.311 424.47 225.553 390.402Z" fill="#E9EBFD" stroke="#2640EB" stroke-linecap="round" stroke-linejoin="round"/>
<path d="M216.086 387.713C225.827 358.871 210.343 327.594 181.501 317.853C152.659 308.112 121.382 323.597 111.641 352.438C101.9 381.28 117.385 412.557 146.226 422.298C175.068 432.039 206.345 416.555 216.086 387.713Z" fill="#E9EBFD" stroke="#2640EB" stroke-linecap="round" stroke-linejoin="round"/>
<path d="M216.086 387.713C225.827 358.871 210.343 327.594 181.501 317.853C152.659 308.112 121.382 323.597 111.641 352.438C101.9 381.28 117.385 412.557 146.226 422.298C175.068 432.039 206.345 416.555 216.086 387.713Z" stroke="#2640EB" stroke-linecap="round" stroke-linejoin="round"/>
<path d="M189.069 416.162C179.962 420.695 169.778 422.62 159.645 421.722C149.512 420.824 139.825 417.138 131.657 411.074C123.49 405.009 117.16 396.802 113.37 387.362C109.58 377.921 108.477 367.616 110.184 357.587C108.5 364.779 108.28 372.235 109.534 379.513C110.789 386.792 113.494 393.744 117.488 399.957C121.482 406.17 126.684 411.516 132.784 415.679C138.885 419.842 145.76 422.737 153.002 424.191C160.243 425.645 167.702 425.629 174.937 424.144C182.172 422.659 189.035 419.735 195.118 415.545C201.201 411.356 206.38 405.987 210.347 399.757C214.314 393.528 216.989 386.564 218.212 379.28C216.385 387.2 212.823 394.617 207.783 400.994C202.743 407.372 196.352 412.552 189.069 416.162Z" fill="#2640EB" stroke="#2640EB" stroke-linecap="round" stroke-linejoin="round"/>
<path d="M125.688 384.324L133.236 380.569C130.884 375.205 130.62 370.441 132.443 366.275C134.267 362.109 138.376 358.31 144.771 354.879L152.322 365.661C152.11 366.732 151.61 369.257 151.61 369.257C151.61 369.257 147.327 368.623 146.264 369.525C145.069 370.425 144.161 371.653 143.653 373.06C143.341 374.191 143.469 375.399 144.011 376.44C144.212 377.034 144.591 377.552 145.097 377.923C145.603 378.294 146.211 378.499 146.838 378.512C148.033 378.478 149.206 378.184 150.276 377.652C152.593 376.594 154.53 374.852 155.829 372.661C157.104 370.278 158.062 367.739 158.68 365.108L160.636 357.393C161.219 355.265 161.942 353.178 162.8 351.145C163.653 349.117 164.848 347.25 166.333 345.625C168.11 343.754 170.225 342.237 172.568 341.154C177.397 338.763 181.865 338.264 185.974 339.658C190.337 341.264 193.965 344.407 196.177 348.497L203.407 344.908L205.35 348.787L204.635 352.397L198.183 352.346C199.406 354.857 199.927 357.651 199.691 360.434C199.429 362.678 198.593 364.817 197.263 366.643C195.95 368.394 194.385 369.94 192.617 371.23C190.97 372.43 189.244 373.518 187.45 374.486L179.417 367.004L180.124 363.435C181.713 362.606 183.259 361.698 184.757 360.715C185.835 360.062 186.736 359.152 187.378 358.067C187.61 357.581 187.711 357.043 187.669 356.507C187.628 355.97 187.446 355.454 187.142 355.01C186.885 354.424 186.468 353.923 185.937 353.565C185.407 353.208 184.786 353.008 184.146 352.99C182.885 352.897 181.622 353.139 180.484 353.692C178.326 354.633 176.57 356.306 175.526 358.416C174.642 360.421 173.904 362.487 173.317 364.598L171.369 371.986C170.657 374.468 169.766 376.894 168.704 379.247C167.634 381.586 166.215 383.748 164.495 385.661C162.532 387.764 160.188 389.478 157.589 390.712C155.046 392.014 152.233 392.698 149.376 392.709C146.623 392.713 143.917 391.991 141.532 390.614C138.969 389.094 136.818 386.969 135.268 384.423L125 387.939L125.688 384.324Z" fill="#2640EB" stroke="#2640EB" stroke-linecap="round" stroke-linejoin="round"/>
<path d="M124.973 387.934L132.521 384.179C130.167 378.824 129.903 374.06 131.728 369.885C133.554 365.71 137.673 361.909 144.086 358.481L151.621 369.202C149.467 370.273 147.435 371.573 145.56 373.081C144.365 373.98 143.457 375.208 142.949 376.615C142.637 377.746 142.765 378.954 143.307 379.995C143.507 380.59 143.886 381.107 144.394 381.476C144.901 381.845 145.51 382.047 146.137 382.054C147.323 382.046 148.492 381.776 149.561 381.262C151.878 380.204 153.816 378.462 155.114 376.271C156.388 373.888 157.346 371.349 157.965 368.718L159.921 361.003C160.505 358.871 161.229 356.779 162.088 354.742C162.943 352.719 164.136 350.857 165.618 349.235C167.371 347.336 169.469 345.786 171.8 344.668C176.629 342.277 181.098 341.778 185.206 343.172C189.57 344.784 193.197 347.932 195.407 352.025L202.64 348.422L204.58 352.315L197.382 355.883C198.606 358.393 199.127 361.188 198.891 363.97C198.631 366.21 197.795 368.345 196.465 370.166C195.155 371.924 193.588 373.475 191.817 374.766C190.173 375.971 188.446 377.059 186.65 378.022L179.329 366.944C180.93 366.109 182.487 365.194 183.995 364.201C185.072 363.553 185.971 362.648 186.613 361.567C186.845 361.079 186.945 360.54 186.904 360.001C186.863 359.463 186.682 358.944 186.38 358.497C186.122 357.912 185.704 357.412 185.174 357.054C184.644 356.697 184.024 356.497 183.385 356.477C182.123 356.383 180.859 356.625 179.722 357.178C177.556 358.147 175.803 359.852 174.775 361.99C173.891 363.995 173.153 366.061 172.566 368.172L170.657 375.583C169.947 378.065 169.056 380.492 167.992 382.844C166.921 385.187 165.501 387.354 163.781 389.271C161.82 391.373 159.477 393.083 156.877 394.309C154.335 395.615 151.52 396.304 148.661 396.32C145.908 396.324 143.202 395.601 140.817 394.224C138.254 392.705 136.103 390.579 134.554 388.034L126.942 391.819L124.973 387.934Z" fill="#E9EBFD" stroke="#2640EB" stroke-linecap="round" stroke-linejoin="round"/>
<path d="M318.513 540.144C355.742 533.781 380.764 498.443 374.402 461.214C368.039 423.986 332.701 398.963 295.472 405.326C258.243 411.689 233.221 447.027 239.584 484.256C245.946 521.484 281.284 546.507 318.513 540.144Z" fill="#E9EBFD" stroke="#2640EB" stroke-linecap="round" stroke-linejoin="round"/>
<path d="M353.006 422.208L344.515 428.058" stroke="#2640EB" stroke-linecap="round" stroke-linejoin="round"/>
<path d="M345.009 416.416L332.933 424.737" stroke="#2640EB" stroke-linecap="round" stroke-linejoin="round"/>
<path d="M335.671 411.128L320.339 421.701" stroke="#2640EB" stroke-linecap="round" stroke-linejoin="round"/>
<path d="M319.537 405.294L307.48 413.591" stroke="#2640EB" stroke-linecap="round" stroke-linejoin="round"/>
<path d="M375.013 472.871L362.967 481.184" stroke="#2640EB" stroke-linecap="round" stroke-linejoin="round"/>
<path d="M373.997 484.481L366.976 489.325" stroke="#2640EB" stroke-linecap="round" stroke-linejoin="round"/>
<path d="M318.513 540.144C355.742 533.781 380.764 498.443 374.402 461.214C368.039 423.986 332.701 398.963 295.472 405.326C258.243 411.689 233.221 447.027 239.584 484.256C245.946 521.484 281.284 546.507 318.513 540.144Z" stroke="#2640EB" stroke-linecap="round" stroke-linejoin="round"/>
<path d="M339.505 533.391C370.891 512.381 379.302 469.906 358.292 438.521C337.283 407.135 294.808 398.723 263.422 419.733C232.036 440.743 223.625 483.218 244.634 514.604C265.644 545.989 308.119 554.401 339.505 533.391Z" fill="#E9EBFD" stroke="#2640EB" stroke-linecap="round" stroke-linejoin="round"/>
<path d="M328.613 527.821C356.94 512.83 367.751 477.713 352.76 449.386C337.769 421.058 302.652 410.247 274.324 425.238C245.997 440.23 235.186 475.347 250.177 503.674C265.168 532.001 300.285 542.813 328.613 527.821Z" fill="#E9EBFD" stroke="#2640EB" stroke-linecap="round" stroke-linejoin="round"/>
<path d="M328.613 527.821C356.94 512.83 367.751 477.713 352.76 449.386C337.769 421.058 302.652 410.247 274.324 425.238C245.997 440.23 235.186 475.347 250.177 503.674C265.168 532.001 300.285 542.813 328.613 527.821Z" stroke="#2640EB" stroke-linecap="round" stroke-linejoin="round"/>
<path d="M286.642 529.835C276.451 526.559 267.365 520.527 260.389 512.408C253.413 504.289 248.818 494.398 247.113 483.83C245.409 473.262 246.66 462.428 250.73 452.527C254.8 442.626 261.529 434.044 270.172 427.73C263.74 431.973 258.217 437.456 253.927 443.857C249.636 450.258 246.663 457.45 245.182 465.013C243.7 472.575 243.74 480.357 245.298 487.904C246.857 495.451 249.903 502.612 254.259 508.97C258.615 515.327 264.193 520.753 270.669 524.931C277.144 529.109 284.387 531.955 291.974 533.304C299.562 534.652 307.342 534.476 314.86 532.786C322.379 531.095 329.485 527.924 335.765 523.458C328.557 528.084 320.413 531.056 311.919 532.158C303.426 533.261 294.793 532.468 286.642 529.835Z" fill="#2640EB" stroke="#2640EB" stroke-linecap="round" stroke-linejoin="round"/>
<path d="M262.186 459.272L270.635 461.986C272.785 456.221 276.084 452.433 280.532 450.623C284.98 448.812 290.874 448.943 298.214 451.015L296.006 464.686C295.061 465.354 292.813 466.906 292.813 466.906C292.813 466.906 290.051 463.278 288.58 463.215C287.016 463.011 285.427 463.272 284.009 463.965C282.936 464.581 282.143 465.59 281.797 466.779C281.51 467.374 281.416 468.043 281.528 468.694C281.639 469.346 281.951 469.946 282.419 470.411C283.339 471.234 284.421 471.857 285.595 472.239C288.122 473.136 290.864 473.241 293.453 472.539C296.159 471.674 298.743 470.465 301.141 468.941L308.273 464.547C310.284 463.378 312.363 462.332 314.5 461.415C316.636 460.539 318.902 460.024 321.207 459.89C323.937 459.769 326.666 460.164 329.25 461.055C334.616 462.774 338.357 465.683 340.475 469.783C342.581 474.2 343.004 479.234 341.665 483.941L349.714 486.52L348.322 490.88L345.129 493.101L340.364 488.349C339.442 491.138 337.786 493.629 335.57 495.559C333.73 497.058 331.532 498.053 329.192 498.447C326.912 498.819 324.589 498.84 322.304 498.509C320.172 498.239 318.063 497.821 315.989 497.259L315.419 485.734L318.612 483.513C320.674 484.121 322.513 484.557 324.053 484.847C325.347 485.143 326.692 485.12 327.975 484.782C328.501 484.588 328.968 484.261 329.331 483.833C329.693 483.405 329.938 482.89 330.042 482.339C330.277 481.705 330.328 481.018 330.188 480.357C330.049 479.696 329.726 479.088 329.256 478.602C328.384 477.604 327.262 476.855 326.005 476.432C323.655 475.564 321.073 475.558 318.719 476.416C316.583 477.283 314.512 478.303 312.522 479.468L305.631 483.653C303.299 484.944 300.875 486.062 298.379 486.996C295.847 487.98 293.18 488.573 290.47 488.753C287.447 488.902 284.424 488.473 281.562 487.488C278.688 486.602 276.062 485.051 273.899 482.961C271.818 480.952 270.305 478.427 269.514 475.645C268.696 472.613 268.636 469.426 269.34 466.366L259.012 461.468L262.186 459.272Z" fill="#2640EB" stroke="#2640EB" stroke-linecap="round" stroke-linejoin="round"/>
<path d="M258.995 461.479L267.448 464.18C269.607 458.416 272.905 454.628 277.344 452.816C281.783 451.004 287.694 451.147 295.076 453.246L292.866 466.931C290.459 466.147 287.973 465.631 285.453 465.392C283.889 465.195 282.301 465.455 280.882 466.141C279.812 466.762 279.021 467.769 278.67 468.956C278.385 469.551 278.292 470.22 278.403 470.871C278.515 471.521 278.825 472.121 279.292 472.588C280.203 473.423 281.287 474.047 282.468 474.415C284.995 475.313 287.737 475.417 290.325 474.716C293.034 473.856 295.618 472.646 298.014 471.117L305.16 466.727C307.163 465.553 309.238 464.506 311.373 463.592C313.509 462.716 315.775 462.201 318.08 462.067C320.81 461.946 323.539 462.341 326.123 463.232C331.486 464.964 335.188 467.88 337.347 471.96C339.442 476.374 339.852 481.401 338.499 486.096L346.545 488.688L345.143 493.032L337.094 490.454C336.167 493.244 334.506 495.734 332.286 497.662C330.446 499.161 328.248 500.156 325.908 500.55C323.629 500.922 321.306 500.943 319.02 500.612C316.893 500.312 314.788 499.872 312.719 499.293L315.328 485.545C317.117 486.085 318.933 486.531 320.77 486.879C322.062 487.181 323.409 487.159 324.691 486.814C325.217 486.62 325.685 486.293 326.047 485.865C326.409 485.436 326.654 484.922 326.759 484.37C326.991 483.737 327.041 483.05 326.902 482.389C326.763 481.728 326.441 481.12 325.972 480.634C325.095 479.641 323.975 478.893 322.721 478.464C320.372 477.591 317.788 477.585 315.435 478.447C313.298 479.313 311.227 480.333 309.239 481.5L302.347 485.684C299.992 487.042 297.541 488.225 295.013 489.225C292.486 490.206 289.825 490.795 287.121 490.971C284.098 491.117 281.075 490.692 278.21 489.72C275.338 488.828 272.715 487.278 270.547 485.193C268.47 483.175 266.959 480.648 266.164 477.863C265.351 474.83 265.292 471.645 265.991 468.584L257.459 465.853L258.995 461.479Z" fill="#E9EBFD" stroke="#2640EB" stroke-linecap="round" stroke-linejoin="round"/>
<path d="M339.85 312.228C377.21 319.627 413.494 295.338 420.893 257.978C428.291 220.618 404.002 184.334 366.642 176.936C329.282 169.537 292.998 193.826 285.6 231.186C278.201 268.546 302.49 304.83 339.85 312.228Z" fill="#2640EB" stroke="#2640EB" stroke-linecap="round" stroke-linejoin="round"/>
<path d="M340.888 306.985C378.248 314.383 414.532 290.095 421.931 252.735C429.33 215.375 405.041 179.091 367.681 171.692C330.321 164.294 294.037 188.582 286.638 225.942C279.24 263.302 303.528 299.586 340.888 306.985Z" fill="#E9EBFD" stroke="#2640EB" stroke-linecap="round" stroke-linejoin="round"/>
<path d="M340.888 306.985C378.248 314.383 414.532 290.095 421.931 252.735C429.33 215.375 405.041 179.091 367.681 171.692C330.321 164.294 294.037 188.582 286.638 225.942C279.24 263.302 303.528 299.586 340.888 306.985Z" stroke="#2640EB" stroke-linecap="round" stroke-linejoin="round"/>
<path d="M407.822 263.008C420.886 233.446 407.511 198.89 377.949 185.826C348.387 172.762 313.831 186.136 300.767 215.698C287.703 245.261 301.078 279.816 330.64 292.88C360.202 305.944 394.757 292.57 407.822 263.008Z" fill="#E9EBFD" stroke="#2640EB" stroke-linecap="round" stroke-linejoin="round"/>
<path d="M365.033 185.062C379.986 188.025 393.192 196.705 401.843 209.256C410.494 221.807 413.906 237.238 411.353 252.266C411.457 251.745 411.56 251.223 411.663 250.701C414.415 235.582 411.111 219.987 402.464 207.283C393.817 194.579 380.52 185.785 365.446 182.8C350.371 179.814 334.726 182.877 321.89 191.327C309.054 199.776 300.055 212.935 296.837 227.962C296.734 228.484 296.631 229.005 296.527 229.527C299.891 214.645 308.937 201.666 321.735 193.359C334.533 185.052 350.071 182.075 365.033 185.062Z" fill="#2640EB" stroke="#2640EB" stroke-linecap="round" stroke-linejoin="round"/>
<path d="M344.2 286.014L344.074 283.621L345.937 277.243C339.902 275.734 335.716 272.86 333.379 268.622C331.041 264.383 330.52 258.469 331.814 250.88L345.653 249.141L345.778 251.534C345.271 254.033 345.044 256.582 345.101 259.132C345.067 260.732 345.504 262.307 346.358 263.66C347.106 264.659 348.206 265.336 349.435 265.553C350.065 265.768 350.745 265.783 351.384 265.599C352.022 265.414 352.589 265.037 353.007 264.52C353.759 263.5 354.278 262.327 354.529 261.084C355.138 258.453 354.927 255.698 353.924 253.19C352.751 250.574 351.241 248.122 349.434 245.896L344.215 239.256C342.802 237.381 341.514 235.415 340.359 233.371C339.211 231.34 338.419 229.128 338.017 226.83C337.558 224.112 337.625 221.331 338.213 218.638C339.324 213.028 341.806 208.945 345.66 206.389C349.836 203.758 354.832 202.748 359.703 203.55L365.774 193.64L365.899 196.032L364.249 204.365C367.15 204.968 369.835 206.342 372.02 208.343C373.74 210.01 374.993 212.097 375.657 214.398C376.283 216.639 376.568 218.96 376.504 221.285C376.455 223.454 376.255 225.616 375.907 227.757L361.849 226.714C361.917 226.371 361.669 224.667 361.721 224.335C361.992 222.605 362.455 222.426 362.554 221.062C362.696 219.73 362.518 218.384 362.034 217.136C361.774 216.626 361.386 216.194 360.907 215.881C360.428 215.569 359.876 215.387 359.305 215.354C358.646 215.189 357.953 215.215 357.307 215.428C356.662 215.641 356.09 216.033 355.658 216.558C354.766 217.553 354.147 218.762 353.864 220.068C353.255 222.518 353.542 225.105 354.674 227.361C355.78 229.403 357.038 231.359 358.436 233.213L363.427 239.637C365.04 241.838 366.488 244.156 367.759 246.572C369.033 248.974 369.931 251.557 370.422 254.232C370.918 257.243 370.841 260.32 370.195 263.302C369.644 266.288 368.393 269.101 366.544 271.509C364.768 273.83 362.406 275.637 359.701 276.745C356.763 277.914 353.582 278.342 350.439 277.992L348.683 286.859L344.2 286.014Z" fill="#2640EB" stroke="#2640EB" stroke-linecap="round" stroke-linejoin="round"/>
<path d="M344.074 283.621L345.811 274.85C339.785 273.343 335.599 270.474 333.251 266.243C330.903 262.012 330.373 256.091 331.661 248.481L345.614 249.119C345.113 251.62 344.886 254.167 344.937 256.717C344.907 258.319 345.349 259.895 346.208 261.248C346.947 262.258 348.049 262.942 349.283 263.155C349.914 263.368 350.595 263.382 351.235 263.195C351.874 263.008 352.44 262.628 352.857 262.108C353.574 261.092 354.07 259.936 354.313 258.716C354.921 256.08 354.711 253.322 353.711 250.808C352.54 248.19 351.024 245.741 349.204 243.525L343.989 236.871C342.583 234.996 341.294 233.035 340.13 231C339 228.962 338.208 226.752 337.788 224.459C337.337 221.736 337.405 218.952 337.986 216.253C339.099 210.635 341.577 206.551 345.419 204.002C349.607 201.386 354.602 200.378 359.476 201.165L361.142 192.751L365.659 193.645L364.009 201.977C366.909 202.581 369.594 203.955 371.78 205.956C373.491 207.626 374.739 209.712 375.403 212.009C376.036 214.252 376.321 216.579 376.247 218.909C376.197 221.073 376.003 223.232 375.667 225.37L361.606 224.34C361.937 222.465 362.174 220.574 362.314 218.675C362.465 217.345 362.291 215.999 361.807 214.751C361.545 214.244 361.156 213.813 360.678 213.5C360.2 213.188 359.648 213.005 359.078 212.97C358.417 212.803 357.722 212.828 357.075 213.044C356.428 213.26 355.857 213.656 355.428 214.187C354.523 215.174 353.899 216.385 353.621 217.695C353.017 220.145 353.304 222.73 354.43 224.988C355.546 227.028 356.808 228.985 358.207 230.843L363.197 237.266C364.807 239.47 366.255 241.788 367.53 244.201C368.81 246.603 369.713 249.187 370.206 251.864C370.702 254.875 370.625 257.952 369.979 260.934C369.42 263.918 368.17 266.728 366.328 269.141C364.545 271.451 362.186 273.251 359.488 274.363C356.547 275.542 353.359 275.975 350.209 275.621L348.456 284.475L344.074 283.621Z" fill="#E9EBFD" stroke="#2640EB" stroke-linecap="round" stroke-linejoin="round"/>
<path d="M414.193 566.017L237.32 587.329L239.694 607.03L416.567 585.717L414.193 566.017Z" fill="#E9EBFD" stroke="#2640EB" stroke-width="0.9993" stroke-linecap="round" stroke-linejoin="round"/>
<path d="M275.513 584.514L249.321 587.525L251.589 607.252L277.781 604.241L275.513 584.514Z" fill="#E9EBFD" stroke="#2640EB" stroke-linecap="round" stroke-linejoin="round"/>
<path d="M375.508 573.015L271.369 584.987L273.637 604.714L377.776 592.741L375.508 573.015Z" fill="#E9EBFD" stroke="#2640EB" stroke-linecap="round" stroke-linejoin="round"/>
<path d="M342.964 576.756L303.899 581.247L306.167 600.974L345.232 596.483L342.964 576.756Z" fill="#E9EBFD" stroke="#2640EB" stroke-linecap="round" stroke-linejoin="round"/>
<path d="M519.202 285.407L504.047 408.982L517.811 410.67L532.966 287.095L519.202 285.407Z" fill="#E9EBFD" stroke="#2640EB" stroke-linecap="round" stroke-linejoin="round"/>
<path d="M507.532 380.6L505.291 398.878L519.055 400.566L521.297 382.288L507.532 380.6Z" fill="#E9EBFD" stroke="#2640EB" stroke-linecap="round" stroke-linejoin="round"/>
<path d="M516.079 310.867L507.169 383.522L520.934 385.21L529.844 312.555L516.079 310.867Z" fill="#E9EBFD" stroke="#2640EB" stroke-linecap="round" stroke-linejoin="round"/>
<path d="M513.294 333.576L509.952 360.827L523.717 362.515L527.059 335.264L513.294 333.576Z" fill="#E9EBFD" stroke="#2640EB" stroke-linecap="round" stroke-linejoin="round"/>
</svg>
