<?xml version="1.0"?>
<svg xmlns="http://www.w3.org/2000/svg" width="1010" height="225" viewBox="0 0 1010 225" fill="none">
<path fill-rule="evenodd" clip-rule="evenodd" d="M218.4 84.05V113.15C218.4 172.08 170.63 219.85 111.7 219.85C52.77 219.86 5 172.08 5 113.15C5 54.22 52.77 6.45001 111.7 6.45001H140.8L87.45 59.8V137.43H165.04L218.4 84.05ZM218.4 6.45001H140.8V84.05H218.4V6.45001ZM258.79 45.38C258.79 20.3 274.07 5.14001 300.86 5.14001C325.55 5.14001 337.96 18.07 340.31 37.15H322.15C320.32 25.78 313.53 19.25 300.46 19.25C284.52 19.25 276.55 28 276.55 45.25C276.55 62.63 285.43 71.25 300.46 71.25C314.05 71.25 320.97 64.46 322.67 53.22H340.96C338.61 72.95 324.5 85.36 300.33 85.36C274.08 85.36 258.79 69.68 258.79 45.38ZM429.02 44.99C429.02 69.81 413.34 85.36 387.74 85.36C363.57 85.36 346.46 71.38 346.46 45.51C346.46 20.69 362.14 5.14001 387.74 5.14001C411.9 5.14001 429.02 19.12 429.02 44.99ZM411.25 45.51C411.25 27.48 401.84 19.25 387.73 19.25C372.84 19.25 364.22 27.48 364.22 44.99C364.22 63.02 373.63 71.25 387.73 71.25C402.63 71.25 411.25 63.02 411.25 45.51ZM438.55 6.45001H456.06V27.09C460.5 13.37 469.25 5.14001 485.19 5.14001C503.22 5.14001 513.41 15.85 513.41 34.4V84.04H495.9V36.89C495.9 24.35 489.5 18.6 476.96 18.6C466.9 18.6 460.63 22.65 456.06 31.4V84.05H438.55V6.45001ZM520.72 60.28H539.01C540.45 67.99 546.46 71.65 559.78 71.65C573.5 71.65 578.2 67.47 578.2 61.85C578.2 57.67 576.24 54.53 568.79 53.62L546.33 51C529.22 49.04 522.81 41.72 522.81 29.57C522.81 15.72 532.87 5.14001 557.69 5.14001C581.73 5.14001 592.05 15.33 594.27 30.09H576.11C575.06 23.3 570.49 18.85 557.17 18.85C544.11 18.85 539.66 23.03 539.66 28.52C539.66 33.09 542.14 35.84 549.07 36.62L572.45 39.36C589.43 41.32 595.05 49.42 595.05 61.18C595.05 75.03 584.47 85.35 559.38 85.35C533.79 85.36 522.68 75.82 520.72 60.28ZM642.22 85.36C615.83 85.36 601.72 68.25 601.72 45.51C601.72 21.47 616.87 5.14001 642.35 5.14001C670.7 5.14001 682.46 22.52 682.33 49.69H619.49C621.06 63.54 629.55 71.25 642.74 71.25C654.63 71.25 661.29 66.68 663.9 58.97H681.8C677.88 74.91 664.3 85.36 642.22 85.36ZM619.75 37.81H663.91C662.73 26.31 656.07 18.87 642.22 18.87C630.07 18.86 621.97 25.39 619.75 37.81ZM690.94 6.45001H708.45V27.09C712.89 13.37 721.64 5.14001 737.58 5.14001C755.61 5.14001 765.8 15.85 765.8 34.4V84.04H748.3V36.89C748.3 24.35 741.9 18.6 729.36 18.6C719.3 18.6 713.03 22.65 708.46 31.4V84.05H690.95V6.45001H690.94ZM773.12 60.28H791.41C792.85 67.99 798.86 71.65 812.18 71.65C825.9 71.65 830.6 67.47 830.6 61.85C830.6 57.67 828.64 54.53 821.19 53.62L798.72 51C781.61 49.04 775.2 41.72 775.2 29.57C775.2 15.72 785.26 5.14001 810.08 5.14001C834.12 5.14001 844.44 15.33 846.66 30.09H828.5C827.45 23.3 822.88 18.85 809.56 18.85C796.5 18.85 792.05 23.03 792.05 28.52C792.05 33.09 794.53 35.84 801.46 36.62L824.84 39.36C841.82 41.32 847.44 49.42 847.44 61.18C847.44 75.03 836.86 85.35 811.77 85.35C786.18 85.36 775.08 75.82 773.12 60.28ZM930.93 6.45001L898.4 103.13H855.94V88.76H885.46L889.77 75.57H872.92L847.45 6.45001H866.78L890.17 74.38L912.64 6.45001H930.93ZM930.66 60.28H948.95C950.39 67.99 956.4 71.65 969.72 71.65C983.44 71.65 988.14 67.47 988.14 61.85C988.14 57.67 986.18 54.53 978.73 53.62L956.27 51C939.16 49.04 932.75 41.72 932.75 29.57C932.75 15.72 942.81 5.14001 967.63 5.14001C991.67 5.14001 1001.99 15.33 1004.21 30.09H986.05C985 23.3 980.43 18.85 967.11 18.85C954.05 18.85 949.6 23.03 949.6 28.52C949.6 33.09 952.08 35.84 959.01 36.62L982.39 39.36C999.37 41.32 1004.99 49.42 1004.99 61.18C1004.99 75.03 994.41 85.35 969.32 85.35C943.73 85.36 932.62 75.82 930.66 60.28Z" fill="white"/>
</svg>
