<svg width="567" height="274" viewBox="0 0 567 274" fill="none" xmlns="http://www.w3.org/2000/svg">
<rect x="39.6357" y="39.8457" width="487.729" height="194.309" rx="97.1545" fill="white"/>
<path d="M140.959 205.292C178.753 205.292 209.391 174.657 209.391 136.867C209.391 99.0773 178.753 68.4424 140.959 68.4424C103.165 68.4424 72.5273 99.0773 72.5273 136.867C72.5273 174.657 103.165 205.292 140.959 205.292Z" fill="#F06040"/>
<path d="M180.877 81.2949C169.885 73.3993 156.798 68.9403 143.271 68.4817C129.745 68.0231 116.386 71.5856 104.884 78.7185C93.3818 85.8515 84.2536 96.2347 78.6534 108.555C73.0532 120.875 71.2325 134.579 73.4216 147.934C75.6106 161.289 81.7112 173.695 90.9517 183.584C100.192 193.472 112.158 200.398 125.335 203.487C138.512 206.575 152.31 205.687 164.982 200.935C177.655 196.183 188.634 187.78 196.53 176.789C201.773 169.491 205.528 161.232 207.578 152.483C209.629 143.735 209.937 134.668 208.483 125.8C207.03 116.933 203.844 108.439 199.107 100.802C194.371 93.166 188.176 86.5374 180.877 81.2949V81.2949Z" fill="#F1603F"/>
<path d="M84.4346 175.465C84.4346 175.465 129.655 160.653 209.354 134.665C209.354 134.665 213.72 177.224 169.601 199.422C169.601 199.422 147.844 209.85 123.976 203.161C123.976 203.161 100.209 198.675 84.4346 175.465Z" fill="#2B286C"/>
<path d="M250.559 102.683H274.288C278.523 102.683 282.353 103.39 285.779 104.804C289.266 106.219 292.225 108.341 294.654 111.17C297.145 113.935 299.044 117.439 300.352 121.683C301.723 125.862 302.408 130.749 302.408 136.343C302.408 141.937 301.723 146.856 300.352 151.1C299.044 155.279 297.145 158.784 294.654 161.613C292.225 164.378 289.266 166.467 285.779 167.882C282.353 169.297 278.523 170.004 274.288 170.004H250.559V102.683ZM274.288 158.719C278.897 158.719 282.54 157.337 285.218 154.572C287.958 151.743 289.329 147.435 289.329 141.648V131.039C289.329 125.252 287.958 120.976 285.218 118.211C282.54 115.382 278.897 113.967 274.288 113.967H262.89V158.719H274.288Z" fill="#2A2C2F"/>
<path d="M342.435 161.613H341.967C341.531 162.899 340.94 164.121 340.192 165.278C339.507 166.371 338.604 167.368 337.483 168.268C336.424 169.168 335.116 169.875 333.559 170.39C332.065 170.904 330.321 171.161 328.328 171.161C323.283 171.161 319.422 169.457 316.744 166.05C314.065 162.642 312.726 157.787 312.726 151.486V119.658H324.684V150.232C324.684 153.704 325.338 156.372 326.646 158.237C327.954 160.038 330.041 160.938 332.905 160.938C334.089 160.938 335.241 160.777 336.362 160.455C337.545 160.134 338.573 159.652 339.445 159.009C340.317 158.301 341.033 157.466 341.594 156.501C342.154 155.472 342.435 154.283 342.435 152.932V119.658H354.392V170.004H342.435V161.613Z" fill="#2A2C2F"/>
<path d="M367.274 170.004V119.658H379.232V128.049H379.7C380.696 125.348 382.253 123.098 384.371 121.297C386.55 119.433 389.54 118.5 393.339 118.5C398.384 118.5 402.245 120.204 404.923 123.612C407.602 127.02 408.941 131.874 408.941 138.176V170.004H396.983V139.43C396.983 135.829 396.36 133.128 395.114 131.328C393.869 129.528 391.813 128.627 388.948 128.627C387.703 128.627 386.488 128.82 385.305 129.206C384.184 129.528 383.156 130.042 382.222 130.749C381.35 131.392 380.634 132.228 380.073 133.257C379.513 134.221 379.232 135.379 379.232 136.729V170.004H367.274Z" fill="#2A2C2F"/>
<path d="M440.974 171.161C437.362 171.161 434.123 170.55 431.258 169.329C428.456 168.043 426.058 166.275 424.065 164.024C422.134 161.709 420.639 158.944 419.58 155.729C418.522 152.45 417.992 148.785 417.992 144.734C417.992 140.748 418.491 137.147 419.487 133.932C420.546 130.717 422.041 127.984 423.971 125.734C425.902 123.419 428.269 121.651 431.071 120.429C433.874 119.143 437.05 118.5 440.6 118.5C444.399 118.5 447.7 119.175 450.503 120.526C453.306 121.876 455.61 123.708 457.416 126.023C459.222 128.338 460.561 131.039 461.433 134.125C462.368 137.147 462.835 140.394 462.835 143.866V147.917H430.417V149.171C430.417 152.836 431.414 155.794 433.407 158.044C435.4 160.23 438.358 161.324 442.282 161.324C445.271 161.324 447.7 160.681 449.569 159.395C451.5 158.109 453.212 156.469 454.707 154.476L461.153 161.902C459.16 164.796 456.42 167.078 452.932 168.75C449.507 170.358 445.521 171.161 440.974 171.161ZM440.787 127.759C437.611 127.759 435.088 128.852 433.22 131.039C431.352 133.225 430.417 136.054 430.417 139.526V140.298H450.41V139.43C450.41 135.957 449.569 133.16 447.887 131.039C446.268 128.852 443.901 127.759 440.787 127.759Z" fill="#2A2C2F"/>
</svg>
