<svg width="612" height="276" viewBox="0 0 612 276" fill="none" xmlns="http://www.w3.org/2000/svg">
<path d="M187.036 68.4909C173.301 58.6247 156.947 53.0528 140.045 52.4798C123.142 51.9067 106.449 56.3583 92.0762 65.2716C77.7036 74.1848 66.2972 87.1594 59.2993 102.555C52.3014 117.95 50.0263 135.074 52.7617 151.762C55.4971 168.45 63.1202 183.953 74.667 196.309C86.2137 208.665 101.166 217.32 117.632 221.179C134.098 225.039 151.339 223.929 167.174 217.991C183.01 212.053 196.729 201.552 206.596 187.818C213.148 178.699 217.839 168.379 220.402 157.446C222.964 146.514 223.349 135.185 221.532 124.104C219.716 113.023 215.735 102.409 209.816 92.8669C203.897 83.3248 196.157 75.0418 187.036 68.4909V68.4909Z" fill="#F4603E"/>
<path d="M66.5225 186.163C66.5225 186.163 123.029 167.653 222.62 135.18C222.62 135.18 228.075 188.36 172.944 216.099C172.944 216.099 145.758 229.129 115.933 220.771C115.933 220.771 86.2335 215.165 66.5225 186.163Z" fill="#1E1870"/>
<path d="M274.108 95.2148H303.76C309.052 95.2148 313.838 96.0987 318.119 97.8663C322.477 99.6339 326.174 102.285 329.209 105.821C332.322 109.276 334.695 113.654 336.33 118.957C338.042 124.18 338.898 130.286 338.898 137.277C338.898 144.267 338.042 150.413 336.33 155.716C334.695 160.939 332.322 165.318 329.209 168.853C326.174 172.308 322.477 174.919 318.119 176.687C313.838 178.454 309.052 179.338 303.76 179.338H274.108V95.2148ZM303.76 165.237C309.519 165.237 314.072 163.51 317.418 160.055C320.843 156.52 322.555 151.136 322.555 143.905V130.648C322.555 123.417 320.843 118.074 317.418 114.619C314.072 111.083 309.519 109.316 303.76 109.316H289.518V165.237H303.76Z" fill="#2A2C2F"/>
<path d="M388.915 168.853H388.331C387.786 170.46 387.047 171.986 386.113 173.433C385.257 174.799 384.128 176.044 382.728 177.169C381.405 178.294 379.77 179.178 377.825 179.82C375.957 180.463 373.778 180.785 371.287 180.785C364.983 180.785 360.158 178.655 356.812 174.397C353.465 170.139 351.792 164.072 351.792 156.198V116.426H366.735V154.632C366.735 158.97 367.552 162.305 369.186 164.635C370.82 166.884 373.428 168.009 377.007 168.009C378.486 168.009 379.926 167.808 381.327 167.407C382.805 167.005 384.09 166.402 385.179 165.599C386.269 164.715 387.164 163.671 387.864 162.465C388.565 161.18 388.915 159.693 388.915 158.006V116.426H403.857V179.338H388.915V168.853Z" fill="#2A2C2F"/>
<path d="M419.954 179.338V116.426H434.897V126.912H435.48C436.726 123.537 438.671 120.725 441.317 118.475C444.041 116.145 447.777 114.98 452.524 114.98C458.828 114.98 463.653 117.109 467 121.368C470.346 125.626 472.019 131.692 472.019 139.566V179.338H457.077V141.133C457.077 136.634 456.299 133.259 454.742 131.009C453.186 128.76 450.617 127.635 447.038 127.635C445.481 127.635 443.963 127.876 442.485 128.358C441.084 128.76 439.8 129.403 438.632 130.286C437.543 131.09 436.648 132.134 435.947 133.42C435.247 134.625 434.897 136.071 434.897 137.759V179.338H419.954Z" fill="#2A2C2F"/>
<path d="M512.048 180.785C507.534 180.785 503.487 180.021 499.907 178.495C496.405 176.888 493.409 174.678 490.918 171.866C488.506 168.973 486.638 165.519 485.315 161.501C483.992 157.403 483.33 152.824 483.33 147.762C483.33 142.78 483.953 138.281 485.198 134.264C486.521 130.246 488.389 126.831 490.801 124.019C493.214 121.127 496.171 118.917 499.674 117.391C503.176 115.784 507.145 114.98 511.581 114.98C516.328 114.98 520.453 115.824 523.955 117.511C527.457 119.198 530.337 121.488 532.594 124.381C534.851 127.273 536.524 130.648 537.613 134.505C538.781 138.281 539.365 142.338 539.365 146.677V151.739H498.856V153.306C498.856 157.886 500.102 161.582 502.592 164.394C505.082 167.126 508.779 168.491 513.682 168.491C517.418 168.491 520.453 167.688 522.788 166.081C525.2 164.474 527.34 162.425 529.208 159.934L537.263 169.215C534.773 172.83 531.349 175.682 526.99 177.771C522.71 179.78 517.729 180.785 512.048 180.785ZM511.814 126.55C507.845 126.55 504.693 127.916 502.359 130.648C500.024 133.38 498.856 136.915 498.856 141.254V142.218H523.838V141.133C523.838 136.794 522.788 133.299 520.686 130.648C518.663 127.916 515.706 126.55 511.814 126.55Z" fill="#2A2C2F"/>
</svg>
