<svg width="17" height="16" viewBox="0 0 17 16" fill="none" xmlns="http://www.w3.org/2000/svg">
<g id="gift">
<g id="Vector">
<path d="M8.25 4C8.25 3.73629 8.3282 3.47851 8.47471 3.25924C8.62122 3.03997 8.82945 2.86908 9.07309 2.76816C9.31672 2.66724 9.58481 2.64084 9.84345 2.69229C10.1021 2.74373 10.3397 2.87072 10.5261 3.05719C10.7126 3.24366 10.8396 3.48124 10.891 3.73988C10.9425 3.99852 10.9161 4.26661 10.8152 4.51025C10.7143 4.75388 10.5434 4.96212 10.3241 5.10863C10.1048 5.25514 9.84704 5.33333 9.58333 5.33333H12.9167C13.2703 5.33333 13.6094 5.47381 13.8595 5.72386C14.1095 5.97391 14.25 6.31305 14.25 6.66667C14.25 7.02029 14.1095 7.35943 13.8595 7.60948C13.6094 7.85952 13.2703 8 12.9167 8V12.6667C12.9167 13.0203 12.7762 13.3594 12.5261 13.6095C12.2761 13.8595 11.937 14 11.5833 14H8.25H4.91667C4.56304 14 4.22391 13.8595 3.97386 13.6095C3.72381 13.3594 3.58333 13.0203 3.58333 12.6667V8C3.22971 8 2.89057 7.85952 2.64052 7.60948C2.39048 7.35943 2.25 7.02029 2.25 6.66667C2.25 6.31305 2.39048 5.97391 2.64052 5.72386C2.89057 5.47381 3.22971 5.33333 3.58333 5.33333H6.58333C6.2537 5.33333 5.93146 5.23559 5.65738 5.05245C5.3833 4.86931 5.16968 4.60902 5.04353 4.30447C4.91739 3.99993 4.88438 3.66482 4.94869 3.34152C5.013 3.01822 5.17173 2.72124 5.40482 2.48816C5.63791 2.25507 5.93488 2.09633 6.25818 2.03203C6.58148 1.96772 6.9166 2.00072 7.22114 2.12687C7.52568 2.25301 7.78598 2.46664 7.96912 2.74072C8.15225 3.0148 8.25 3.33703 8.25 3.66667V4Z" fill="white"/>
<path d="M8.25 5.33333V14M8.25 5.33333V4C8.25 3.73629 8.3282 3.47851 8.47471 3.25924C8.62122 3.03997 8.82945 2.86908 9.07309 2.76816C9.31672 2.66724 9.58481 2.64084 9.84345 2.69229C10.1021 2.74373 10.3397 2.87072 10.5261 3.05719C10.7126 3.24366 10.8396 3.48124 10.891 3.73988C10.9425 3.99852 10.9161 4.26661 10.8152 4.51025C10.7143 4.75388 10.5434 4.96212 10.3241 5.10863C10.1048 5.25514 9.84704 5.33333 9.58333 5.33333H8.25ZM8.25 5.33333V3.66667C8.25 3.33703 8.15225 3.0148 7.96912 2.74072C7.78598 2.46664 7.52568 2.25301 7.22114 2.12687C6.9166 2.00072 6.58148 1.96772 6.25818 2.03203C5.93488 2.09633 5.63791 2.25507 5.40482 2.48816C5.17173 2.72124 5.013 3.01822 4.94869 3.34152C4.88438 3.66482 4.91739 3.99993 5.04353 4.30447C5.16968 4.60902 5.3833 4.86931 5.65738 5.05245C5.93147 5.23559 6.2537 5.33333 6.58333 5.33333H8.25ZM3.58333 8H12.9167M3.58333 8C3.22971 8 2.89057 7.85952 2.64052 7.60948C2.39048 7.35943 2.25 7.02029 2.25 6.66667C2.25 6.31305 2.39048 5.97391 2.64052 5.72386C2.89057 5.47381 3.22971 5.33333 3.58333 5.33333H12.9167C13.2703 5.33333 13.6094 5.47381 13.8595 5.72386C14.1095 5.97391 14.25 6.31305 14.25 6.66667C14.25 7.02029 14.1095 7.35943 13.8595 7.60948C13.6094 7.85952 13.2703 8 12.9167 8M3.58333 8V12.6667C3.58333 13.0203 3.72381 13.3594 3.97386 13.6095C4.22391 13.8595 4.56304 14 4.91667 14H11.5833C11.937 14 12.2761 13.8595 12.5261 13.6095C12.7762 13.3594 12.9167 13.0203 12.9167 12.6667V8" stroke="#111928" stroke-linecap="round" stroke-linejoin="round"/>
</g>
</g>
</svg>
