<svg width="20" height="21" viewBox="0 0 20 21" fill="none" xmlns="http://www.w3.org/2000/svg">
<g id="Github - Original" clip-path="url(#clip0_2648_855)">
<path id="Vector" fill-rule="evenodd" clip-rule="evenodd" d="M10.0001 0.916656C7.62614 0.917888 5.33001 1.75871 3.52229 3.28876C1.71457 4.81881 0.513151 6.93833 0.132852 9.26832C-0.247447 11.5983 0.218171 13.9868 1.44646 16.0068C2.67474 18.0268 4.5856 19.5465 6.83734 20.2941C7.33411 20.3863 7.52123 20.0784 7.52123 19.8167C7.52123 19.5549 7.51129 18.7958 7.50798 17.966C4.72606 18.567 4.13822 16.7921 4.13822 16.7921C3.6845 15.6395 3.02876 15.3366 3.02876 15.3366C2.12133 14.7208 3.09666 14.7323 3.09666 14.7323C4.10179 14.8031 4.63003 15.7581 4.63003 15.7581C5.5209 17.2778 6.96981 16.8382 7.53944 16.5813C7.62886 15.9375 7.88884 15.4996 8.17531 15.251C5.95309 15.0007 3.61826 14.1478 3.61826 10.3378C3.60449 9.34975 3.97325 8.3942 4.64824 7.66889C4.54557 7.41863 4.2028 6.40768 4.74593 5.03452C4.74593 5.03452 5.58548 4.76779 7.4964 6.05369C9.13546 5.60801 10.8648 5.60801 12.5038 6.05369C14.4131 4.76779 15.251 5.03452 15.251 5.03452C15.7958 6.40439 15.453 7.41533 15.3503 7.66889C16.0275 8.39432 16.397 9.35153 16.382 10.3411C16.382 14.1593 14.0422 15.0007 11.8166 15.246C12.1743 15.5556 12.4939 16.1598 12.4939 17.0884C12.4939 18.4188 12.4823 19.489 12.4823 19.8167C12.4823 20.0817 12.6628 20.3913 13.1695 20.2941C15.4215 19.5464 17.3326 18.0264 18.5608 16.0061C19.7891 13.9858 20.2545 11.5969 19.8737 9.2667C19.493 6.93649 18.291 4.81695 16.4827 3.28716C14.6744 1.75737 12.3777 0.917107 10.0034 0.916656H10.0001Z" fill="#111928"/>
<path id="Vector_2" d="M3.78705 15.1933C3.76552 15.2427 3.68604 15.2576 3.62146 15.223C3.55688 15.1884 3.50886 15.1242 3.53205 15.0731C3.55523 15.0221 3.63306 15.0089 3.69764 15.0435C3.76222 15.0781 3.81189 15.1439 3.78705 15.1933Z" fill="#191717"/>
<path id="Vector_3" d="M4.19285 15.6428C4.15856 15.66 4.11933 15.6648 4.08187 15.6564C4.04441 15.648 4.01106 15.6269 3.98752 15.5967C3.92294 15.5276 3.90969 15.4321 3.95937 15.3893C4.00904 15.3464 4.09847 15.3662 4.16305 15.4354C4.22763 15.5045 4.24253 15.6 4.19285 15.6428Z" fill="#191717"/>
<path id="Vector_4" d="M4.58697 16.2142C4.5257 16.257 4.42138 16.2142 4.36342 16.1285C4.34739 16.1132 4.33465 16.0948 4.32594 16.0744C4.31724 16.054 4.31274 16.0321 4.31274 16.01C4.31274 15.9879 4.31724 15.966 4.32594 15.9456C4.33465 15.9252 4.34739 15.9068 4.36342 15.8915C4.42469 15.8503 4.52902 15.8915 4.58697 15.9754C4.64493 16.0594 4.64658 16.1714 4.58697 16.2142Z" fill="#191717"/>
<path id="Vector_5" d="M5.12168 16.7674C5.06704 16.8283 4.95609 16.8118 4.86502 16.7295C4.77394 16.6472 4.75241 16.5352 4.80706 16.4759C4.8617 16.4167 4.97265 16.4331 5.06703 16.5138C5.16142 16.5945 5.17964 16.7081 5.12168 16.7674Z" fill="#191717"/>
<path id="Vector_6" d="M5.87173 17.0901C5.84689 17.1675 5.73429 17.202 5.62169 17.1691C5.50909 17.1362 5.43457 17.044 5.4561 16.9649C5.47762 16.8859 5.59188 16.8497 5.70614 16.8859C5.8204 16.9221 5.89326 17.0094 5.87173 17.0901Z" fill="#191717"/>
<path id="Vector_7" d="M6.68986 17.1461C6.68986 17.2267 6.59713 17.2959 6.47791 17.2975C6.35868 17.2992 6.26099 17.2333 6.26099 17.1526C6.26099 17.072 6.35371 17.0028 6.47294 17.0012C6.59216 16.9995 6.68986 17.0637 6.68986 17.1461Z" fill="#191717"/>
<path id="Vector_8" d="M7.45166 17.0193C7.46656 17.1 7.38377 17.1839 7.26454 17.2037C7.14532 17.2234 7.041 17.1757 7.02609 17.0967C7.01119 17.0176 7.0973 16.932 7.21321 16.9106C7.32912 16.8892 7.43676 16.9386 7.45166 17.0193Z" fill="#191717"/>
</g>
<defs>
<clipPath id="clip0_2648_855">
<rect width="20" height="20" fill="white" transform="translate(0 0.5)"/>
</clipPath>
</defs>
</svg>
