<svg width="18" height="19" viewBox="0 0 18 19" fill="none" xmlns="http://www.w3.org/2000/svg">
<g id="globe-alt">
<path id="Vector" d="M10.0818 13.6004L10.5413 13.7975C10.9187 12.9176 11.1836 11.748 11.2701 10.4329L11.3052 9.90005H10.7712H7.22879H6.69482L6.72987 10.4329C6.81636 11.748 7.08125 12.9175 7.45862 13.7974C7.69066 14.3389 7.95644 14.7498 8.23019 15.02L8.23023 15.0201C8.50475 15.2911 8.76458 15.4 8.99999 15.4C9.2352 15.4 9.49477 15.2913 9.76903 15.0208C10.0445 14.7499 10.3105 14.3374 10.5415 13.797L10.0818 13.6004ZM10.0818 13.6004C9.86669 14.1035 9.63269 14.4536 9.41849 14.6642L7.91819 13.6004C7.61476 12.893 7.38231 11.9637 7.27124 10.9H7.22879V10.4L7.72771 10.3672C7.72843 10.3782 7.72916 10.3891 7.72991 10.4H10.2701C10.2708 10.3891 10.2715 10.3782 10.2723 10.3672L10.7712 10.4V10.9H10.7287C10.6177 11.9637 10.3852 12.893 10.0818 13.6004ZM3.18169 8.51666L3.08301 9.10005H3.67469H5.42609H5.89813L5.92526 8.62879C6.00294 7.27947 6.25907 6.05197 6.64435 5.07773L7.19511 3.68506L5.91815 4.46752C5.19938 4.90795 4.58327 5.4972 4.11126 6.19563C3.63925 6.89407 3.32228 7.68549 3.18169 8.51666ZM7.45874 5.20239L7.45867 5.20257C7.08127 6.08252 6.81636 7.25207 6.72987 8.56723L6.69482 9.10005H7.22879H10.7712H11.3052L11.2701 8.56723C11.1836 7.25213 10.9187 6.08262 10.5414 5.20269C10.3093 4.66125 10.0435 4.25034 9.76978 3.98005L9.76974 3.98001C9.49522 3.70903 9.2354 3.60005 8.99999 3.60005C8.76478 3.60005 8.5052 3.70884 8.23094 3.97931C7.95513 4.25049 7.69025 4.66318 7.45874 5.20239ZM12.0747 8.62879L12.1018 9.10005H12.5739H14.3253H14.917L14.8183 8.51666C14.6777 7.68549 14.3607 6.89407 13.8887 6.19564C13.4167 5.4972 12.8006 4.90795 12.0818 4.46752L10.8049 3.68506L11.3556 5.07773C11.7409 6.05197 11.997 7.27947 12.0747 8.62879ZM11.3557 13.9222L10.8042 15.3154L12.0818 14.5326C12.8006 14.0921 13.4167 13.5029 13.8887 12.8045C14.3607 12.106 14.6777 11.3146 14.8183 10.4834L14.917 9.90005H14.3253H12.5739H12.1018L12.0747 10.3713C11.997 11.7207 11.7409 12.949 11.3557 13.9222ZM5.91815 14.5326L7.19511 15.315L6.64435 13.9224C6.25907 12.9481 6.00297 11.7207 5.92618 10.3716L5.89934 9.90005H5.42699H3.67469H3.08301L3.18169 10.4834C3.32228 11.3146 3.63925 12.106 4.11126 12.8045C4.58327 13.5029 5.19938 14.0921 5.91815 14.5326ZM4.26237 4.76243C5.51887 3.50594 7.22304 2.80005 8.99999 2.80005C10.7769 2.80005 12.4811 3.50594 13.7376 4.76243C14.9941 6.01893 15.7 7.7231 15.7 9.50005C15.7 11.277 14.9941 12.9812 13.7376 14.2377C12.4811 15.4942 10.7769 16.2 8.99999 16.2C7.22304 16.2 5.51887 15.4942 4.26237 14.2377C3.00588 12.9812 2.29999 11.277 2.29999 9.50005C2.29999 7.7231 3.00588 6.01893 4.26237 4.76243Z" fill="#6B7280" stroke="#6B7280"/>
</g>
</svg>
