<svg width="17" height="16" viewBox="0 0 17 16" fill="none" xmlns="http://www.w3.org/2000/svg">
<g id="hand">
<g id="Vector">
<path d="M11.4165 5.66667V7.33333V5.66667Z" fill="white"/>
<path d="M5.4165 7.66667V9.33333M5.4165 7.66667V3.66667C5.4165 3.40145 5.52186 3.1471 5.7094 2.95956C5.89693 2.77202 6.15129 2.66667 6.4165 2.66667C6.68172 2.66667 6.93607 2.77202 7.12361 2.95956C7.31115 3.1471 7.4165 3.40145 7.4165 3.66667M5.4165 7.66667C5.4165 7.40145 5.31115 7.1471 5.12361 6.95956C4.93607 6.77202 4.68172 6.66667 4.4165 6.66667C4.15129 6.66667 3.89693 6.77202 3.7094 6.95956C3.52186 7.1471 3.4165 7.40145 3.4165 7.66667V9C3.4165 10.3261 3.94329 11.5979 4.88097 12.5355C5.81865 13.4732 7.09042 14 8.4165 14C9.74259 14 11.0144 13.4732 11.952 12.5355C12.8897 11.5979 13.4165 10.3261 13.4165 9V5.66667C13.4165 5.40145 13.3111 5.1471 13.1236 4.95956C12.9361 4.77202 12.6817 4.66667 12.4165 4.66667C12.1513 4.66667 11.8969 4.77202 11.7094 4.95956C11.5219 5.1471 11.4165 5.40145 11.4165 5.66667M7.4165 3.66667V7.33333M7.4165 3.66667V3C7.4165 2.73478 7.52186 2.48043 7.7094 2.29289C7.89693 2.10536 8.15129 2 8.4165 2C8.68172 2 8.93607 2.10536 9.12361 2.29289C9.31115 2.48043 9.4165 2.73478 9.4165 3V3.66667M11.4165 5.66667V3.66667C11.4165 3.40145 11.3111 3.1471 11.1236 2.95956C10.9361 2.77202 10.6817 2.66667 10.4165 2.66667C10.1513 2.66667 9.89693 2.77202 9.7094 2.95956C9.52186 3.1471 9.4165 3.40145 9.4165 3.66667M11.4165 5.66667V7.33333M9.4165 3.66667V7.33333" stroke="#111928" stroke-linecap="round" stroke-linejoin="round"/>
</g>
</g>
</svg>
