<svg width="76" height="64" viewBox="0 0 76 64" fill="none" xmlns="http://www.w3.org/2000/svg">
<path id="Union" fill-rule="evenodd" clip-rule="evenodd" d="M74.9064 43.454C74.4777 41.4127 73.6768 39.4678 72.5438 37.7165L72.2504 37.0268L69.1101 29.4109C68.6745 28.204 68.0825 27.0595 67.3492 26.0065L61.1421 12.1835C60.8773 11.5589 60.5478 10.9638 60.1589 10.408L58.2953 5.78564C57.5992 3.80621 56.208 2.14693 54.3803 1.11633C52.5526 0.0857241 50.4128 -0.246057 48.3588 0.182678C46.3048 0.611412 44.4765 1.77148 43.2136 3.44718C41.9508 5.12288 41.3396 7.20015 41.4935 9.29275V10.6428C40.1581 9.48351 37.0912 7.70795 33.6428 11.2151L33.7455 9.29275C33.8733 7.38364 33.3673 5.48573 32.3059 3.8937C31.2446 2.30166 29.6873 1.10457 27.8759 0.488289L27.4944 0.400245L26.878 0.23883L26.1003 0.0627406H25.5134H25.3226C24.8314 0.0551467 24.3405 0.0895111 23.8552 0.165459C22.3199 0.409559 20.8783 1.06116 19.6807 2.0523C18.483 3.04343 17.5733 4.33778 17.0464 5.80031L15.1388 10.4227C14.7759 10.9844 14.4664 11.5788 14.2143 12.1982L7.93379 26.0065C7.20051 27.0595 6.6085 28.204 6.1729 29.4109L3.01797 37.0121L2.70981 37.7165C1.57532 39.4654 0.778933 41.4115 0.361954 43.454C-0.151292 45.9052 -0.118339 48.4392 0.458472 50.8762C1.03528 53.3131 2.14179 55.593 3.69935 57.554C5.25691 59.5149 7.22729 61.1087 9.47044 62.2221C11.7136 63.3355 14.1745 63.9411 16.6781 63.9959C19.1818 64.0507 21.6668 63.5534 23.9565 62.5392C26.2462 61.5251 28.2845 60.0191 29.9264 58.1281C31.5682 56.2372 32.7735 54.0079 33.4564 51.5985C34.1393 49.1892 34.2831 46.659 33.8776 44.1878L34.0537 36.4839V34.5615V33.3876C35.088 32.6772 36.3133 32.2968 37.5681 32.2968C38.8229 32.2968 40.0483 32.6772 41.0826 33.3876V34.5762V36.4985L41.2587 44.2024C40.8595 46.6712 41.0083 49.1976 41.6945 51.6025C42.3808 54.0074 43.5876 56.2319 45.2294 58.1183C46.8713 60.0048 48.908 61.5069 51.1952 62.5184C53.4825 63.5298 55.9641 64.0258 58.4644 63.971C60.9647 63.9163 63.4223 63.3123 65.6631 62.2018C67.9039 61.0913 69.8729 59.5014 71.4307 57.545C72.9885 55.5886 74.0969 53.3134 74.6772 50.8808C75.2576 48.4482 75.2957 45.9177 74.789 43.4687L74.9064 43.454ZM31.8085 49.9547C31.2024 52.8744 29.7445 55.549 27.619 57.6405C25.4935 59.7321 22.7959 61.1467 19.8668 61.7058C16.9377 62.2649 13.9086 61.9433 11.1621 60.7817C8.41573 59.6201 6.07521 57.6705 4.43626 55.1793C2.79732 52.6881 1.93348 49.767 1.95389 46.7851C1.97429 43.8032 2.87802 40.8943 4.5509 38.4257C6.22379 35.9572 8.59077 34.0398 11.3528 32.9159C14.1149 31.792 17.1481 31.5119 20.0693 32.111C22.0138 32.5078 23.8608 33.2848 25.5042 34.3973C27.1476 35.5099 28.5551 36.9361 29.6459 38.594C30.7366 40.252 31.4892 42.1091 31.8603 44.0587C32.2314 46.0082 32.2139 48.0119 31.8085 49.9547ZM41.6402 23.6293C40.4357 22.8051 38.9871 22.4143 37.5315 22.5209C36.0759 22.6276 34.6996 23.2253 33.6281 24.2163V20.3277C34.7202 19.2977 36.16 18.7168 37.661 18.7005C39.162 18.6842 40.6141 19.2337 41.7282 20.2396L41.6402 23.6293ZM61.2595 61.5912C58.3616 62.1933 55.3502 61.9228 52.6061 60.8137C49.862 59.7046 47.5082 57.8069 45.8425 55.3604C44.1767 52.9138 43.2737 50.0283 43.2476 47.0687C43.2215 44.109 44.0735 41.208 45.6958 38.7325C47.3181 36.257 49.638 34.318 52.3621 33.1607C55.0863 32.0034 58.0924 31.6797 61.0004 32.2306C63.9085 32.7815 66.5879 34.1822 68.7001 36.2556C70.8122 38.3291 72.2622 40.9822 72.8667 43.8796C73.2683 45.8048 73.2867 47.7902 72.9206 49.7225C72.5546 51.6547 71.8114 53.4959 70.7334 55.1408C69.6555 56.7856 68.2639 58.2019 66.6383 59.3088C65.0127 60.4156 63.185 61.1912 61.2595 61.5912ZM58.0692 43C54.7619 43 52.0714 45.6905 52.0714 48.9965C52.0714 49.9483 52.8425 50.7195 53.7943 50.7195C54.746 50.7195 55.5172 49.9483 55.5172 48.9965C55.5172 47.5899 56.6619 46.4459 58.0692 46.4459C59.4758 46.4459 60.6198 47.5899 60.6198 48.9965C60.6198 49.9483 61.391 50.7195 62.3427 50.7195C63.2944 50.7195 64.0656 49.9483 64.0656 48.9965C64.0656 45.6898 61.3751 43 58.0692 43ZM11.0714 48.9966C11.0714 45.6906 13.7619 43 17.0692 43C20.3751 43 23.0656 45.6899 23.0656 48.9966C23.0656 49.9483 22.2944 50.7195 21.3427 50.7195C20.391 50.7195 19.6198 49.9483 19.6198 48.9966C19.6198 47.59 18.4758 46.4459 17.0692 46.4459C15.6619 46.4459 14.5172 47.59 14.5172 48.9966C14.5172 49.9483 13.746 50.7195 12.7943 50.7195C11.8425 50.7195 11.0714 49.9483 11.0714 48.9966Z" fill="#2640EB"/>
</svg>
