<svg width="741" height="474" viewBox="0 0 741 474" fill="none" xmlns="http://www.w3.org/2000/svg">
<path d="M680.335 35H677.553V159.006H680.335V35Z" fill="#919CF4"/>
<path d="M740.925 98.3915V95.6072L617 95.6072V98.3915L740.925 98.3915Z" fill="#919CF4"/>
<path d="M636.104 52.1869L634.136 54.1557L721.763 141.84L723.731 139.871L636.104 52.1869Z" fill="#919CF4"/>
<path d="M723.749 54.131L721.781 52.1622L634.154 139.847L636.122 141.815L723.749 54.131Z" fill="#919CF4"/>
<path d="M678.944 108.072C685.054 108.072 690.006 103.116 690.006 97.0029C690.006 90.8894 685.054 85.9333 678.944 85.9333C672.835 85.9333 667.882 90.8894 667.882 97.0029C667.882 103.116 672.835 108.072 678.944 108.072Z" fill="#919CF4"/>
<path d="M218 389.606H384.161" stroke="#919CF4" stroke-width="2" stroke-miterlimit="10"/>
<path d="M301.101 306.491V472.761" stroke="#919CF4" stroke-width="2" stroke-miterlimit="10"/>
<path d="M301.101 472.761C301.101 472.761 328.774 436.028 328.774 389.646C328.774 343.264 301.101 306.532 301.101 306.532" stroke="#919CF4" stroke-width="2" stroke-miterlimit="10"/>
<path d="M301.101 472.72C346.973 472.72 384.161 435.508 384.161 389.606C384.161 343.703 346.973 306.491 301.101 306.491C255.228 306.491 218.041 343.703 218.041 389.606C218.041 435.508 255.228 472.72 301.101 472.72Z" stroke="#919CF4" stroke-width="2" stroke-miterlimit="10"/>
<path d="M301.101 472.761C301.101 472.761 356.487 454.232 356.487 389.646C356.487 325.06 301.101 306.532 301.101 306.532" stroke="#919CF4" stroke-width="2" stroke-miterlimit="10"/>
<path d="M301.101 472.761C301.101 472.761 273.427 436.028 273.427 389.646C273.427 343.264 301.101 306.532 301.101 306.532" stroke="#919CF4" stroke-width="2" stroke-miterlimit="10"/>
<path d="M301.101 472.761C301.101 472.761 245.714 454.232 245.714 389.646C245.714 325.06 301.101 306.532 301.101 306.532" stroke="#919CF4" stroke-width="2" stroke-miterlimit="10"/>
<path d="M226.792 426.865C235.665 423.054 259.408 414.945 301.101 414.945C342.752 414.945 366.536 423.054 375.409 426.865" stroke="#919CF4" stroke-width="2" stroke-miterlimit="10"/>
<path d="M246.402 452.205C255.033 448.151 272.05 442.637 301.06 442.637C329.868 442.637 346.844 448.029 355.556 452.124" stroke="#919CF4" stroke-width="2" stroke-miterlimit="10"/>
<path d="M226.792 352.387C235.665 356.198 259.408 364.306 301.101 364.306C342.752 364.306 366.536 356.198 375.409 352.387" stroke="#919CF4" stroke-width="2" stroke-miterlimit="10"/>
<path d="M246.402 327.047C255.033 331.101 272.05 336.615 301.06 336.615C329.868 336.615 346.844 331.223 355.556 327.128" stroke="#919CF4" stroke-width="2" stroke-miterlimit="10"/>
<path d="M321.026 53H645V417.511C645 423.292 639.685 428 633.1 428H332.9C326.342 428 321 423.315 321 417.511V53H321.026Z" fill="#919CF4" stroke="#919CF4" stroke-width="2" stroke-miterlimit="10"/>
<path d="M332.892 1H632.861C639.414 1 644.753 6.31175 644.753 12.892V52.7169H321.027V12.892C321.027 6.33818 326.338 1 332.892 1Z" fill="#5063EF" stroke="#919CF4" stroke-width="2" stroke-miterlimit="10"/>
<path d="M352.923 35.0375C357.55 35.0375 361.301 31.3815 361.301 26.8717C361.301 22.3618 357.55 18.7058 352.923 18.7058C348.297 18.7058 344.546 22.3618 344.546 26.8717C344.546 31.3815 348.297 35.0375 352.923 35.0375Z" fill="#919CF4"/>
<path d="M381.913 35.0375C386.54 35.0375 390.291 31.3815 390.291 26.8717C390.291 22.3618 386.54 18.7058 381.913 18.7058C377.287 18.7058 373.536 22.3618 373.536 26.8717C373.536 31.3815 377.287 35.0375 381.913 35.0375Z" fill="#919CF4"/>
<path d="M410.877 35.0375C415.504 35.0375 419.254 31.3815 419.254 26.8717C419.254 22.3618 415.504 18.7058 410.877 18.7058C406.25 18.7058 402.5 22.3618 402.5 26.8717C402.5 31.3815 406.25 35.0375 410.877 35.0375Z" fill="#919CF4"/>
<path d="M482.889 204.987C510.386 204.987 532.677 182.696 532.677 155.199C532.677 127.702 510.386 105.412 482.889 105.412C455.392 105.412 433.102 127.702 433.102 155.199C433.102 182.696 455.392 204.987 482.889 204.987Z" fill="#2640EB" stroke="#919CF4" stroke-width="2" stroke-miterlimit="10"/>
<path d="M508.428 138.267C508.425 138.267 508.421 138.267 508.418 138.267H494.074V136.7C494.074 134.108 491.945 132 489.328 132H476.672C474.055 132 471.926 134.108 471.926 136.7V138.267H457.582C456.701 138.267 456 138.981 456 139.833V174.3C456 176.892 458.129 179 460.746 179H505.254C507.871 179 510 176.892 510 174.3V139.866C510 139.864 510 139.862 510 139.86C509.939 138.831 509.3 138.273 508.428 138.267ZM475.09 136.7C475.09 135.836 475.8 135.133 476.672 135.133H489.328C490.2 135.133 490.91 135.836 490.91 136.7V138.267H475.09V136.7ZM506.223 141.4L501.31 155.995C501.094 156.636 500.491 157.067 499.809 157.067H490.91V155.5C490.91 154.635 490.202 153.933 489.328 153.933H476.672C475.798 153.933 475.09 154.635 475.09 155.5V157.067H466.191C465.509 157.067 464.906 156.636 464.69 155.995L459.777 141.4H506.223ZM487.746 157.067V160.2H478.254V157.067H487.746ZM506.836 174.3C506.836 175.164 506.126 175.867 505.254 175.867H460.746C459.874 175.867 459.164 175.164 459.164 174.3V149.488L461.688 156.986C462.335 158.909 464.145 160.2 466.191 160.2H475.09V161.767C475.09 162.632 475.798 163.333 476.672 163.333H489.328C490.202 163.333 490.91 162.632 490.91 161.767V160.2H499.809C501.855 160.2 503.665 158.909 504.312 156.986L506.836 149.488V174.3Z" fill="white"/>
<path d="M603.58 265.821H362.199C361.38 265.821 360.693 266.482 360.693 267.327V281.413C360.693 282.232 361.353 282.919 362.199 282.919H603.58C604.399 282.919 605.086 282.258 605.086 281.413V267.327C605.086 266.508 604.399 265.821 603.58 265.821Z" fill="#5063EF"/>
<path d="M583.046 236.593H382.733C381.913 236.593 381.226 237.254 381.226 238.1V252.185C381.226 253.004 381.887 253.691 382.733 253.691H583.046C583.865 253.691 584.553 253.031 584.553 252.185V238.1C584.526 237.254 583.865 236.593 583.046 236.593Z" fill="#5063EF"/>
<path d="M349.99 339.155H615.762C621.365 339.155 625.884 343.7 625.884 349.276V397.267C625.884 402.87 621.338 407.388 615.762 407.388H349.99C344.388 407.388 339.869 402.843 339.869 397.267V349.276C339.869 343.674 344.414 339.155 349.99 339.155Z" fill="#2640EB" stroke="#919CF4" stroke-width="2" stroke-miterlimit="10"/>
<path d="M453.32 379.198H446.746L445.453 384H441L448.175 361H452.011L459.051 384H454.598L453.32 379.198ZM447.784 375.422H452.327L450.086 366.955L447.784 375.422Z" fill="white"/>
<path d="M465.549 375.565V384H461.322V361H468.814C470.007 361 471.085 361.184 472.048 361.553C473.01 361.911 473.833 362.411 474.515 363.054C475.187 363.707 475.703 364.486 476.064 365.391C476.435 366.297 476.621 367.303 476.621 368.409C476.621 369.441 476.435 370.394 476.064 371.268C475.703 372.142 475.187 372.895 474.515 373.527C473.833 374.169 473.01 374.669 472.048 375.027C471.085 375.386 470.007 375.565 468.814 375.565H465.549ZM465.549 371.963H468.814C469.415 371.963 469.937 371.868 470.378 371.679C470.819 371.489 471.19 371.231 471.491 370.905C471.782 370.578 471.998 370.204 472.138 369.783C472.288 369.351 472.364 368.904 472.364 368.44C472.364 367.903 472.288 367.403 472.138 366.94C471.998 366.476 471.782 366.071 471.491 365.723C471.19 365.376 470.819 365.102 470.378 364.902C469.937 364.702 469.415 364.602 468.814 364.602H465.549V371.963Z" fill="white"/>
<path d="M484.052 375.565V384H479.825V361H487.316C488.509 361 489.587 361.184 490.55 361.553C491.513 361.911 492.335 362.411 493.017 363.054C493.689 363.707 494.205 364.486 494.566 365.391C494.937 366.297 495.123 367.303 495.123 368.409C495.123 369.441 494.937 370.394 494.566 371.268C494.205 372.142 493.689 372.895 493.017 373.527C492.335 374.169 491.513 374.669 490.55 375.027C489.587 375.386 488.509 375.565 487.316 375.565H484.052ZM484.052 371.963H487.316C487.918 371.963 488.439 371.868 488.88 371.679C489.322 371.489 489.693 371.231 489.993 370.905C490.284 370.578 490.5 370.204 490.64 369.783C490.791 369.351 490.866 368.904 490.866 368.44C490.866 367.903 490.791 367.403 490.64 366.94C490.5 366.476 490.284 366.071 489.993 365.723C489.693 365.376 489.322 365.102 488.88 364.902C488.439 364.702 487.918 364.602 487.316 364.602H484.052V371.963Z" fill="white"/>
<path d="M502.584 380.414H512.843V384H498.342V361H502.584V380.414Z" fill="white"/>
<path d="M524.035 371.6L528.352 361H533L526.111 376.038L526.095 384H521.884L521.869 375.849L515.084 361H519.717L524.035 371.6Z" fill="white"/>
<path d="M661 392.629L622.992 382.315L585 372L595.181 410.508L605.361 449L623.994 423.344L642.755 442.336L654.423 430.515L635.661 411.523L661 392.629Z" fill="white"/>
<path d="M373.959 172.667L376.549 179.459L383.34 182.049L376.549 184.665L373.959 191.43L371.343 184.665L364.577 182.049L371.343 179.459L373.959 172.667Z" fill="#919CF4"/>
<path d="M591.82 79.8042L594.436 86.5694L601.201 89.1856L594.436 91.8018L591.82 98.5671L589.204 91.8018L582.438 89.1856L589.23 86.5694L591.82 79.8042Z" fill="#919CF4"/>
<path d="M16.9201 135.698L7.593 136.493C7.593 136.493 1.00005 141.126 1.00005 154.607C1.00005 168.089 7.593 172.722 7.593 172.722L16.9201 173.517" fill="#5063EF"/>
<path d="M16.9201 135.698L7.593 136.493C7.593 136.493 1.00005 141.126 1.00005 154.607C1.00005 168.089 7.593 172.722 7.593 172.722L16.9201 173.517" stroke="#919CF4" stroke-width="2" stroke-miterlimit="10"/>
<path d="M92.9482 118.179L24.9022 123.938C24.9022 123.938 13.7228 131.771 13.7228 154.607C13.7228 177.444 24.9022 185.255 24.9022 185.255L92.9482 191.014" fill="#5063EF"/>
<path d="M92.9482 118.179L24.9022 123.938C24.9022 123.938 13.7228 131.771 13.7228 154.607C13.7228 177.444 24.9022 185.255 24.9022 185.255L92.9482 191.014" stroke="#919CF4" stroke-width="2" stroke-miterlimit="10"/>
<path d="M250.23 101.057L97.0715 114.009C97.0715 114.009 82.276 124.401 82.276 154.607C82.276 184.813 97.0715 195.184 97.0715 195.184L250.23 208.158" fill="#5063EF"/>
<path d="M250.23 101.057L97.0715 114.009C97.0715 114.009 82.276 124.401 82.276 154.607C82.276 184.813 97.0715 195.184 97.0715 195.184L250.23 208.158" stroke="#919CF4" stroke-width="2" stroke-miterlimit="10"/>
<path d="M259.427 106.78L323.432 101.256L331.555 208.474L261.376 201.651L259.427 106.78Z" fill="#5063EF"/>
<path d="M329.566 208.246C339.841 208.246 349.499 201.847 356.07 190.661C361.825 180.886 365 168.067 365 154.607C365 141.126 361.825 128.329 356.07 118.554C349.499 107.39 339.819 100.969 329.566 100.969C319.291 100.969 309.633 107.368 303.062 118.554C297.307 128.329 294.132 141.148 294.132 154.607C294.132 168.067 297.307 180.886 303.062 190.661C309.655 201.825 319.313 208.246 329.566 208.246Z" fill="#5063EF" stroke="#919CF4" stroke-width="2" stroke-miterlimit="10"/>
<path d="M329.566 198.846C315.172 198.846 303.503 179.04 303.503 154.607C303.503 130.175 315.172 110.368 329.566 110.368C343.96 110.368 355.629 130.175 355.629 154.607C355.629 179.04 343.96 198.846 329.566 198.846Z" fill="white"/>
<path fill-rule="evenodd" clip-rule="evenodd" d="M327.065 154.521C327.065 165.745 332.524 174.844 339.258 174.844C345.992 174.844 351.452 165.745 351.452 154.521C351.452 151.658 351.096 148.933 350.455 146.462C349.339 147.27 347.967 147.747 346.484 147.747C342.743 147.747 339.71 144.714 339.71 140.973C339.71 138.51 341.024 136.354 342.99 135.168C341.814 134.539 340.56 134.199 339.258 134.199C332.524 134.199 327.065 143.298 327.065 154.521Z" fill="#2640EB"/>
<path d="M267.804 203.105L327.449 208.158" stroke="#919CF4" stroke-width="2" stroke-miterlimit="10"/>
<path d="M327.449 101.057L268.135 106.066" stroke="#919CF4" stroke-width="2" stroke-miterlimit="10"/>
<path d="M252.369 208.246C262.644 208.246 272.302 201.847 278.873 190.661C284.628 180.886 287.803 168.067 287.803 154.607C287.803 141.126 284.628 128.329 278.873 118.554C272.302 107.39 262.622 100.969 252.369 100.969C242.094 100.969 232.436 107.368 225.865 118.554C220.11 128.329 216.935 141.148 216.935 154.607C216.935 168.067 220.11 180.886 225.865 190.661C232.436 201.825 242.094 208.246 252.369 208.246Z" fill="#5063EF" stroke="#919CF4" stroke-width="2" stroke-miterlimit="10"/>
<path d="M252.369 198.846C237.975 198.846 226.306 179.04 226.306 154.607C226.306 130.175 237.975 110.368 252.369 110.368C266.763 110.368 278.432 130.175 278.432 154.607C278.432 179.04 266.763 198.846 252.369 198.846Z" fill="white"/>
<path fill-rule="evenodd" clip-rule="evenodd" d="M249.387 154.521C249.387 165.745 254.846 174.844 261.581 174.844C268.315 174.844 273.774 165.745 273.774 154.521C273.774 151.658 273.419 148.933 272.778 146.462C271.662 147.27 270.29 147.747 268.806 147.747C265.065 147.747 262.032 144.714 262.032 140.973C262.032 138.51 263.347 136.354 265.312 135.168C264.136 134.539 262.882 134.199 261.581 134.199C254.846 134.199 249.387 143.298 249.387 154.521Z" fill="#2640EB"/>
<path d="M280.356 37L284.903 48.8166L296.746 53.3666L284.903 57.9166L280.356 69.7671L275.809 57.9506L264 53.3666L275.809 48.8166L280.356 37Z" fill="#E8FC6C"/>
<path d="M724.356 195L728.903 206.817L740.746 211.367L728.903 215.917L724.356 227.767L719.809 215.951L708 211.367L719.809 206.817L724.356 195Z" fill="#E8FC6C"/>
<path d="M145.356 254L149.903 265.817L161.746 270.367L149.903 274.917L145.356 286.767L140.809 274.951L129 270.367L140.809 265.817L145.356 254Z" fill="#E8FC6C"/>
</svg>
