<svg width="19" height="18" viewBox="0 0 19 18" fill="none" xmlns="http://www.w3.org/2000/svg">
<g id="LinkedIn - Original" clip-path="url(#clip0_1704_456)">
<path id="Vector" d="M5.865 15.8337H6.365V15.3337V6.7375V6.2375H5.865H3.15875H2.65875V6.7375V15.3337V15.8337H3.15875H5.865ZM15.84 15.8412H16.3399L16.34 15.3414L16.3412 10.0239V10.0238C16.3412 8.6028 15.896 7.57774 15.1765 6.91181C14.4659 6.25407 13.548 6.0025 12.7 6.0025C11.8305 6.0025 11.1174 6.30381 10.5925 6.68724V6.24375H10.0925H7.49H6.99V6.74375V15.3412V15.8412H7.49H10.1962H10.6962V15.3412V10.68C10.6962 10.168 10.856 9.83776 11.0493 9.63834C11.2458 9.43569 11.5106 9.3325 11.7863 9.3325C12.0721 9.3325 12.2492 9.40972 12.3675 9.54647C12.4985 9.69793 12.635 10.0111 12.635 10.645V15.3412V15.8412H13.135H15.84ZM1.82875 0.5H17.1712C17.391 0.5 17.6018 0.587315 17.7573 0.742736C17.9127 0.898156 18 1.10895 18 1.32875V16.6712C18 16.891 17.9127 17.1018 17.7573 17.2573C17.6018 17.4127 17.391 17.5 17.1712 17.5H1.82875C1.60895 17.5 1.39816 17.4127 1.24274 17.2573C1.08731 17.1018 1 16.891 1 16.6712V1.32875C1 1.10895 1.08731 0.898156 1.24274 0.742736C1.39816 0.587315 1.60895 0.5 1.82875 0.5ZM3.36918 5.6944C3.7044 5.92083 4.09901 6.04321 4.50347 6.04622C4.77482 6.05129 5.04444 6.00193 5.29642 5.90104C5.54954 5.79969 5.77968 5.64842 5.97309 5.45624C6.16651 5.26406 6.31926 5.0349 6.42223 4.78243C6.52473 4.53111 6.57582 4.26181 6.5725 3.99044C6.57209 3.58596 6.45225 3.19058 6.22797 2.8539C6.00301 2.5162 5.68305 2.25271 5.30848 2.09668C4.93391 1.94065 4.52151 1.89908 4.12333 1.9772C3.72515 2.05533 3.35904 2.24965 3.0712 2.53565C2.78336 2.82165 2.58669 3.18651 2.50601 3.58418C2.42533 3.98184 2.46425 4.3945 2.61788 4.77006C2.7715 5.14563 3.03293 5.46727 3.36918 5.6944Z" fill="#778CA7" stroke="#778CA7"/>
</g>
<defs>
<clipPath id="clip0_1704_456">
<rect width="18" height="18" fill="white" transform="translate(0.5)"/>
</clipPath>
</defs>
</svg>
