<svg width="18" height="24" viewBox="0 0 18 24" fill="none" xmlns="http://www.w3.org/2000/svg">
<path id="Vector" d="M8.69189 1.52588e-05C3.89916 1.52588e-05 0 3.89917 0 8.69186C0 14.6397 7.77839 23.3716 8.10956 23.7404C8.42062 24.0868 8.96372 24.0862 9.27422 23.7404C9.60539 23.3716 17.3838 14.6397 17.3838 8.69186C17.3837 3.89917 13.4846 1.52588e-05 8.69189 1.52588e-05ZM8.69189 13.065C6.28055 13.065 4.31883 11.1032 4.31883 8.69186C4.31883 6.28051 6.28059 4.3188 8.69189 4.3188C11.1032 4.3188 13.0649 6.28056 13.0649 8.69191C13.0649 11.1032 11.1032 13.065 8.69189 13.065Z" fill="#D3D8FB"/>
</svg>
