<svg width="18" height="18" viewBox="0 0 18 18" fill="none" xmlns="http://www.w3.org/2000/svg">
<g id="location-marker">
<path id="Vector" d="M8.99998 16.3029L4.89853 12.2015L4.89851 12.2014C4.35987 11.6628 3.93259 11.0234 3.64108 10.3197C3.34956 9.61598 3.19952 8.86172 3.19952 8.1C3.19952 7.33829 3.34956 6.58403 3.64108 5.8803C3.93259 5.17658 4.35987 4.53716 4.89851 3.99858L4.54556 3.64559L4.89853 3.99856C5.9863 2.91079 7.46164 2.29968 8.99998 2.29968C10.5383 2.29968 12.0137 2.91079 13.1014 3.99856C14.1892 5.08633 14.8003 6.56166 14.8003 8.1C14.8003 9.63834 14.1892 11.1137 13.1014 12.2015L8.99998 16.3029ZM8.99998 10.4C9.60998 10.4 10.195 10.1577 10.6263 9.72635C11.0577 9.29501 11.3 8.71 11.3 8.1C11.3 7.49001 11.0577 6.90499 10.6263 6.47366C10.195 6.04232 9.60998 5.8 8.99998 5.8C8.38998 5.8 7.80497 6.04232 7.37363 6.47366C6.9423 6.90499 6.69998 7.49001 6.69998 8.1C6.69998 8.71 6.9423 9.29501 7.37363 9.72635C7.80497 10.1577 8.38998 10.4 8.99998 10.4Z" fill="#778CA7" stroke="#778CA7"/>
</g>
</svg>
