<svg xmlns="http://www.w3.org/2000/svg" width="18" height="19" viewBox="0 0 18 19" fill="none">
  <path d="M2.25 6.5L8.1675 10.445C8.414 10.6095 8.70368 10.6972 9 10.6972C9.29632 10.6972 9.586 10.6095 9.8325 10.445L15.75 6.5M3.75 14.75H14.25C14.6478 14.75 15.0294 14.592 15.3107 14.3107C15.592 14.0294 15.75 13.6478 15.75 13.25V5.75C15.75 5.35218 15.592 4.97064 15.3107 4.68934C15.0294 4.40804 14.6478 4.25 14.25 4.25H3.75C3.35218 4.25 2.97064 4.40804 2.68934 4.68934C2.40804 4.97064 2.25 5.35218 2.25 5.75V13.25C2.25 13.6478 2.40804 14.0294 2.68934 14.3107C2.97064 14.592 3.35218 14.75 3.75 14.75Z" stroke="#6B7280" stroke-width="2" stroke-linecap="round" stroke-linejoin="round"/>
</svg>