<svg width="16" height="16" viewBox="0 0 16 16" fill="none" xmlns="http://www.w3.org/2000/svg">
<g id="question-mark-circle">
<path id="Vector" fill-rule="evenodd" clip-rule="evenodd" d="M14.4 8.00001C14.4 9.69739 13.7257 11.3253 12.5255 12.5255C11.3252 13.7257 9.69736 14.4 7.99998 14.4C6.30259 14.4 4.67472 13.7257 3.47449 12.5255C2.27426 11.3253 1.59998 9.69739 1.59998 8.00001C1.59998 6.30262 2.27426 4.67476 3.47449 3.47452C4.67472 2.27429 6.30259 1.60001 7.99998 1.60001C9.69736 1.60001 11.3252 2.27429 12.5255 3.47452C13.7257 4.67476 14.4 6.30262 14.4 8.00001ZM7.99998 5.60001C7.85941 5.59987 7.7213 5.63677 7.59953 5.70699C7.47777 5.77721 7.37666 5.87828 7.30638 6.00001C7.25563 6.09431 7.18646 6.17746 7.10298 6.24453C7.0195 6.31161 6.92341 6.36124 6.82039 6.39049C6.71737 6.41973 6.60953 6.428 6.50326 6.41479C6.39699 6.40159 6.29445 6.36718 6.20172 6.31361C6.109 6.26005 6.02797 6.18841 5.96344 6.10294C5.89891 6.01748 5.8522 5.91992 5.82608 5.81607C5.79995 5.71222 5.79494 5.60418 5.81135 5.49835C5.82775 5.39253 5.86523 5.29108 5.92158 5.20001C6.18575 4.7425 6.5935 4.38494 7.0816 4.18278C7.56969 3.98062 8.11085 3.94516 8.62115 4.08189C9.13145 4.21863 9.58237 4.51992 9.90399 4.93905C10.2256 5.35817 10.4 5.8717 10.4 6.40001C10.4001 6.8965 10.2463 7.38083 9.95978 7.78629C9.67324 8.19175 9.26803 8.4984 8.79998 8.66401V8.80001C8.79998 9.01218 8.71569 9.21566 8.56566 9.36569C8.41563 9.51572 8.21215 9.60001 7.99998 9.60001C7.7878 9.60001 7.58432 9.51572 7.43429 9.36569C7.28426 9.21566 7.19998 9.01218 7.19998 8.80001V8.00001C7.19998 7.78783 7.28426 7.58435 7.43429 7.43432C7.58432 7.28429 7.7878 7.20001 7.99998 7.20001C8.21215 7.20001 8.41563 7.11572 8.56566 6.96569C8.71569 6.81566 8.79998 6.61218 8.79998 6.40001C8.79998 6.18783 8.71569 5.98435 8.56566 5.83432C8.41563 5.68429 8.21215 5.60001 7.99998 5.60001ZM7.99998 12C8.21215 12 8.41563 11.9157 8.56566 11.7657C8.71569 11.6157 8.79998 11.4122 8.79998 11.2C8.79998 10.9878 8.71569 10.7843 8.56566 10.6343C8.41563 10.4843 8.21215 10.4 7.99998 10.4C7.7878 10.4 7.58432 10.4843 7.43429 10.6343C7.28426 10.7843 7.19998 10.9878 7.19998 11.2C7.19998 11.4122 7.28426 11.6157 7.43429 11.7657C7.58432 11.9157 7.7878 12 7.99998 12Z" fill="#2640EB"/>
</g>
</svg>
