<svg width="18" height="18" viewBox="0 0 18 18" fill="none" xmlns="http://www.w3.org/2000/svg">
<g id="search">
<path id="Vector" d="M11.1935 10.0387L10.9486 10.3831L11.2474 10.682L15.5791 15.0136C15.6504 15.0888 15.6898 15.1887 15.6889 15.2924C15.688 15.3973 15.6459 15.4976 15.5718 15.5718C15.4976 15.646 15.3973 15.688 15.2924 15.6889C15.1887 15.6898 15.0887 15.6504 15.0136 15.5791L10.6828 11.2484L10.384 10.9495L10.0395 11.1944C9.30647 11.7157 8.44406 12.0251 7.54681 12.0888C6.64956 12.1524 5.7521 11.9679 4.95277 11.5554C4.15344 11.1428 3.48308 10.5182 3.01516 9.75002C2.54724 8.98181 2.29981 8.09961 2.29999 7.2001V7.19994C2.29989 6.42877 2.48181 5.66846 2.83096 4.98085C3.18011 4.29324 3.68662 3.69775 4.30931 3.2428C4.932 2.78786 5.65327 2.48632 6.41447 2.36269C7.17568 2.23906 7.95531 2.29685 8.68997 2.53134C9.42462 2.76584 10.0936 3.17043 10.6424 3.7122C11.1912 4.25397 11.6044 4.91763 11.8483 5.6492C12.0923 6.38077 12.1601 7.15959 12.0464 7.92233C11.9326 8.68506 11.6404 9.41017 11.1935 10.0387ZM7.19999 3.10001C6.1126 3.10001 5.06975 3.53197 4.30085 4.30087C3.53195 5.06977 3.09999 6.11262 3.09999 7.20001C3.09999 8.28739 3.53195 9.33025 4.30085 10.0991C5.06975 10.868 6.1126 11.3 7.19999 11.3C8.28738 11.3 9.33023 10.868 10.0991 10.0991C10.868 9.33025 11.3 8.28739 11.3 7.20001C11.3 6.11262 10.868 5.06977 10.0991 4.30087C9.33023 3.53197 8.28738 3.10001 7.19999 3.10001Z" fill="#6B7280" stroke="#6B7280"/>
</g>
</svg>
