<svg width="16" height="16" viewBox="0 0 16 16" fill="none" xmlns="http://www.w3.org/2000/svg">
<g id="share">
<path id="Vector" d="M12.0001 6.40001C12.4875 6.40002 12.9632 6.25169 13.3642 5.97473C13.7652 5.69777 14.0723 5.3053 14.2448 4.84953C14.4173 4.39376 14.447 3.89628 14.3299 3.42324C14.2128 2.95019 13.9544 2.52401 13.5892 2.20137C13.224 1.87872 12.7692 1.6749 12.2853 1.617C11.8015 1.55911 11.3114 1.64989 10.8804 1.87727C10.4494 2.10464 10.0978 2.45785 9.87238 2.88991C9.64697 3.32197 9.55843 3.81241 9.61854 4.29601L5.66654 6.27201C5.32752 5.94509 4.89982 5.72514 4.43669 5.63956C3.97357 5.55398 3.4955 5.60656 3.06205 5.79073C2.62859 5.9749 2.2589 6.28254 1.99902 6.67531C1.73915 7.06809 1.60059 7.52865 1.60059 7.99961C1.60059 8.47057 1.73915 8.93113 1.99902 9.3239C2.2589 9.71668 2.62859 10.0243 3.06205 10.2085C3.4955 10.3927 3.97357 10.4452 4.43669 10.3597C4.89982 10.2741 5.32752 10.0541 5.66654 9.72721L9.61854 11.7032C9.54854 12.265 9.67939 12.8335 9.98796 13.3081C10.2965 13.7827 10.763 14.133 11.3048 14.297C11.8467 14.4611 12.4291 14.4282 12.9491 14.2044C13.4691 13.9805 13.8932 13.5801 14.1465 13.0738C14.3998 12.5674 14.466 11.9879 14.3333 11.4375C14.2006 10.8872 13.8776 10.4014 13.4215 10.0661C12.9653 9.73084 12.4053 9.56761 11.8404 9.60529C11.2755 9.64296 10.7421 9.87912 10.3345 10.272L6.38254 8.29601C6.40675 8.09942 6.40675 7.9006 6.38254 7.70401L10.3345 5.72801C10.7649 6.14401 11.3521 6.40001 12.0001 6.40001Z" fill="#2640EB"/>
</g>
</svg>
