<svg width="15" height="14" viewBox="0 0 15 14" fill="none" xmlns="http://www.w3.org/2000/svg">
<g id="sparkles">
<path id="Vector" fill-rule="evenodd" clip-rule="evenodd" d="M4.24999 1.40002C4.43565 1.40002 4.61369 1.47377 4.74497 1.60505C4.87624 1.73633 4.94999 1.91437 4.94999 2.10002V2.80002H5.64999C5.83565 2.80002 6.01369 2.87377 6.14497 3.00505C6.27624 3.13633 6.34999 3.31437 6.34999 3.50002C6.34999 3.68568 6.27624 3.86372 6.14497 3.995C6.01369 4.12627 5.83565 4.20002 5.64999 4.20002H4.94999V4.90002C4.94999 5.08568 4.87624 5.26372 4.74497 5.395C4.61369 5.52627 4.43565 5.60002 4.24999 5.60002C4.06434 5.60002 3.88629 5.52627 3.75502 5.395C3.62374 5.26372 3.54999 5.08568 3.54999 4.90002V4.20002H2.84999C2.66434 4.20002 2.48629 4.12627 2.35502 3.995C2.22374 3.86372 2.14999 3.68568 2.14999 3.50002C2.14999 3.31437 2.22374 3.13633 2.35502 3.00505C2.48629 2.87377 2.66434 2.80002 2.84999 2.80002H3.54999V2.10002C3.54999 1.91437 3.62374 1.73633 3.75502 1.60505C3.88629 1.47377 4.06434 1.40002 4.24999 1.40002ZM4.24999 8.40002C4.43565 8.40002 4.61369 8.47377 4.74497 8.60505C4.87624 8.73633 4.94999 8.91437 4.94999 9.10002V9.80002H5.64999C5.83565 9.80002 6.01369 9.87377 6.14497 10.0051C6.27624 10.1363 6.34999 10.3144 6.34999 10.5C6.34999 10.6857 6.27624 10.8637 6.14497 10.995C6.01369 11.1263 5.83565 11.2 5.64999 11.2H4.94999V11.9C4.94999 12.0857 4.87624 12.2637 4.74497 12.395C4.61369 12.5263 4.43565 12.6 4.24999 12.6C4.06434 12.6 3.88629 12.5263 3.75502 12.395C3.62374 12.2637 3.54999 12.0857 3.54999 11.9V11.2H2.84999C2.66434 11.2 2.48629 11.1263 2.35502 10.995C2.22374 10.8637 2.14999 10.6857 2.14999 10.5C2.14999 10.3144 2.22374 10.1363 2.35502 10.0051C2.48629 9.87377 2.66434 9.80002 2.84999 9.80002H3.54999V9.10002C3.54999 8.91437 3.62374 8.73633 3.75502 8.60505C3.88629 8.47377 4.06434 8.40002 4.24999 8.40002ZM9.14999 1.40002C9.30448 1.39997 9.45464 1.45103 9.57707 1.54523C9.69951 1.63943 9.78735 1.77149 9.82689 1.92082L10.6522 5.04002L13 6.39382C13.1064 6.45526 13.1948 6.54363 13.2562 6.65004C13.3176 6.75645 13.35 6.87716 13.35 7.00002C13.35 7.12289 13.3176 7.2436 13.2562 7.35001C13.1948 7.45642 13.1064 7.54478 13 7.60622L10.6522 8.96072L9.82619 12.0792C9.78657 12.2284 9.69875 12.3603 9.5764 12.4544C9.45404 12.5485 9.304 12.5996 9.14964 12.5996C8.99528 12.5996 8.84525 12.5485 8.72289 12.4544C8.60053 12.3603 8.51271 12.2284 8.47309 12.0792L7.64779 8.96003L5.29999 7.60622C5.19359 7.54478 5.10523 7.45642 5.0438 7.35001C4.98237 7.2436 4.95002 7.12289 4.95002 7.00002C4.95002 6.87716 4.98237 6.75645 5.0438 6.65004C5.10523 6.54363 5.19359 6.45526 5.29999 6.39382L7.64779 5.03932L8.47379 1.92082C8.51331 1.77161 8.60104 1.63963 8.72334 1.54544C8.84563 1.45125 8.99563 1.40013 9.14999 1.40002V1.40002Z" fill="#111928"/>
</g>
</svg>
