<svg width="25" height="22" viewBox="0 0 25 22" fill="none" xmlns="http://www.w3.org/2000/svg">
<g id="Team">
<g id="Group">
<g id="Group_2">
<path id="Vector" d="M20.9193 11.8119H19.0632C19.2524 12.3299 19.3558 12.8889 19.3558 13.4715V20.4863C19.3558 20.7292 19.3135 20.9624 19.2366 21.1793H22.3051C23.4513 21.1793 24.3838 20.2467 24.3838 19.1005V15.2764C24.3838 13.3661 22.8296 11.8119 20.9193 11.8119Z" fill="#D3D8FB"/>
</g>
</g>
<g id="Group_3">
<g id="Group_4">
<path id="Vector_2" d="M5.41185 13.4715C5.41185 12.8889 5.5152 12.33 5.70439 11.812H3.84833C1.93798 11.812 0.383789 13.3662 0.383789 15.2765V19.1006C0.383789 20.2468 1.31628 21.1794 2.46251 21.1794H5.53105C5.45413 20.9624 5.41185 20.7293 5.41185 20.4864V13.4715Z" fill="#D3D8FB"/>
</g>
</g>
<g id="Group_5">
<g id="Group_6">
<path id="Vector_3" d="M14.5054 10.007H10.2622C8.35186 10.007 6.79767 11.5612 6.79767 13.4715V20.4864C6.79767 20.869 7.10789 21.1793 7.49058 21.1793H17.2771C17.6598 21.1793 17.97 20.8691 17.97 20.4864V13.4715C17.97 11.5612 16.4158 10.007 14.5054 10.007Z" fill="#D3D8FB"/>
</g>
</g>
<g id="Group_7">
<g id="Group_8">
<path id="Vector_4" d="M12.3838 0.820648C10.0864 0.820648 8.21727 2.68975 8.21727 4.98723C8.21727 6.5456 9.07738 7.90662 10.3476 8.62118C10.9501 8.96009 11.6447 9.15377 12.3838 9.15377C13.1229 9.15377 13.8175 8.96009 14.42 8.62118C15.6903 7.90662 16.5503 6.54555 16.5503 4.98723C16.5503 2.68979 14.6813 0.820648 12.3838 0.820648Z" fill="#D3D8FB"/>
</g>
</g>
<g id="Group_9">
<g id="Group_10">
<path id="Vector_5" d="M5.06745 4.70421C3.34925 4.70421 1.95143 6.10202 1.95143 7.82023C1.95143 9.53844 3.34925 10.9363 5.06745 10.9363C5.5033 10.9363 5.91833 10.846 6.29535 10.6837C6.94719 10.403 7.48466 9.90627 7.81724 9.284C8.05068 8.84726 8.18348 8.34903 8.18348 7.82023C8.18348 6.10207 6.78566 4.70421 5.06745 4.70421Z" fill="#D3D8FB"/>
</g>
</g>
<g id="Group_11">
<g id="Group_12">
<path id="Vector_6" d="M19.7002 4.70421C17.982 4.70421 16.5842 6.10202 16.5842 7.82023C16.5842 8.34907 16.717 8.84731 16.9504 9.284C17.283 9.90631 17.8204 10.4031 18.4723 10.6837C18.8493 10.846 19.2643 10.9363 19.7002 10.9363C21.4184 10.9363 22.8162 9.53844 22.8162 7.82023C22.8162 6.10202 21.4184 4.70421 19.7002 4.70421Z" fill="#D3D8FB"/>
</g>
</g>
</g>
</svg>
