<svg width="16" height="16" viewBox="0 0 16 16" fill="none" xmlns="http://www.w3.org/2000/svg">
<path id="Vector" fill-rule="evenodd" clip-rule="evenodd" d="M13.5674 14.1068L13.5679 14.1054L13.582 14.0703L16 1.87933V1.83973C16 1.53599 15.8878 1.27082 15.6435 1.11176C15.4298 0.972538 15.1841 0.962628 15.0118 0.975706C14.8294 0.989535 14.6576 1.03503 14.5387 1.07289C14.4775 1.09237 14.4263 1.11114 14.3896 1.12534C14.3712 1.13247 14.3563 1.13851 14.3455 1.14301L14.3348 1.1475L0.85313 6.43617L0.849421 6.43746C0.84214 6.44012 0.832512 6.44375 0.820877 6.44827C0.797695 6.4573 0.766135 6.4702 0.72906 6.48705C0.656264 6.52003 0.555683 6.57091 0.453682 6.64074C0.280442 6.75943 -0.0494448 7.04028 0.00625659 7.48553C0.0523949 7.85435 0.306639 8.08859 0.478041 8.20986C0.569915 8.27493 0.657821 8.32178 0.72219 8.35242C0.754798 8.36798 0.782504 8.37984 0.803138 8.38822C0.813483 8.39241 0.822127 8.3958 0.828819 8.39838L0.837391 8.40153L0.842866 8.40362L3.20158 9.1977C3.19362 9.34566 3.2083 9.49652 3.24754 9.64545L4.42905 14.1274C4.56913 14.6587 5.04989 15.0289 5.59946 15.0285C6.09207 15.0282 6.52897 14.7302 6.71457 14.2856L8.55918 12.3132L11.7273 14.742L11.7723 14.7617C12.0601 14.8873 12.3291 14.9271 12.5749 14.8935C12.8205 14.86 13.0155 14.757 13.1621 14.6398C13.3064 14.5244 13.4051 14.3942 13.4673 14.2961C13.4989 14.2463 13.5225 14.2025 13.5388 14.1695C13.547 14.153 13.5534 14.1391 13.5583 14.1281L13.5644 14.1141L13.5666 14.1089L13.5674 14.1068ZM4.41704 9.33711C4.39019 9.23527 4.43235 9.12771 4.52128 9.07127L12.5217 3.99063C12.5217 3.99063 12.9923 3.70494 12.9755 3.99063C12.9755 3.99063 13.0595 4.04107 12.8073 4.2763C12.5681 4.49972 7.1052 9.77398 6.55239 10.3077C6.52049 10.3385 6.50144 10.3738 6.49019 10.4167L5.59855 13.819L4.41704 9.33711Z" fill="#2640EB"/>
</svg>
