<svg width="15" height="17" viewBox="0 0 15 17" fill="none" xmlns="http://www.w3.org/2000/svg">
<path id="Union" fill-rule="evenodd" clip-rule="evenodd" d="M7.43566 0.759375L7.90531 1.69872C8.02134 1.93081 7.92731 2.2129 7.69528 2.32893C7.46163 2.445 7.18094 2.35003 7.06506 2.11887L6.59538 1.17953C6.47932 0.947438 6.57335 0.665344 6.80544 0.549313C7.03753 0.434189 7.31872 0.527282 7.43566 0.759375ZM11.7122 3.31781H12.6515C12.9111 3.31781 13.1212 3.52787 13.1212 3.7875C13.1212 4.04712 12.9111 4.25718 12.6515 4.25718H11.7122C11.4526 4.25718 11.2425 4.04709 11.2425 3.7875C11.2425 3.52787 11.4526 3.31781 11.7122 3.31781ZM10.9829 0.549308C10.7518 0.434183 10.4688 0.527308 10.3527 0.75937L9.88304 1.69871C9.76701 1.93081 9.86104 2.21287 10.0931 2.32893C10.3274 2.4453 10.6078 2.34924 10.7233 2.11887L11.193 1.17953C11.309 0.947432 11.215 0.665339 10.9829 0.549308ZM5.13676 3.31781H6.0761C6.33569 3.31781 6.54579 3.52787 6.54579 3.7875C6.54579 4.04712 6.33569 4.25718 6.0761 4.25718H5.13676C4.87714 4.25718 4.66707 4.04709 4.66707 3.7875C4.66707 3.52787 4.87717 3.31781 5.13676 3.31781ZM3.25807 8.04586H1.37935C1.11998 8.04586 0.909668 8.25614 0.909668 8.51554V16.0303C0.909668 16.2897 1.11995 16.5 1.37935 16.5H3.25804C3.51741 16.5 3.72772 16.2897 3.72772 16.0303V8.51551C3.72772 8.25614 3.51748 8.04586 3.25807 8.04586ZM13.4939 8.04586C14.2272 8.04586 14.9078 8.56227 14.9906 9.29086C15.0388 9.71489 14.8972 10.1073 14.6404 10.3942C15.3394 11.1751 14.9687 12.4187 13.9615 12.6931C14.0253 12.8541 14.0606 13.0293 14.0606 13.2123C14.0606 13.8608 13.6199 14.409 13.0222 14.5718C13.4145 15.5624 12.626 16.5 11.6137 16.5H8.54133C6.90554 16.5 5.78588 16.1209 4.90069 15.8211C4.82101 15.7941 4.74324 15.7678 4.66715 15.7424V8.69502C4.73046 8.66338 4.79218 8.63292 4.85258 8.60311C5.36635 8.34955 5.78434 8.14326 6.26471 7.66289C7.06231 6.86527 7.48521 4.9049 7.48521 3.81881C7.48521 3.55918 7.6953 3.34912 7.9549 3.34912H8.34246C9.40818 3.34912 10.2907 4.20312 10.303 5.2688C10.3104 5.91262 10.1434 7.48864 9.83218 8.04586H13.4939Z" fill="#2640EB"/>
</svg>
