<svg width="19" height="18" viewBox="0 0 19 18" fill="none" xmlns="http://www.w3.org/2000/svg">
<g id="Twitter - Original" clip-path="url(#clip0_1704_496)">
<g id="Vector">
<mask id="path-1-inside-1_1704_496" fill="white">
<path d="M6.16064 16.313C12.9531 16.313 16.6683 10.6855 16.6683 5.80533C16.6683 5.64549 16.6683 5.48637 16.6575 5.32797C17.3803 4.80519 18.0042 4.15788 18.5 3.41637C17.826 3.71517 17.111 3.91104 16.3789 3.99741C17.1499 3.53593 17.7269 2.81 18.0025 1.95477C17.2776 2.38498 16.4845 2.68814 15.6574 2.85117C15.1006 2.2591 14.3642 1.86705 13.5621 1.73568C12.7601 1.60431 11.9371 1.74095 11.2205 2.12446C10.5039 2.50796 9.93367 3.11695 9.59806 3.85718C9.26245 4.59741 9.18016 5.42762 9.36392 6.21933C7.89567 6.14568 6.45932 5.7641 5.14809 5.09937C3.83686 4.43464 2.68007 3.50161 1.7528 2.36085C1.28055 3.17385 1.1359 4.13627 1.34832 5.05217C1.56075 5.96806 2.11426 6.76856 2.89616 7.29069C2.30842 7.27347 1.73349 7.11492 1.22 6.82845V6.87525C1.22023 7.72789 1.51539 8.5542 2.0554 9.21402C2.59542 9.87385 3.34705 10.3266 4.1828 10.4954C3.63911 10.6437 3.06866 10.6654 2.51528 10.5588C2.75136 11.2925 3.21082 11.9341 3.82943 12.394C4.44804 12.8538 5.19487 13.1088 5.96552 13.1234C5.19983 13.7253 4.32299 14.1703 3.38516 14.4329C2.44733 14.6956 1.46691 14.7707 0.5 14.6541C2.18887 15.7379 4.15394 16.3128 6.16064 16.3101"/>
</mask>
<path d="M6.16064 16.313C12.9531 16.313 16.6683 10.6855 16.6683 5.80533C16.6683 5.64549 16.6683 5.48637 16.6575 5.32797C17.3803 4.80519 18.0042 4.15788 18.5 3.41637C17.826 3.71517 17.111 3.91104 16.3789 3.99741C17.1499 3.53593 17.7269 2.81 18.0025 1.95477C17.2776 2.38498 16.4845 2.68814 15.6574 2.85117C15.1006 2.2591 14.3642 1.86705 13.5621 1.73568C12.7601 1.60431 11.9371 1.74095 11.2205 2.12446C10.5039 2.50796 9.93367 3.11695 9.59806 3.85718C9.26245 4.59741 9.18016 5.42762 9.36392 6.21933C7.89567 6.14568 6.45932 5.7641 5.14809 5.09937C3.83686 4.43464 2.68007 3.50161 1.7528 2.36085C1.28055 3.17385 1.1359 4.13627 1.34832 5.05217C1.56075 5.96806 2.11426 6.76856 2.89616 7.29069C2.30842 7.27347 1.73349 7.11492 1.22 6.82845V6.87525C1.22023 7.72789 1.51539 8.5542 2.0554 9.21402C2.59542 9.87385 3.34705 10.3266 4.1828 10.4954C3.63911 10.6437 3.06866 10.6654 2.51528 10.5588C2.75136 11.2925 3.21082 11.9341 3.82943 12.394C4.44804 12.8538 5.19487 13.1088 5.96552 13.1234C5.19983 13.7253 4.32299 14.1703 3.38516 14.4329C2.44733 14.6956 1.46691 14.7707 0.5 14.6541C2.18887 15.7379 4.15394 16.3128 6.16064 16.3101" fill="#778CA7"/>
<path d="M16.6575 5.32797L16.0714 4.51771L15.6221 4.84272L15.6598 5.39599L16.6575 5.32797ZM18.5 3.41637L19.3313 3.97222L21.2495 1.10349L18.0947 2.50219L18.5 3.41637ZM16.3789 3.99741L15.8653 3.13937L16.496 4.99052L16.3789 3.99741ZM18.0025 1.95477L18.9543 2.2615L19.765 -0.254033L17.4921 1.09481L18.0025 1.95477ZM15.6574 2.85117L14.929 3.53625L15.308 3.93929L15.8508 3.83229L15.6574 2.85117ZM9.36392 6.21933L9.31382 7.21807L10.6377 7.28448L10.338 5.99323L9.36392 6.21933ZM1.7528 2.36085L2.52878 1.73009L1.61543 0.60645L0.888099 1.85856L1.7528 2.36085ZM2.89616 7.29069L2.86687 8.29026L6.34648 8.39222L3.45149 6.45906L2.89616 7.29069ZM1.22 6.82845L1.7072 5.95516L0.22 5.12547V6.82845H1.22ZM1.22 6.87525L0.22 6.87525L0.22 6.87552L1.22 6.87525ZM4.1828 10.4954L4.44596 11.4602L4.38081 9.51521L4.1828 10.4954ZM2.51528 10.5588L2.70447 9.57683L1.04605 9.25731L1.56334 10.8651L2.51528 10.5588ZM5.96552 13.1234L6.58349 13.9096L8.78821 12.1766L5.98444 12.1236L5.96552 13.1234ZM0.5 14.6541L0.619732 13.6613L-0.0400721 15.4957L0.5 14.6541ZM6.16064 17.313C13.6202 17.313 17.6683 11.1155 17.6683 5.80533H15.6683C15.6683 10.2555 12.286 15.313 6.16064 15.313V17.313ZM17.6683 5.80533C17.6683 5.65128 17.6687 5.45801 17.6552 5.25995L15.6598 5.39599C15.6679 5.51473 15.6683 5.6397 15.6683 5.80533H17.6683ZM17.2436 6.13823C18.0625 5.54587 18.7695 4.81242 19.3313 3.97222L17.6687 2.86052C17.2389 3.50335 16.698 4.0645 16.0714 4.51771L17.2436 6.13823ZM18.0947 2.50219C17.5123 2.7604 16.8944 2.92966 16.2617 3.0043L16.496 4.99052C17.3276 4.89241 18.1398 4.66994 18.9053 4.33055L18.0947 2.50219ZM16.8925 4.85544C17.8715 4.26941 18.6043 3.34755 18.9543 2.2615L17.0507 1.64804C16.8495 2.27244 16.4282 2.80244 15.8653 3.13937L16.8925 4.85544ZM17.4921 1.09481C16.8652 1.46687 16.1793 1.72905 15.464 1.87005L15.8508 3.83229C16.7897 3.64722 17.69 3.30308 18.5128 2.81473L17.4921 1.09481ZM16.3859 2.16609C15.6785 1.41385 14.7428 0.915738 13.7238 0.748831L13.4005 2.72253C13.9856 2.81836 14.5228 3.10435 14.929 3.53625L16.3859 2.16609ZM13.7238 0.748831C12.7047 0.581925 11.6591 0.75553 10.7486 1.24278L11.6923 3.00614C12.2151 2.72638 12.8154 2.6267 13.4005 2.72253L13.7238 0.748831ZM10.7486 1.24278C9.83817 1.73003 9.11369 2.50377 8.68729 3.44425L10.5088 4.27011C10.7536 3.73013 11.1696 3.28589 11.6923 3.00614L10.7486 1.24278ZM8.68729 3.44425C8.26089 4.38474 8.15634 5.43954 8.38982 6.44543L10.338 5.99323C10.204 5.4157 10.264 4.81009 10.5088 4.27011L8.68729 3.44425ZM9.41402 5.22058C8.0858 5.15396 6.78643 4.80877 5.60026 4.20744L4.69592 5.99131C6.1322 6.71943 7.70554 7.1374 9.31382 7.21807L9.41402 5.22058ZM5.60026 4.20744C4.41409 3.60611 3.36762 2.76206 2.52878 1.73009L0.97682 2.99161C1.99253 4.24117 3.25964 5.26318 4.69592 5.99131L5.60026 4.20744ZM0.888099 1.85856C0.288063 2.89154 0.104284 4.11438 0.374181 5.2781L2.32247 4.82624C2.16752 4.15816 2.27303 3.45615 2.6175 2.86314L0.888099 1.85856ZM0.374181 5.2781C0.644078 6.44181 1.34736 7.45892 2.34083 8.12232L3.45149 6.45906C2.88115 6.07821 2.47741 5.49431 2.32247 4.82624L0.374181 5.2781ZM2.92545 6.29112C2.49828 6.2786 2.0804 6.16336 1.7072 5.95516L0.732804 7.70174C1.38657 8.06647 2.11857 8.26833 2.86687 8.29026L2.92545 6.29112ZM0.22 6.82845V6.87525H2.22V6.82845H0.22ZM0.22 6.87552C0.220297 7.95896 0.595346 9.00894 1.28153 9.84737L2.82927 8.58068C2.43543 8.09946 2.22017 7.49682 2.22 6.87498L0.22 6.87552ZM1.28153 9.84737C1.96772 10.6858 2.92281 11.2611 3.98479 11.4756L4.38081 9.51521C3.77128 9.39208 3.22311 9.0619 2.82927 8.58068L1.28153 9.84737ZM3.91964 9.53066C3.52344 9.63873 3.10773 9.65452 2.70447 9.57683L2.32609 11.5407C3.02958 11.6762 3.75478 11.6487 4.44596 11.4602L3.91964 9.53066ZM1.56334 10.8651C1.86326 11.7972 2.44697 12.6124 3.23286 13.1965L4.42599 11.5914C3.97467 11.2559 3.63946 10.7878 3.46722 10.2525L1.56334 10.8651ZM3.23286 13.1965C4.01876 13.7807 4.96755 14.1047 5.9466 14.1232L5.98444 12.1236C5.42219 12.113 4.87732 11.9269 4.42599 11.5914L3.23286 13.1965ZM5.34755 12.3372C4.6852 12.8578 3.92671 13.2428 3.11546 13.47L3.65485 15.3959C4.71926 15.0977 5.71445 14.5927 6.58349 13.9096L5.34755 12.3372ZM3.11546 13.47C2.30422 13.6972 1.45613 13.7622 0.619732 13.6613L0.380268 15.6469C1.47769 15.7793 2.59043 15.694 3.65485 15.3959L3.11546 13.47ZM-0.0400721 15.4957C1.81033 16.6832 3.96334 17.313 6.16195 17.3101L6.15933 15.3101C4.34455 15.3125 2.56742 14.7926 1.04007 13.8125L-0.0400721 15.4957Z" fill="#778CA7" mask="url(#path-1-inside-1_1704_496)"/>
</g>
</g>
<defs>
<clipPath id="clip0_1704_496">
<rect width="18" height="18" fill="white" transform="translate(0.5)"/>
</clipPath>
</defs>
</svg>
