<svg width="18" height="19" viewBox="0 0 18 19" fill="none" xmlns="http://www.w3.org/2000/svg">
<g id="FontAwesome/twitter">
<path id="twitter" d="M14.3525 6.96582C14.8799 6.57031 15.3545 6.0957 15.7236 5.54199C15.249 5.75293 14.6953 5.91113 14.1416 5.96387C14.7217 5.62109 15.1436 5.09375 15.3545 4.43457C14.8271 4.75098 14.2207 4.98828 13.6143 5.12012C13.0869 4.56641 12.375 4.25 11.584 4.25C10.0547 4.25 8.81543 5.48926 8.81543 7.01855C8.81543 7.22949 8.8418 7.44043 8.89453 7.65137C6.60059 7.51953 4.54395 6.41211 3.17285 4.75098C2.93555 5.14648 2.80371 5.62109 2.80371 6.14844C2.80371 7.09766 3.27832 7.94141 4.04297 8.44238C3.59473 8.41602 3.14648 8.31055 2.77734 8.09961V8.12598C2.77734 9.4707 3.72656 10.5781 4.99219 10.8418C4.78125 10.8945 4.51758 10.9473 4.28027 10.9473C4.0957 10.9473 3.9375 10.9209 3.75293 10.8945C4.0957 12.002 5.12402 12.793 6.33691 12.8193C5.3877 13.5576 4.20117 14.0059 2.90918 14.0059C2.67188 14.0059 2.46094 13.9795 2.25 13.9531C3.46289 14.7441 4.91309 15.1924 6.49512 15.1924C11.584 15.1924 14.3525 11 14.3525 7.33496C14.3525 7.20312 14.3525 7.09766 14.3525 6.96582Z" fill="#6B7280"/>
</g>
</svg>
