<svg width="77" height="64" viewBox="0 0 77 64" fill="none" xmlns="http://www.w3.org/2000/svg">
<path id="Union" fill-rule="evenodd" clip-rule="evenodd" d="M75.8351 43.454C75.4064 41.4127 74.6055 39.4678 73.4725 37.7165L73.1791 37.0268L70.0388 29.4109C69.6032 28.204 69.0112 27.0595 68.2779 26.0065L62.0708 12.1835C61.806 11.5589 61.4765 10.9638 61.0876 10.408L59.224 5.78564C58.5279 3.80621 57.1367 2.14693 55.309 1.11633C53.4813 0.0857241 51.3415 -0.246057 49.2875 0.182678C47.2335 0.611412 45.4052 1.77148 44.1424 3.44718C42.8795 5.12288 42.2683 7.20015 42.4222 9.29275V10.6428C41.0868 9.48351 38.0199 7.70795 34.5715 11.2151L34.6742 9.29275C34.8021 7.38364 34.296 5.48573 33.2347 3.8937C32.1733 2.30166 30.616 1.10457 28.8046 0.48829L28.4231 0.400245L27.8068 0.23883L27.029 0.0627406H26.4421H26.2513C25.7601 0.0551467 25.2692 0.0895111 24.7839 0.165459C23.2486 0.409559 21.807 1.06116 20.6094 2.0523C19.4117 3.04343 18.502 4.33778 17.9751 5.80031L16.0675 10.4227C15.7046 10.9844 15.3951 11.5788 15.143 12.1982L8.8625 26.0065C8.12922 27.0595 7.53721 28.204 7.10161 29.4109L3.94668 37.0121L3.63852 37.7165C2.50403 39.4654 1.70764 41.4115 1.29066 43.454C0.777419 45.9052 0.810372 48.4392 1.38718 50.8762C1.96399 53.3131 3.0705 55.593 4.62806 57.554C6.18562 59.5149 8.156 61.1087 10.3992 62.2221C12.6423 63.3355 15.1032 63.9411 17.6068 63.9959C20.1105 64.0507 22.5955 63.5534 24.8852 62.5392C27.1749 61.5251 29.2132 60.0191 30.8551 58.1281C32.4969 56.2372 33.7022 54.0079 34.3851 51.5985C35.068 49.1892 35.2118 46.659 34.8063 44.1878L34.9824 36.4839V34.5615V33.3876C36.0167 32.6772 37.242 32.2968 38.4968 32.2968C39.7516 32.2968 40.977 32.6772 42.0113 33.3876V34.5762V36.4985L42.1874 44.2024C41.7882 46.6712 41.937 49.1976 42.6233 51.6025C43.3095 54.0074 44.5163 56.2319 46.1581 58.1183C47.8 60.0048 49.8367 61.5069 52.124 62.5184C54.4112 63.5298 56.8929 64.0258 59.3931 63.971C61.8934 63.9163 64.351 63.3123 66.5918 62.2018C68.8326 61.0913 70.8017 59.5014 72.3594 57.545C73.9172 55.5886 75.0256 53.3134 75.6059 50.8808C76.1863 48.4482 76.2244 45.9177 75.7177 43.4687L75.8351 43.454ZM32.7373 49.9547C32.1311 52.8744 30.6732 55.549 28.5477 57.6405C26.4223 59.7321 23.7246 61.1467 20.7955 61.7058C17.8664 62.2649 14.8373 61.9433 12.0909 60.7817C9.34444 59.6201 7.00392 57.6705 5.36497 55.1793C3.72603 52.6881 2.86219 49.767 2.8826 46.7851C2.903 43.8032 3.80673 40.8943 5.47961 38.4257C7.1525 35.9572 9.51948 34.0398 12.2815 32.9159C15.0436 31.792 18.0768 31.5119 20.998 32.111C22.9425 32.5078 24.7895 33.2848 26.4329 34.3973C28.0763 35.5099 29.4838 36.9361 30.5746 38.594C31.6653 40.252 32.4179 42.1091 32.789 44.0587C33.1601 46.0082 33.1426 48.0119 32.7373 49.9547ZM42.5689 23.6293C41.3644 22.8051 39.9158 22.4143 38.4602 22.5209C37.0046 22.6276 35.6283 23.2253 34.5568 24.2163V20.3277C35.6489 19.2977 37.0887 18.7168 38.5897 18.7005C40.0907 18.6842 41.5428 19.2337 42.6569 20.2396L42.5689 23.6293ZM62.1882 61.5912C59.2903 62.1933 56.2789 61.9228 53.5348 60.8137C50.7907 59.7046 48.437 57.8069 46.7712 55.3604C45.1054 52.9138 44.2024 50.0283 44.1763 47.0687C44.1502 44.109 45.0022 41.208 46.6245 38.7325C48.2468 36.257 50.5667 34.318 53.2908 33.1607C56.015 32.0034 59.0211 31.6797 61.9291 32.2306C64.8372 32.7815 67.5167 34.1822 69.6288 36.2556C71.7409 38.3291 73.1909 40.9822 73.7954 43.8796C74.1971 45.8048 74.2154 47.7902 73.8494 49.7225C73.4833 51.6547 72.7401 53.4959 71.6621 55.1408C70.5842 56.7856 69.1926 58.2019 67.567 59.3088C65.9414 60.4156 64.1137 61.1912 62.1882 61.5912ZM58.9979 43C55.6906 43 53.0001 45.6905 53.0001 48.9965C53.0001 49.9483 53.7712 50.7195 54.723 50.7195C55.6747 50.7195 56.4459 49.9483 56.4459 48.9965C56.4459 47.5899 57.5906 46.4459 58.9979 46.4459C60.4045 46.4459 61.5485 47.5899 61.5485 48.9965C61.5485 49.9483 62.3197 50.7195 63.2714 50.7195C64.2231 50.7195 64.9943 49.9483 64.9943 48.9965C64.9943 45.6898 62.3038 43 58.9979 43ZM12.0001 48.9966C12.0001 45.6906 14.6906 43 17.9979 43C21.3038 43 23.9943 45.6899 23.9943 48.9966C23.9943 49.9483 23.2231 50.7195 22.2714 50.7195C21.3197 50.7195 20.5485 49.9483 20.5485 48.9966C20.5485 47.59 19.4045 46.4459 17.9979 46.4459C16.5906 46.4459 15.4459 47.59 15.4459 48.9966C15.4459 49.9483 14.6747 50.7195 13.723 50.7195C12.7712 50.7195 12.0001 49.9483 12.0001 48.9966Z" fill="#2640EB"/>
</svg>
