<svg width="18" height="18" viewBox="0 0 18 18" fill="none" xmlns="http://www.w3.org/2000/svg">
<g id="user">
<path id="Vector" d="M10.5556 6.95565C10.1431 7.36823 9.58349 7.60001 9.00001 7.60001C8.41654 7.60001 7.85696 7.36823 7.44438 6.95565C7.0318 6.54307 6.80001 5.98349 6.80001 5.40001C6.80001 4.81654 7.0318 4.25696 7.44438 3.84438C7.85696 3.4318 8.41654 3.20001 9.00001 3.20001C9.58349 3.20001 10.1431 3.4318 10.5556 3.84438C10.9682 4.25696 11.2 4.81654 11.2 5.40001C11.2 5.98349 10.9682 6.54307 10.5556 6.95565ZM3.2216 15.7C3.27268 15.1097 3.41401 14.5297 3.64151 13.9804C3.93299 13.2768 4.36021 12.6374 4.89879 12.0988C5.43737 11.5602 6.07676 11.133 6.78045 10.8415C7.48414 10.55 8.23835 10.4 9.00001 10.4C9.76168 10.4 10.5159 10.55 11.2196 10.8415C11.9233 11.133 12.5627 11.5602 13.1012 12.0988C13.6398 12.6374 14.067 13.2768 14.3585 13.9804C14.586 14.5297 14.7273 15.1097 14.7784 15.7H3.2216Z" fill="#778CA7" stroke="#778CA7"/>
</g>
</svg>
