<svg width="16" height="16" viewBox="0 0 16 16" fill="none" xmlns="http://www.w3.org/2000/svg">
<path id="Union" fill-rule="evenodd" clip-rule="evenodd" d="M2.74556 0.66272H13.0651V2.74555H16L15.3846 4.82839H14.8639V13.2544C15.1253 13.2544 15.3373 13.4664 15.3373 13.7278V14.2959H15.4319C15.6934 14.2959 15.9053 14.5078 15.9053 14.7692V15.3373H10.6036V14.7692C10.6036 14.5078 10.8155 14.2959 11.0769 14.2959H11.1716V13.7278C11.1716 13.4988 11.3342 13.3078 11.5503 13.2639V8.61538H11.5354C11.368 6.75761 9.80668 5.30176 7.90532 5.30176C6.00397 5.30176 4.44263 6.75761 4.2752 8.61538H4.26036V13.2544H4.35502C4.61646 13.2544 4.82841 13.4664 4.82841 13.7278V14.2959H4.92308C5.18451 14.2959 5.39644 14.5078 5.39644 14.7692V15.3373H0.0946648V14.7692C0.0946648 14.5078 0.306618 14.2959 0.568054 14.2959H0.662719V13.7278C0.662719 13.4664 0.874651 13.2544 1.13609 13.2544V4.82839H0.615387L0 2.74555H2.74556V0.66272Z" fill="#2640EB"/>
</svg>
