<svg width="15" height="17" viewBox="0 0 15 17" fill="none" xmlns="http://www.w3.org/2000/svg">
<path id="Union" fill-rule="evenodd" clip-rule="evenodd" d="M6.52599 0.759375L6.99565 1.69872C7.11168 1.93081 7.01765 2.2129 6.78561 2.32893C6.55196 2.445 6.27127 2.35003 6.1554 2.11887L5.68571 1.17953C5.56965 0.947438 5.66368 0.665344 5.89577 0.549313C6.12787 0.434189 6.40905 0.527282 6.52599 0.759375ZM10.8025 3.31781H11.7419C12.0015 3.31781 12.2115 3.52787 12.2116 3.7875C12.2116 4.04712 12.0015 4.25718 11.7419 4.25718H10.8025C10.5429 4.25718 10.3328 4.04709 10.3328 3.7875C10.3328 3.52787 10.5429 3.31781 10.8025 3.31781ZM10.0733 0.549308C9.84209 0.434183 9.55912 0.527308 9.44306 0.75937L8.97337 1.69871C8.85734 1.93081 8.95137 2.21287 9.18343 2.32893C9.41777 2.4453 9.69812 2.34924 9.81365 2.11887L10.2833 1.17953C10.3994 0.947432 10.3053 0.665339 10.0733 0.549308ZM4.22709 3.31781H5.16643C5.42603 3.31781 5.63612 3.52787 5.63612 3.7875C5.63612 4.04712 5.42603 4.25718 5.16643 4.25718H4.22709C3.96747 4.25718 3.75741 4.04709 3.75741 3.7875C3.75741 3.52787 3.9675 3.31781 4.22709 3.31781ZM2.3484 8.04586H0.469687C0.210312 8.04586 0 8.25614 0 8.51554V16.0303C0 16.2897 0.210281 16.5 0.469687 16.5H2.34837C2.60774 16.5 2.81806 16.2897 2.81806 16.0303V8.51551C2.81806 8.25614 2.60781 8.04586 2.3484 8.04586ZM12.5842 8.04586C13.3175 8.04586 13.9981 8.56227 14.0809 9.29086C14.1292 9.71489 13.9875 10.1073 13.7307 10.3942C14.4297 11.1751 14.059 12.4187 13.0519 12.6931C13.1156 12.8541 13.1509 13.0293 13.1509 13.2123C13.1509 13.8608 12.7102 14.409 12.1125 14.5718C12.5048 15.5624 11.7164 16.5 10.704 16.5H7.63167C5.99588 16.5 4.87621 16.1209 3.99102 15.8211C3.91135 15.7941 3.83357 15.7678 3.75749 15.7424V8.69502C3.82079 8.66338 3.88251 8.63292 3.94291 8.60311C4.45668 8.34955 4.87467 8.14326 5.35505 7.66289C6.15264 6.86527 6.57554 4.9049 6.57554 3.81881C6.57554 3.55918 6.78564 3.34912 7.04523 3.34912H7.43279C8.49851 3.34912 9.38104 4.20312 9.39332 5.2688C9.40073 5.91262 9.2337 7.48864 8.92251 8.04586H12.5842Z" fill="white"/>
</svg>
